<?xml version="1.0" encoding="UTF-8" standalone="no"?>
<!DOCTYPE svg PUBLIC "-//W3C//DTD SVG 1.1//EN" "http://www.w3.org/Graphics/SVG/1.1/DTD/svg11.dtd">
<svg width="100%" height="100%" viewBox="0 0 929 399" version="1.1" xmlns="http://www.w3.org/2000/svg" xmlns:xlink="http://www.w3.org/1999/xlink" xml:space="preserve" xmlns:serif="http://www.serif.com/" style="fill-rule:evenodd;clip-rule:evenodd;stroke-linejoin:round;stroke-miterlimit:2;">
    <g id="Artboard1" transform="matrix(1,0,0,1,-49.55,-49.55)">
        <rect x="49.55" y="49.55" width="928.65" height="398.3" style="fill:none;"/>
        <clipPath id="_clip1">
            <rect x="49.55" y="49.55" width="928.65" height="398.3"/>
        </clipPath>
        <g clip-path="url(#_clip1)">
            <g transform="matrix(1,0,0,1,0.55,0.55)">
                <path d="M144.18,238.95C124.07,238.95 111.51,224.77 111.51,201.25L111.51,179.35C111.51,156.19 124.08,142.01 144.18,142.01C158.18,142.01 167.7,150.27 170.75,164.27L172.01,164.27L170.57,143.8L170.57,129.8L154.41,129.8L152.79,128.36L152.79,112.92L154.41,111.48L189.06,111.48L190.5,112.92L190.5,218.84L206.66,218.84L208.28,220.28L208.28,235.72L206.66,237.16L173.63,237.16L172.01,235.72L172.01,216.69L170.75,216.69C167.7,230.69 158.19,238.95 144.18,238.95ZM131.62,202.69C131.62,214.36 138.98,221.54 151.19,221.54C163.04,221.54 170.58,214.36 170.58,202.69L170.58,178.45C170.58,166.6 163.04,159.42 151.19,159.42C138.98,159.42 131.62,166.6 131.62,178.27L131.62,202.69ZM216.74,237.15L215.12,235.71L215.12,220.27L216.74,218.83L232.9,218.83L232.9,162.1L217.82,162.1L216.38,160.66L216.38,145.22L217.82,143.78L251.39,143.78L252.83,145.22L252.83,218.83L268.99,218.83L270.61,220.27L270.61,235.71L268.99,237.15L216.74,237.15ZM230.56,129.8L230.56,108.08L232,106.64L253.9,106.64L255.34,108.08L255.34,129.8L253.9,131.42L232,131.42L230.56,129.8ZM337.52,237.15L335.91,235.71L335.91,216.68L334.83,216.68C331.96,230.68 321.01,238.94 305.93,238.94C287.62,238.94 276.49,228.35 276.49,210.75C276.49,193.52 288.34,183.28 308.44,183.28L334.47,183.28L334.47,173.59C334.47,163.9 328.37,158.87 317.77,158.87C307.18,158.87 300.36,166.23 297.12,175.57L281.14,175.57L279.7,174.13L279.7,145.23L281.14,143.79L296.76,143.79L298.02,145.23L298.02,162.28L299.46,162.28C302.51,149.89 311.49,141.99 324.77,141.99C342.72,141.99 354.39,154.74 354.39,171.07L354.39,218.82L368.93,218.82L370.37,220.26L370.37,235.7L368.93,237.14L337.52,237.14L337.52,237.15ZM290.31,126.93L291.21,125.13L342.38,111.31L344.17,112.39L345.61,118.13L344.53,119.93L293.54,133.75L291.57,132.67L290.31,126.93ZM296.59,208.79C296.59,217.41 302.52,222.61 312.93,222.61C327.11,222.61 334.47,214.89 334.47,202.14L334.47,195.68L312.03,195.68C302.16,195.68 296.59,200.71 296.59,208.79ZM395.03,129.8L380.48,129.8L379.04,128.36L379.04,112.92L380.48,111.48L413.51,111.48L414.95,112.92L414.95,218.84L431.11,218.84L432.72,220.28L432.72,235.72L431.11,237.16L378.87,237.16L377.25,235.72L377.25,220.28L378.87,218.84L395.03,218.84L395.03,129.8ZM480.4,238.95C455.62,238.95 440.55,224.41 440.55,200.89L440.55,180.06C440.55,156.54 455.63,142 480.4,142C505.17,142 520.25,156.54 520.25,180.06L520.25,200.89C520.25,224.41 505.17,238.95 480.4,238.95ZM460.65,201.97C460.65,214.18 468.19,221.54 480.4,221.54C492.61,221.54 500.33,214.18 500.33,201.97L500.33,178.99C500.33,166.78 492.61,159.42 480.4,159.42C468.19,159.42 460.65,166.78 460.65,178.99L460.65,201.97ZM542.51,271.26L540.89,269.82L540.89,254.38L542.51,252.94L589.55,252.94L589.55,237.14L590.99,216.67L589.73,216.67C586.68,230.67 577.16,238.93 563.16,238.93C543.05,238.93 530.49,224.75 530.49,201.23L530.49,179.33C530.49,156.17 543.06,141.99 563.16,141.99C577.16,141.99 586.68,150.25 589.73,164.25L590.99,164.25L590.99,145.22L592.6,143.78L625.63,143.78L627.25,145.22L627.25,160.66L625.63,162.1L609.47,162.1L609.47,252.94C609.47,264.79 602.65,271.25 589.54,271.25L542.51,271.25L542.51,271.26ZM550.59,202.69C550.59,214.36 557.95,221.54 570.16,221.54C582.01,221.54 589.55,214.36 589.55,202.51L589.55,178.27C589.55,166.6 582.01,159.42 570.16,159.42C557.95,159.42 550.59,166.6 550.59,178.27L550.59,202.69ZM672.19,238.95C647.42,238.95 632.34,224.41 632.34,200.89L632.34,180.06C632.34,156.54 647.42,142 672.19,142C696.97,142 712.05,156.54 712.05,180.06L712.05,200.89C712.05,224.41 696.97,238.95 672.19,238.95ZM652.45,201.97C652.45,214.18 659.99,221.54 672.2,221.54C684.41,221.54 692.13,214.18 692.13,201.97L692.13,178.99C692.13,166.78 684.41,159.42 672.2,159.42C659.99,159.42 652.45,166.78 652.45,178.99L652.45,201.97ZM769.85,238.95C752.26,238.95 745.26,230.69 742.2,216.69L740.76,216.69L740.76,235.72L739.32,237.16L723.9,237.16L722.28,235.72L722.28,205.74L723.9,204.12L739.52,204.12C743.47,216.15 751.37,221.53 764.11,221.53C774.88,221.53 780.81,217.76 780.81,209.5C780.81,203.76 777.22,201.06 767.89,199.27L751,196.4C734.3,193.53 723.53,185.45 723.71,169.65C723.89,151.52 737.35,142 752.44,142C767.52,142 774.34,150.26 776.86,161.57L778.11,161.57L778.11,145.23L779.73,143.79L795.17,143.79L796.61,145.23L796.61,170.72L795.17,172.16L779.55,172.16C773.8,163.18 766.08,159.41 758.37,159.41C749.75,159.41 744.37,163.18 744.37,170.18C744.37,177 749.94,179.52 757.48,180.95L774.18,183.82C792.85,187.05 801.47,194.41 801.47,210.03C801.45,227.64 787.63,238.95 769.85,238.95ZM144.18,387.71C124.07,387.71 111.51,373.53 111.51,350.01L111.51,328.11C111.51,304.95 124.08,290.77 144.18,290.77C158.18,290.77 167.7,299.03 170.75,313.03L172.01,313.03L170.57,292.56L170.57,278.56L154.41,278.56L152.79,277.12L152.79,261.68L154.41,260.24L189.06,260.24L190.5,261.68L190.5,367.6L206.66,367.6L208.28,369.04L208.28,384.48L206.66,385.92L173.63,385.92L172.01,384.48L172.01,365.45L170.75,365.45C167.7,379.45 158.19,387.71 144.18,387.71ZM131.62,351.45C131.62,363.12 138.98,370.3 151.19,370.3C163.04,370.3 170.58,363.12 170.58,351.45L170.58,327.21C170.58,315.36 163.04,308.18 151.19,308.18C138.98,308.18 131.62,315.36 131.62,327.03L131.62,351.45ZM254.27,387.71C229.67,387.71 214.59,373.17 214.59,349.65L214.59,328.83C214.59,305.31 229.67,290.77 254.27,290.77C279.04,290.77 294.12,305.31 294.12,328.83L294.12,342.29L292.68,343.73L234.7,343.73L234.7,350.91C234.7,362.94 242.24,370.3 254.27,370.3C266.3,370.3 274.02,363.66 274.02,352.89L275.64,351.45L292.7,351.45L294.14,352.89C293.95,374.43 278.87,387.71 254.27,387.71ZM234.7,331.16L274.02,331.16L274.02,327.75C274.02,315.54 266.48,308.18 254.27,308.18C242.24,308.18 234.7,315.54 234.7,327.75L234.7,331.16ZM385.69,387.71C365.58,387.71 353.02,373.53 353.02,350.01L353.02,328.11C353.02,304.95 365.59,290.77 385.69,290.77C399.69,290.77 409.21,299.03 412.26,313.03L413.52,313.03L412.08,292.56L412.08,278.56L395.92,278.56L394.3,277.12L394.3,261.68L395.92,260.24L430.57,260.24L432.01,261.68L432.01,367.6L448.17,367.6L449.79,369.04L449.79,384.48L448.17,385.92L415.14,385.92L413.52,384.48L413.52,365.45L412.26,365.45C409.21,379.45 399.69,387.71 385.69,387.71ZM373.12,351.45C373.12,363.12 380.48,370.3 392.69,370.3C404.54,370.3 412.08,363.12 412.08,351.45L412.08,327.21C412.08,315.36 404.54,308.18 392.69,308.18C380.48,308.18 373.12,315.36 373.12,327.03L373.12,351.45ZM495.78,387.71C471.18,387.71 456.1,373.17 456.1,349.65L456.1,328.83C456.1,305.31 471.18,290.77 495.78,290.77C520.55,290.77 535.63,305.31 535.63,328.83L535.63,342.29L534.19,343.73L476.2,343.73L476.2,350.91C476.2,362.94 483.74,370.3 495.77,370.3C507.8,370.3 515.52,363.66 515.52,352.89L517.14,351.45L534.2,351.45L535.64,352.89C535.45,374.43 520.37,387.71 495.78,387.71ZM476.21,331.16L515.53,331.16L515.53,327.75C515.53,315.54 507.99,308.18 495.78,308.18C483.75,308.18 476.21,315.54 476.21,327.75L476.21,331.16ZM593.27,387.71C575.68,387.71 568.68,379.45 565.62,365.45L564.18,365.45L564.18,384.48L562.74,385.92L547.3,385.92L545.69,384.48L545.69,354.5L547.3,352.88L562.92,352.88C566.87,364.91 574.77,370.29 587.51,370.29C598.28,370.29 604.21,366.52 604.21,358.26C604.21,352.52 600.62,349.82 591.29,348.03L574.41,345.16C557.71,342.29 546.94,334.21 547.12,318.41C547.3,300.28 560.76,290.76 575.84,290.76C590.92,290.76 597.74,299.02 600.26,310.33L601.52,310.33L601.52,294L603.14,292.56L618.58,292.56L620.02,294L620.02,319.49L618.58,320.93L602.96,320.93C597.22,311.95 589.5,308.18 581.78,308.18C573.16,308.18 567.78,311.95 567.78,318.95C567.78,325.77 573.35,328.29 580.89,329.72L597.59,332.59C616.26,335.82 624.88,343.18 624.88,358.8C624.86,376.4 611.04,387.71 593.27,387.71ZM636.54,385.91L634.92,384.47L634.92,369.03L636.54,367.59L652.7,367.59L652.7,310.86L637.62,310.86L636.18,309.42L636.18,294L637.62,292.56L671.19,292.56L672.63,294L672.63,367.61L688.79,367.61L690.4,369.05L690.4,384.49L688.79,385.93L636.54,385.93L636.54,385.91ZM650.37,278.56L650.37,256.84L651.81,255.4L673.71,255.4L675.15,256.84L675.15,278.56L673.71,280.18L651.81,280.18L650.37,278.56ZM708.32,420.03L706.71,418.59L706.71,403.15L708.32,401.71L755.36,401.71L755.36,385.91L756.8,365.44L755.54,365.44C752.49,379.44 742.97,387.7 728.97,387.7C708.86,387.7 696.29,373.52 696.29,350L696.29,328.1C696.29,304.94 708.86,290.76 728.97,290.76C742.97,290.76 752.49,299.02 755.54,313.02L756.8,313.02L756.8,294L758.41,292.56L791.44,292.56L793.05,294L793.05,309.44L791.44,310.88L775.28,310.88L775.28,401.72C775.28,413.57 768.46,420.03 755.35,420.03L708.32,420.03ZM716.4,351.45C716.4,363.12 723.76,370.3 735.97,370.3C747.82,370.3 755.36,363.12 755.36,351.27L755.36,327.03C755.36,315.36 747.82,308.18 735.97,308.18C723.76,308.18 716.4,315.36 716.4,327.03L716.4,351.45ZM879.75,385.91L878.31,384.47L878.31,327.02C878.31,315.35 870.95,308.17 858.74,308.17C846.89,308.17 839.35,315.35 839.35,327.2L839.35,367.59L855.51,367.59L857.12,369.03L857.12,384.47L855.51,385.91L803.27,385.91L801.65,384.47L801.65,369.03L803.27,367.59L819.43,367.59L819.43,310.86L803.27,310.86L801.65,309.42L801.65,294L803.27,292.56L836.3,292.56L837.91,294L837.91,313.03L839.17,313.03C842.4,299.03 852.45,290.77 867,290.77C886.39,290.77 898.42,304.05 898.42,325.78L898.42,367.61L914.58,367.61L916.02,369.05L916.02,384.49L914.58,385.93L879.75,385.93L879.75,385.91Z" style="fill:white;fill-rule:nonzero;"/>
                <path d="M501.49,72.71L501.49,50.99L502.93,49.55L524.83,49.55L526.26,50.99L526.26,72.71L524.83,74.32L502.93,74.32L501.49,72.71Z" style="fill:white;fill-rule:nonzero;"/>
                <path d="M501.49,446.24L501.49,424.51L502.93,423.08L524.83,423.08L526.26,424.51L526.26,446.24L524.83,447.85L502.93,447.85L501.49,446.24Z" style="fill:white;fill-rule:nonzero;"/>
                <path d="M49.55,72.71L49.55,50.99L50.99,49.55L72.89,49.55L74.32,50.99L74.32,72.71L72.89,74.32L50.99,74.32L49.55,72.71Z" style="fill:white;fill-rule:nonzero;"/>
                <path d="M49.55,446.24L49.55,424.51L50.99,423.08L72.89,423.08L74.32,424.51L74.32,446.24L72.89,447.85L50.99,447.85L49.55,446.24Z" style="fill:white;fill-rule:nonzero;"/>
                <path d="M953.43,72.71L953.43,50.99L954.87,49.55L976.77,49.55L978.2,50.99L978.2,72.71L976.77,74.32L954.87,74.32L953.43,72.71Z" style="fill:white;fill-rule:nonzero;"/>
                <path d="M953.43,446.24L953.43,424.51L954.87,423.08L976.77,423.08L978.2,424.51L978.2,446.24L976.77,447.85L954.87,447.85L953.43,446.24Z" style="fill:white;fill-rule:nonzero;"/>
                <path d="M49.55,259.47L49.55,237.75L50.99,236.31L72.89,236.31L74.32,237.75L74.32,259.47L72.89,261.09L50.99,261.09L49.55,259.47Z" style="fill:white;fill-rule:nonzero;"/>
                <path d="M953.43,259.47L953.43,237.75L954.87,236.31L976.77,236.31L978.2,237.75L978.2,259.47L976.77,261.09L954.87,261.09L953.43,259.47Z" style="fill:white;fill-rule:nonzero;"/>
                <path d="M968.32,437.96L59.44,437.96L59.44,59.44L968.32,59.44L968.32,437.96ZM64.44,432.96L963.32,432.96L963.32,64.44L64.44,64.44L64.44,432.96Z" style="fill:white;fill-rule:nonzero;"/>
            </g>
        </g>
    </g>
</svg>
