<?xml version="1.0" encoding="utf-8"?>
<!-- Generator: Adobe Illustrator 26.2.1, SVG Export Plug-In . SVG Version: 6.00 Build 0)  -->
<svg version="1.1" id="Layer_1" xmlns="http://www.w3.org/2000/svg" xmlns:xlink="http://www.w3.org/1999/xlink" x="0px" y="0px"
	 viewBox="0 0 1027.98 497.4" style="enable-background:new 0 0 1027.98 497.4;" xml:space="preserve">
<style type="text/css">
	.st0{fill:#FFF;}
</style>
<path class="st0" d="M144.18,238.95c-20.11,0-32.67-14.18-32.67-37.7v-21.9c0-23.16,12.57-37.34,32.67-37.34
	c14,0,23.52,8.26,26.57,22.26h1.26l-1.44-20.47v-14h-16.16l-1.62-1.44v-15.44l1.62-1.44h34.65l1.44,1.44v105.92h16.16l1.62,1.44
	v15.44l-1.62,1.44h-33.03l-1.62-1.44v-19.03h-1.26C167.7,230.69,158.19,238.95,144.18,238.95z M131.62,202.69
	c0,11.67,7.36,18.85,19.57,18.85c11.85,0,19.39-7.18,19.39-18.85v-24.24c0-11.85-7.54-19.03-19.39-19.03
	c-12.21,0-19.57,7.18-19.57,18.85V202.69z M216.74,237.15l-1.62-1.44v-15.44l1.62-1.44h16.16v-56.73h-15.08l-1.44-1.44v-15.44
	l1.44-1.44h33.57l1.44,1.44v73.61h16.16l1.62,1.44v15.44l-1.62,1.44H216.74z M230.56,129.8v-21.72l1.44-1.44h21.9l1.44,1.44v21.72
	l-1.44,1.62H232L230.56,129.8z M337.52,237.15l-1.61-1.44v-19.03h-1.08c-2.87,14-13.82,22.26-28.9,22.26
	c-18.31,0-29.44-10.59-29.44-28.19c0-17.23,11.85-27.47,31.95-27.47h26.03v-9.69c0-9.69-6.1-14.72-16.7-14.72
	c-10.59,0-17.41,7.36-20.65,16.7h-15.98l-1.44-1.44v-28.9l1.44-1.44h15.62l1.26,1.44v17.05h1.44c3.05-12.39,12.03-20.29,25.31-20.29
	c17.95,0,29.62,12.75,29.62,29.08v47.75h14.54l1.44,1.44v15.44l-1.44,1.44H337.52z M290.31,126.93l0.9-1.8l51.17-13.82l1.79,1.08
	l1.44,5.74l-1.08,1.8l-50.99,13.82l-1.97-1.08L290.31,126.93z M296.59,208.79c0,8.62,5.93,13.82,16.34,13.82
	c14.18,0,21.54-7.72,21.54-20.47v-6.46h-22.44C302.16,195.68,296.59,200.71,296.59,208.79z M395.02,129.8h-14.54l-1.44-1.44v-15.44
	l1.44-1.44h33.03l1.44,1.44v105.92h16.16l1.61,1.44v15.44l-1.61,1.44h-52.24l-1.62-1.44v-15.44l1.62-1.44h16.16V129.8z
	 M480.4,238.95c-24.78,0-39.85-14.54-39.85-38.06v-20.83c0-23.52,15.08-38.06,39.85-38.06c24.77,0,39.85,14.54,39.85,38.06v20.83
	C520.25,224.41,505.17,238.95,480.4,238.95z M460.65,201.97c0,12.21,7.54,19.57,19.75,19.57c12.21,0,19.93-7.36,19.93-19.57v-22.98
	c0-12.21-7.72-19.57-19.93-19.57c-12.21,0-19.75,7.36-19.75,19.57V201.97z M542.51,271.26l-1.62-1.44v-15.44l1.62-1.44h47.04v-15.8
	l1.44-20.47h-1.26c-3.05,14-12.57,22.26-26.57,22.26c-20.11,0-32.67-14.18-32.67-37.7v-21.9c0-23.16,12.57-37.34,32.67-37.34
	c14,0,23.52,8.26,26.57,22.26h1.26v-19.03l1.61-1.44h33.03l1.62,1.44v15.44l-1.62,1.44h-16.16v90.84c0,11.85-6.82,18.31-19.93,18.31
	H542.51z M550.59,202.69c0,11.67,7.36,18.85,19.57,18.85c11.85,0,19.39-7.18,19.39-19.03v-24.24c0-11.67-7.54-18.85-19.39-18.85
	c-12.21,0-19.57,7.18-19.57,18.85V202.69z M672.19,238.95c-24.77,0-39.85-14.54-39.85-38.06v-20.83c0-23.52,15.08-38.06,39.85-38.06
	c24.78,0,39.86,14.54,39.86,38.06v20.83C712.05,224.41,696.97,238.95,672.19,238.95z M652.45,201.97c0,12.21,7.54,19.57,19.75,19.57
	c12.21,0,19.93-7.36,19.93-19.57v-22.98c0-12.21-7.72-19.57-19.93-19.57c-12.21,0-19.75,7.36-19.75,19.57V201.97z M769.85,238.95
	c-17.59,0-24.59-8.26-27.65-22.26h-1.44v19.03l-1.44,1.44H723.9l-1.62-1.44v-29.98l1.62-1.62h15.62
	c3.95,12.03,11.85,17.41,24.59,17.41c10.77,0,16.7-3.77,16.7-12.03c0-5.74-3.59-8.44-12.92-10.23L751,196.4
	c-16.7-2.87-27.47-10.95-27.29-26.75c0.18-18.13,13.64-27.65,28.73-27.65c15.08,0,21.9,8.26,24.42,19.57h1.25v-16.34l1.62-1.44
	h15.44l1.44,1.44v25.49l-1.44,1.44h-15.62c-5.75-8.98-13.47-12.75-21.18-12.75c-8.62,0-14,3.77-14,10.77
	c0,6.82,5.57,9.34,13.11,10.77l16.7,2.87c18.67,3.23,27.29,10.59,27.29,26.21C801.45,227.64,787.63,238.95,769.85,238.95z
	 M144.18,387.71c-20.11,0-32.67-14.18-32.67-37.7v-21.9c0-23.16,12.57-37.34,32.67-37.34c14,0,23.52,8.26,26.57,22.26h1.26
	l-1.44-20.47v-14h-16.16l-1.62-1.44v-15.44l1.62-1.44h34.65l1.44,1.44V367.6h16.16l1.62,1.44v15.44l-1.62,1.44h-33.03l-1.62-1.44
	v-19.03h-1.26C167.7,379.45,158.19,387.71,144.18,387.71z M131.62,351.45c0,11.67,7.36,18.85,19.57,18.85
	c11.85,0,19.39-7.18,19.39-18.85v-24.24c0-11.85-7.54-19.03-19.39-19.03c-12.21,0-19.57,7.18-19.57,18.85V351.45z M254.27,387.71
	c-24.6,0-39.68-14.54-39.68-38.06v-20.82c0-23.52,15.08-38.06,39.68-38.06c24.77,0,39.85,14.54,39.85,38.06v13.46l-1.44,1.44H234.7
	v7.18c0,12.03,7.54,19.39,19.57,19.39c12.03,0,19.75-6.64,19.75-17.41l1.62-1.44h17.06l1.44,1.44
	C293.95,374.43,278.87,387.71,254.27,387.71z M234.7,331.16h39.32v-3.41c0-12.21-7.54-19.57-19.75-19.57
	c-12.03,0-19.57,7.36-19.57,19.57V331.16z M385.69,387.71c-20.11,0-32.67-14.18-32.67-37.7v-21.9c0-23.16,12.57-37.34,32.67-37.34
	c14,0,23.52,8.26,26.57,22.26h1.26l-1.44-20.47v-14h-16.16l-1.62-1.44v-15.44l1.62-1.44h34.65l1.44,1.44V367.6h16.16l1.62,1.44
	v15.44l-1.62,1.44h-33.03l-1.62-1.44v-19.03h-1.26C409.21,379.45,399.69,387.71,385.69,387.71z M373.12,351.45
	c0,11.67,7.36,18.85,19.57,18.85c11.85,0,19.39-7.18,19.39-18.85v-24.24c0-11.85-7.54-19.03-19.39-19.03
	c-12.21,0-19.57,7.18-19.57,18.85V351.45z M495.78,387.71c-24.6,0-39.68-14.54-39.68-38.06v-20.82c0-23.52,15.08-38.06,39.68-38.06
	c24.77,0,39.85,14.54,39.85,38.06v13.46l-1.44,1.44h-57.99v7.18c0,12.03,7.54,19.39,19.57,19.39c12.03,0,19.75-6.64,19.75-17.41
	l1.62-1.44h17.06l1.44,1.44C535.45,374.43,520.37,387.71,495.78,387.71z M476.21,331.16h39.32v-3.41c0-12.21-7.54-19.57-19.75-19.57
	c-12.03,0-19.57,7.36-19.57,19.57V331.16z M593.27,387.71c-17.59,0-24.59-8.26-27.65-22.26h-1.44v19.03l-1.44,1.44h-15.44
	l-1.61-1.44V354.5l1.61-1.62h15.62c3.95,12.03,11.85,17.41,24.59,17.41c10.77,0,16.7-3.77,16.7-12.03c0-5.74-3.59-8.44-12.92-10.23
	l-16.88-2.87c-16.7-2.87-27.47-10.95-27.29-26.75c0.18-18.13,13.64-27.65,28.72-27.65c15.08,0,21.9,8.26,24.42,19.57h1.26V294
	l1.62-1.44h15.44l1.44,1.44v25.49l-1.44,1.44h-15.62c-5.74-8.98-13.46-12.75-21.18-12.75c-8.62,0-14,3.77-14,10.77
	c0,6.82,5.57,9.34,13.11,10.77l16.7,2.87c18.67,3.23,27.29,10.59,27.29,26.21C624.86,376.4,611.04,387.71,593.27,387.71z
	 M636.54,385.91l-1.62-1.44v-15.44l1.62-1.44h16.16v-56.73h-15.08l-1.44-1.44V294l1.44-1.44h33.57l1.44,1.44v73.61h16.16l1.61,1.44
	v15.44l-1.61,1.44H636.54z M650.37,278.56v-21.72l1.44-1.44h21.9l1.44,1.44v21.72l-1.44,1.62h-21.9L650.37,278.56z M708.32,420.03
	l-1.61-1.44v-15.44l1.61-1.44h47.04v-15.8l1.44-20.47h-1.26c-3.05,14-12.57,22.26-26.57,22.26c-20.11,0-32.68-14.18-32.68-37.7
	v-21.9c0-23.16,12.57-37.34,32.68-37.34c14,0,23.52,8.26,26.57,22.26h1.26V294l1.61-1.44h33.03l1.61,1.44v15.44l-1.61,1.44h-16.16
	v90.84c0,11.85-6.82,18.31-19.93,18.31H708.32z M716.4,351.45c0,11.67,7.36,18.85,19.57,18.85c11.85,0,19.39-7.18,19.39-19.03
	v-24.24c0-11.67-7.54-18.85-19.39-18.85c-12.21,0-19.57,7.18-19.57,18.85V351.45z M879.75,385.91l-1.44-1.44v-57.45
	c0-11.67-7.36-18.85-19.57-18.85c-11.85,0-19.39,7.18-19.39,19.03v40.39h16.16l1.61,1.44v15.44l-1.61,1.44h-52.24l-1.62-1.44v-15.44
	l1.62-1.44h16.16v-56.73h-16.16l-1.62-1.44V294l1.62-1.44h33.03l1.61,1.44v19.03h1.26c3.23-14,13.28-22.26,27.83-22.26
	c19.39,0,31.42,13.28,31.42,35.01v41.83h16.16l1.44,1.44v15.44l-1.44,1.44H879.75z"/>
<polygon class="st0" points="501.49,72.71 501.49,50.99 502.93,49.55 524.83,49.55 526.26,50.99 526.26,72.71 524.83,74.32 
	502.93,74.32 "/>
<polygon class="st0" points="501.49,446.24 501.49,424.51 502.93,423.08 524.83,423.08 526.26,424.51 526.26,446.24 524.83,447.85 
	502.93,447.85 "/>
<polygon class="st0" points="49.55,72.71 49.55,50.99 50.99,49.55 72.89,49.55 74.32,50.99 74.32,72.71 72.89,74.32 50.99,74.32 "/>
<polygon class="st0" points="49.55,446.24 49.55,424.51 50.99,423.08 72.89,423.08 74.32,424.51 74.32,446.24 72.89,447.85 
	50.99,447.85 "/>
<polygon class="st0" points="953.43,72.71 953.43,50.99 954.87,49.55 976.77,49.55 978.2,50.99 978.2,72.71 976.77,74.32 
	954.87,74.32 "/>
<polygon class="st0" points="953.43,446.24 953.43,424.51 954.87,423.08 976.77,423.08 978.2,424.51 978.2,446.24 976.77,447.85 
	954.87,447.85 "/>
<polygon class="st0" points="49.55,259.47 49.55,237.75 50.99,236.31 72.89,236.31 74.32,237.75 74.32,259.47 72.89,261.09 
	50.99,261.09 "/>
<polygon class="st0" points="953.43,259.47 953.43,237.75 954.87,236.31 976.77,236.31 978.2,237.75 978.2,259.47 976.77,261.09 
	954.87,261.09 "/>
<g>
	<path class="st0" d="M968.32,437.96H59.44V59.44h908.88V437.96z M64.44,432.96h898.88V64.44H64.44V432.96z"/>
</g>
</svg>
