<?xml version="1.0" encoding="UTF-8" standalone="no"?>
<!DOCTYPE svg PUBLIC "-//W3C//DTD SVG 1.1//EN" "http://www.w3.org/Graphics/SVG/1.1/DTD/svg11.dtd">
<svg width="100%" height="100%" viewBox="0 0 939 315" version="1.1" xmlns="http://www.w3.org/2000/svg" xmlns:xlink="http://www.w3.org/1999/xlink" xml:space="preserve" xmlns:serif="http://www.serif.com/" style="fill-rule:evenodd;clip-rule:evenodd;stroke-linejoin:round;stroke-miterlimit:2;">
    <path d="M938.89,306.62L870.45,306.62L870.45,181.07C870.45,171.62 869.6,162.35 866.09,153.43C861.63,142.09 853.15,136.26 841.34,135.02C834.34,134.28 827.35,134.57 820.59,136.86C807.94,141.14 801.86,150.96 799.16,163.2C797.96,168.62 797.43,174.29 797.41,179.85C797.27,220.97 797.34,262.09 797.34,303.21L797.34,306.44L729.34,306.44L729.34,303.06C729.34,262.34 729.36,221.62 729.32,180.9C729.31,171.37 728.58,161.93 724.66,153.03C719.62,141.59 710.83,135.58 698.39,134.85C690.19,134.37 682.17,135.12 674.86,139.26C664.97,144.85 660.14,154.05 658.08,164.67C656.81,171.2 656.26,177.96 656.23,184.61C656.07,223.83 656.15,263.05 656.15,302.27L656.15,306.53L588.41,306.53L588.41,78.7L651.75,78.7L651.75,102.37C668.46,78.1 691.96,69.78 719.37,70.83C747.75,71.92 767.7,86.79 781.34,111.05C784.84,106.63 787.94,102.23 791.52,98.27C810.4,77.33 834.2,68.94 862,71.05C877.11,72.19 891.43,76.09 903.75,85.15C921.88,98.47 934.07,115.83 936.38,138.72C937.74,152.22 938.37,165.85 938.46,179.42C938.72,219.44 938.55,259.46 938.57,299.48C938.57,300.86 938.78,302.24 938.89,303.62L938.89,306.62Z" style="fill:white;fill-rule:nonzero;"/>
    <path d="M469.51,95.01L469.51,0L538.18,0L538.18,307.03L473.04,307.03L473.04,283.35L472.29,283.07C470.93,284.79 469.58,286.54 468.2,288.24C457.45,301.46 443.33,309.15 426.86,312.23C394.7,318.24 364.35,313.63 337.04,294.77C314.88,279.47 300.69,258.21 293.35,232.53C283.75,198.93 284.7,165.58 299.61,133.68C316.59,97.38 345.67,76.23 385.25,70.07C407.31,66.64 428.81,68.98 448.54,80.17C455.93,84.36 462.51,89.98 469.52,94.99L469.51,95.01ZM413.74,250.42C446.65,250.75 472.93,225.76 473.43,193.68C473.97,158.71 449.91,133.48 415.61,133.05C381.62,132.63 356.68,156.73 356.19,190.49C355.69,224.92 379.84,250.07 413.74,250.41L413.74,250.42Z" style="fill:white;fill-rule:nonzero;"/>
    <path d="M182.55,102.69L182.55,78.67L250.6,78.67L250.6,306.45L182.67,306.45L182.67,282.43C180.16,285.67 178.23,288.5 175.96,291.03C165,303.2 150.87,309.77 135.1,312.49C100.76,318.4 69.27,311.63 42.01,289.22C23.71,274.18 12.06,254.58 5.78,231.9C-2.89,200.59 -2.26,169.49 10.76,139.48C26.88,102.3 55.38,79.96 95.24,72.48C112.82,69.18 130.27,69.97 147.26,76.05C160.85,80.91 172.3,88.76 180.84,100.57C181.19,101.05 181.58,101.49 182.56,102.7L182.55,102.69ZM125.07,250.92C161.75,251.71 182.74,222.34 182.73,191.75C182.72,162.41 161.84,135.16 127.08,134.22C89.06,133.2 68.83,163.08 68.38,192.31C67.96,219.86 88.27,251.43 125.07,250.92Z" style="fill:white;fill-rule:nonzero;"/>
</svg>
