<svg xmlns="http://www.w3.org/2000/svg" viewBox="0 0 350 250"><defs><style>.cls-1{fill:#fff;}</style></defs><g id="Camada_3" data-name="Camada 3"><path class="cls-1" d="M112.19,171.59a1.47,1.47,0,0,1-.55,1.16,1.83,1.83,0,0,1-1.25.48,1.65,1.65,0,0,1-1.52-1l-1.29-2.88H99.3L98,172.2a1.68,1.68,0,0,1-.63.77,1.63,1.63,0,0,1-.89.26,1.92,1.92,0,0,1-1.27-.48,1.48,1.48,0,0,1-.56-1.16,1.8,1.8,0,0,1,.2-.78L101.45,157a2,2,0,0,1,.8-.9,2.32,2.32,0,0,1,1.15-.3,2.26,2.26,0,0,1,1.17.32,2.07,2.07,0,0,1,.83.88l6.6,13.84A1.92,1.92,0,0,1,112.19,171.59Zm-11.6-5.15h5.69l-2.83-6.35Z"/><path class="cls-1" d="M116.9,172.9a7.59,7.59,0,0,1-2.71-1.28,1.75,1.75,0,0,1-.52-.58,1.6,1.6,0,0,1-.16-.77,1.67,1.67,0,0,1,.38-1.07,1.09,1.09,0,0,1,.87-.46,1.53,1.53,0,0,1,.52.08,3.22,3.22,0,0,1,.62.31,8.05,8.05,0,0,0,2.13,1,8.72,8.72,0,0,0,2.37.31,4.63,4.63,0,0,0,2.46-.54,1.72,1.72,0,0,0,.86-1.54,1.39,1.39,0,0,0-.8-1.22,10.3,10.3,0,0,0-2.82-.88,15.59,15.59,0,0,1-3.62-1.12,4.65,4.65,0,0,1-2-1.64,4.27,4.27,0,0,1-.62-2.37,4.58,4.58,0,0,1,.89-2.77,5.92,5.92,0,0,1,2.46-1.93,8.8,8.8,0,0,1,3.56-.69,9,9,0,0,1,5.71,1.73,1.92,1.92,0,0,1,.53.6,1.65,1.65,0,0,1,.16.74,1.67,1.67,0,0,1-.38,1.08,1.11,1.11,0,0,1-.87.46,1.59,1.59,0,0,1-.5-.07,3.74,3.74,0,0,1-.65-.32A10.47,10.47,0,0,0,123,159a6.19,6.19,0,0,0-2.14-.32,4.18,4.18,0,0,0-2.34.57,1.82,1.82,0,0,0-.86,1.58,1.4,1.4,0,0,0,.33,1,2.74,2.74,0,0,0,1.1.68,19,19,0,0,0,2.19.61,12,12,0,0,1,4.77,1.88,3.78,3.78,0,0,1,1.45,3.15,4.64,4.64,0,0,1-.86,2.76,5.71,5.71,0,0,1-2.44,1.85,9.45,9.45,0,0,1-3.66.66A13.74,13.74,0,0,1,116.9,172.9Z"/><path class="cls-1" d="M133.05,172.9a7.56,7.56,0,0,1-2.72-1.28,1.75,1.75,0,0,1-.52-.58,1.6,1.6,0,0,1-.16-.77,1.67,1.67,0,0,1,.38-1.07,1.09,1.09,0,0,1,.87-.46,1.53,1.53,0,0,1,.52.08,3.22,3.22,0,0,1,.62.31,8.05,8.05,0,0,0,2.13,1,8.72,8.72,0,0,0,2.37.31,4.63,4.63,0,0,0,2.46-.54,1.72,1.72,0,0,0,.86-1.54,1.39,1.39,0,0,0-.8-1.22,10.3,10.3,0,0,0-2.82-.88,15.59,15.59,0,0,1-3.62-1.12,4.65,4.65,0,0,1-2-1.64,4.27,4.27,0,0,1-.62-2.37,4.58,4.58,0,0,1,.89-2.77,5.92,5.92,0,0,1,2.46-1.93,8.8,8.8,0,0,1,3.56-.69,9,9,0,0,1,5.71,1.73,1.92,1.92,0,0,1,.53.6,1.65,1.65,0,0,1,.16.74,1.67,1.67,0,0,1-.38,1.08,1.11,1.11,0,0,1-.87.46,1.59,1.59,0,0,1-.5-.07,3.74,3.74,0,0,1-.65-.32,10.47,10.47,0,0,0-1.84-.95,6.19,6.19,0,0,0-2.14-.32,4.18,4.18,0,0,0-2.34.57,1.82,1.82,0,0,0-.86,1.58,1.4,1.4,0,0,0,.33,1,2.74,2.74,0,0,0,1.1.68,19,19,0,0,0,2.19.61,12,12,0,0,1,4.77,1.88,3.78,3.78,0,0,1,1.45,3.15,4.64,4.64,0,0,1-.86,2.76,5.71,5.71,0,0,1-2.44,1.85,9.41,9.41,0,0,1-3.66.66A13.61,13.61,0,0,1,133.05,172.9Z"/><path class="cls-1" d="M150,172.26a7.33,7.33,0,0,1-2.92-3.07,11.12,11.12,0,0,1,0-9.35,7.28,7.28,0,0,1,2.92-3.07,9.81,9.81,0,0,1,8.91,0,7.34,7.34,0,0,1,2.92,3.07,11.22,11.22,0,0,1,0,9.35,7.39,7.39,0,0,1-2.92,3.07,9.65,9.65,0,0,1-8.91,0Zm7.84-3.38a8.39,8.39,0,0,0,0-8.73,4.15,4.15,0,0,0-3.4-1.5,4.1,4.1,0,0,0-3.38,1.5,8.45,8.45,0,0,0,0,8.73,4.52,4.52,0,0,0,6.76,0Z"/><path class="cls-1" d="M169.5,172.28a7.26,7.26,0,0,1-2.93-3.08,10.22,10.22,0,0,1-1-4.69,10.08,10.08,0,0,1,1-4.67,7.24,7.24,0,0,1,2.93-3.07,9.65,9.65,0,0,1,10,.68,2,2,0,0,1,.52.59,1.76,1.76,0,0,1,.14.73,1.74,1.74,0,0,1-.35,1.09,1.08,1.08,0,0,1-.87.45,2.13,2.13,0,0,1-.6-.08,2.33,2.33,0,0,1-.57-.31,7.86,7.86,0,0,0-1.81-.91,5.4,5.4,0,0,0-1.78-.29,4.29,4.29,0,0,0-3.53,1.46,6.74,6.74,0,0,0-1.18,4.33c0,3.88,1.57,5.81,4.71,5.81a5.11,5.11,0,0,0,1.71-.28,10.5,10.5,0,0,0,1.88-.91,3.5,3.5,0,0,1,.61-.31,1.61,1.61,0,0,1,.56-.08,1.08,1.08,0,0,1,.87.45,1.73,1.73,0,0,1,.35,1.08,1.54,1.54,0,0,1-.16.75,1.74,1.74,0,0,1-.5.57,9.63,9.63,0,0,1-10,.69Z"/><path class="cls-1" d="M183.35,172.76a1.84,1.84,0,0,1-.52-1.39v-13.7a1.8,1.8,0,0,1,.52-1.36,1.9,1.9,0,0,1,3.29,1.36v13.7a1.78,1.78,0,0,1-1.9,1.91A1.84,1.84,0,0,1,183.35,172.76Z"/><path class="cls-1" d="M206.54,171.59a1.47,1.47,0,0,1-.55,1.16,1.83,1.83,0,0,1-1.25.48,1.65,1.65,0,0,1-1.52-1l-1.29-2.88h-8.28l-1.29,2.88a1.68,1.68,0,0,1-.63.77,1.63,1.63,0,0,1-.89.26,1.92,1.92,0,0,1-1.27-.48,1.48,1.48,0,0,1-.56-1.16,2,2,0,0,1,.2-.78L195.8,157a2,2,0,0,1,.8-.9,2.35,2.35,0,0,1,1.15-.3,2.23,2.23,0,0,1,1.17.32,2.07,2.07,0,0,1,.83.88l6.6,13.84A1.92,1.92,0,0,1,206.54,171.59Zm-11.6-5.15h5.69l-2.83-6.35Z"/><path class="cls-1" d="M222.13,169.19a1.81,1.81,0,0,1,.2,1.83,1.87,1.87,0,0,1-.5.57,8.61,8.61,0,0,1-4.81,1.74l-.1.83a3.72,3.72,0,0,1,.54,0,1.86,1.86,0,0,1,1.28.46,1.55,1.55,0,0,1,.52,1.22,1.81,1.81,0,0,1-.85,1.55,4.21,4.21,0,0,1-2.44.6,5.49,5.49,0,0,1-1.74-.24.71.71,0,0,1-.48-.74.82.82,0,0,1,.22-.58.48.48,0,0,1,.53-.15,6.34,6.34,0,0,0,1.37.2c.75,0,1.12-.21,1.12-.64a.42.42,0,0,0-.15-.34.71.71,0,0,0-.43-.12,2.58,2.58,0,0,0-.56.07,2.57,2.57,0,0,1-.52.07.52.52,0,0,1-.38-.13.47.47,0,0,1-.1-.38l.21-1.68a8.05,8.05,0,0,1-3.8-1.39,7.44,7.44,0,0,1-2.48-3,10.27,10.27,0,0,1-.87-4.35,10,10,0,0,1,1-4.67,7.24,7.24,0,0,1,2.93-3.07,9.65,9.65,0,0,1,10,.68,2,2,0,0,1,.51.59,1.61,1.61,0,0,1,.15.73,1.68,1.68,0,0,1-.36,1.09,1,1,0,0,1-.86.45,2.13,2.13,0,0,1-.6-.08,2.57,2.57,0,0,1-.58-.31,8,8,0,0,0-1.8-.91,5.49,5.49,0,0,0-1.78-.29,4.28,4.28,0,0,0-3.53,1.46,6.73,6.73,0,0,0-1.19,4.33c0,3.88,1.57,5.81,4.72,5.81a5,5,0,0,0,1.7-.28,10.18,10.18,0,0,0,1.88-.91,3.54,3.54,0,0,1,.62-.31,1.61,1.61,0,0,1,.56-.08A1,1,0,0,1,222.13,169.19Z"/><path class="cls-1" d="M241.19,171.59a1.47,1.47,0,0,1-.55,1.16,1.83,1.83,0,0,1-1.25.48,1.65,1.65,0,0,1-1.52-1l-1.29-2.88H228.3L227,172.2a1.68,1.68,0,0,1-.63.77,1.63,1.63,0,0,1-.89.26,1.92,1.92,0,0,1-1.27-.48,1.48,1.48,0,0,1-.56-1.16,1.8,1.8,0,0,1,.2-.78L230.45,157a2,2,0,0,1,.8-.9,2.32,2.32,0,0,1,1.15-.3,2.26,2.26,0,0,1,1.17.32,2.07,2.07,0,0,1,.83.88l6.6,13.84A1.92,1.92,0,0,1,241.19,171.59Zm-8.14-17.7-.72-.2a6,6,0,0,0-1.74-.36.81.81,0,0,0-.43.1,1.51,1.51,0,0,0-.37.29,2.93,2.93,0,0,1-.38.32.89.89,0,0,1-.43.09.7.7,0,0,1-.55-.23.92.92,0,0,1-.2-.62,2.16,2.16,0,0,1,.3-1.05,2.55,2.55,0,0,1,.84-.89,2.12,2.12,0,0,1,1.2-.36,4.61,4.61,0,0,1,1.18.17l.72.2a6.16,6.16,0,0,0,1.74.37.88.88,0,0,0,.43-.1,3.23,3.23,0,0,0,.37-.29,2.21,2.21,0,0,1,.37-.3.92.92,0,0,1,.44-.1.74.74,0,0,1,.56.22.91.91,0,0,1,.2.62,2,2,0,0,1-.31,1,2.58,2.58,0,0,1-.84.9,2.19,2.19,0,0,1-1.2.35A4.61,4.61,0,0,1,233.05,153.89Zm-3.46,12.55h5.69l-2.83-6.35Z"/><path class="cls-1" d="M246.5,172.26a7.31,7.31,0,0,1-2.91-3.07,11.12,11.12,0,0,1,0-9.35,7.25,7.25,0,0,1,2.91-3.07,9.83,9.83,0,0,1,8.92,0,7.25,7.25,0,0,1,2.91,3.07,11.12,11.12,0,0,1,0,9.35,7.31,7.31,0,0,1-2.91,3.07,9.67,9.67,0,0,1-8.92,0Zm7.84-3.38a8.39,8.39,0,0,0,0-8.73,4.57,4.57,0,0,0-6.77,0,8.45,8.45,0,0,0,0,8.73,4.51,4.51,0,0,0,6.75,0Z"/><path class="cls-1" d="M96.65,201.8a.93.93,0,0,1-.28-.71V185.83a.93.93,0,0,1,.28-.71,1,1,0,0,1,.74-.27h4.77a8.67,8.67,0,0,1,6.38,2.24,10.08,10.08,0,0,1,0,12.73,8.66,8.66,0,0,1-6.37,2.25H97.39A1,1,0,0,1,96.65,201.8Zm12.07-8.35q0-6.88-6.69-6.89H98.37v13.8H102Q108.72,200.36,108.72,193.45Z"/><path class="cls-1" d="M114.94,201.8a.93.93,0,0,1-.28-.71V185.83a.93.93,0,0,1,.28-.71,1,1,0,0,1,.74-.27h9.14a1,1,0,0,1,.68.22.79.79,0,0,1,.24.61.78.78,0,0,1-.24.61,1,1,0,0,1-.68.22h-8.18v6h7.69a1,1,0,0,1,.68.22.78.78,0,0,1,.25.61.8.8,0,0,1-.25.61,1,1,0,0,1-.68.22h-7.69v6.25h8.18a1,1,0,0,1,.68.21.76.76,0,0,1,.24.62.79.79,0,0,1-.24.61,1,1,0,0,1-.68.22h-9.14A1,1,0,0,1,114.94,201.8Z"/><path class="cls-1" d="M135.94,201.8a.93.93,0,0,1-.28-.71V185.83a.93.93,0,0,1,.28-.71,1,1,0,0,1,.74-.27h4.76a8.7,8.7,0,0,1,6.39,2.24,10.08,10.08,0,0,1,0,12.73,8.68,8.68,0,0,1-6.38,2.25h-4.76A1,1,0,0,1,135.94,201.8ZM148,193.45q0-6.88-6.69-6.89h-3.66v13.8h3.66Q148,200.36,148,193.45Z"/><path class="cls-1" d="M154.23,201.8a.93.93,0,0,1-.28-.71V185.83a.93.93,0,0,1,.28-.71,1,1,0,0,1,.74-.27h9.13a1,1,0,0,1,.69.22.79.79,0,0,1,.24.61.78.78,0,0,1-.24.61,1,1,0,0,1-.69.22h-8.18v6h7.7a1,1,0,0,1,.68.22.78.78,0,0,1,.24.61.79.79,0,0,1-.24.61,1,1,0,0,1-.68.22h-7.7v6.25h8.18a1,1,0,0,1,.69.21.76.76,0,0,1,.24.62.79.79,0,0,1-.24.61,1,1,0,0,1-.69.22H155A1,1,0,0,1,154.23,201.8Z"/><path class="cls-1" d="M170.15,201.71a7.06,7.06,0,0,1-2.68-1.47,1.15,1.15,0,0,1-.36-.86,1,1,0,0,1,.19-.6.58.58,0,0,1,.47-.25,1.16,1.16,0,0,1,.68.27,8.25,8.25,0,0,0,5.18,1.75,5.45,5.45,0,0,0,3.22-.8,2.65,2.65,0,0,0,1.12-2.3,1.87,1.87,0,0,0-.53-1.38,3.85,3.85,0,0,0-1.42-.84,21.92,21.92,0,0,0-2.37-.66,23.45,23.45,0,0,1-3.28-1,5.14,5.14,0,0,1-2.08-1.47,3.74,3.74,0,0,1-.79-2.49,4.42,4.42,0,0,1,.79-2.6,5.17,5.17,0,0,1,2.22-1.76,8.2,8.2,0,0,1,3.26-.62,9.45,9.45,0,0,1,3.19.52,6.59,6.59,0,0,1,2.48,1.51,1.18,1.18,0,0,1,.39.85,1,1,0,0,1-.2.6.56.56,0,0,1-.46.25,1.47,1.47,0,0,1-.71-.26,8.42,8.42,0,0,0-2.22-1.37,7,7,0,0,0-2.47-.39,5.17,5.17,0,0,0-3.15.84,2.8,2.8,0,0,0-1.12,2.36,2.16,2.16,0,0,0,1,1.94,9.86,9.86,0,0,0,3,1.13c1.48.36,2.65.69,3.49,1a5.21,5.21,0,0,1,2.11,1.36,3.36,3.36,0,0,1,.85,2.41,4.2,4.2,0,0,1-.8,2.54,5,5,0,0,1-2.23,1.71,8.34,8.34,0,0,1-3.3.61A11,11,0,0,1,170.15,201.71Z"/><path class="cls-1" d="M183.74,201.91a1,1,0,0,1-.27-.74V185.76a1,1,0,0,1,.27-.75,1.09,1.09,0,0,1,1.46,0,1,1,0,0,1,.27.75v15.41a1,1,0,0,1-.27.74,1.09,1.09,0,0,1-1.46,0Z"/><path class="cls-1" d="M203.36,193.33a.81.81,0,0,1,.23.61V200a1.73,1.73,0,0,1-.18.88,1.28,1.28,0,0,1-.68.46,10.62,10.62,0,0,1-2.36.66,16.43,16.43,0,0,1-2.79.24,8.84,8.84,0,0,1-4.42-1,7,7,0,0,1-2.84-3,10.5,10.5,0,0,1-1-4.74,10.36,10.36,0,0,1,1-4.69,7,7,0,0,1,2.8-3,8.41,8.41,0,0,1,4.3-1.06,9.39,9.39,0,0,1,3.18.52,6.67,6.67,0,0,1,2.46,1.51,1.19,1.19,0,0,1,.42.85,1,1,0,0,1-.2.6.58.58,0,0,1-.49.25,1.17,1.17,0,0,1-.68-.29,9,9,0,0,0-2.3-1.35,6.6,6.6,0,0,0-2.36-.38A5.52,5.52,0,0,0,193,188.2a9.72,9.72,0,0,0,0,10.56,5.81,5.81,0,0,0,4.63,1.82,12,12,0,0,0,4.13-.68v-5.23h-3.57a1,1,0,0,1-.66-.22.8.8,0,0,1,0-1.14,1.06,1.06,0,0,1,.66-.2h4.57A.84.84,0,0,1,203.36,193.33Z"/><path class="cls-1" d="M221.44,185a1.13,1.13,0,0,1,.24.75v15.41a1.07,1.07,0,0,1-.25.74.93.93,0,0,1-.72.28,1,1,0,0,1-.81-.41l-10.13-13.56v12.95a1.08,1.08,0,0,1-.26.74.88.88,0,0,1-.7.28.84.84,0,0,1-.68-.28,1.12,1.12,0,0,1-.24-.74V185.76a1.08,1.08,0,0,1,.25-.75,1,1,0,0,1,.72-.28,1,1,0,0,1,.83.42L219.8,198.7V185.76a1.09,1.09,0,0,1,.26-.75.91.91,0,0,1,.69-.28A.88.88,0,0,1,221.44,185Z"/><path class="cls-1" d="M226.46,201.8a.93.93,0,0,1-.28-.71V185.83a.93.93,0,0,1,.28-.71,1,1,0,0,1,.74-.27h9.13a1,1,0,0,1,.69.22.79.79,0,0,1,.24.61.78.78,0,0,1-.24.61,1,1,0,0,1-.69.22h-8.18v6h7.7a1,1,0,0,1,.68.22.78.78,0,0,1,.24.61.79.79,0,0,1-.24.61,1,1,0,0,1-.68.22h-7.7v6.25h8.18a1,1,0,0,1,.69.21.76.76,0,0,1,.24.62.79.79,0,0,1-.24.61,1,1,0,0,1-.69.22H227.2A1,1,0,0,1,226.46,201.8Z"/><path class="cls-1" d="M253.94,201.38a.75.75,0,0,1-.28.6,1,1,0,0,1-.65.24,1,1,0,0,1-.88-.49l-3.27-5.18a3.19,3.19,0,0,0-3.17-1.76h-3.08v6.38a1,1,0,0,1-.27.74.93.93,0,0,1-.71.28,1,1,0,0,1-.73-.28,1,1,0,0,1-.27-.74V185.83a.93.93,0,0,1,.28-.71,1,1,0,0,1,.75-.27h6.05A6.51,6.51,0,0,1,252,186.1a4.53,4.53,0,0,1,1.47,3.66,4.59,4.59,0,0,1-1.18,3.3,5.41,5.41,0,0,1-3.38,1.51,2.92,2.92,0,0,1,1.1.64,5.64,5.64,0,0,1,1,1.22l2.79,4.39A1.07,1.07,0,0,1,253.94,201.38Zm-6.4-8.25a4.52,4.52,0,0,0,3-.83,3.09,3.09,0,0,0,1-2.51,3,3,0,0,0-1-2.47,4.63,4.63,0,0,0-3-.81h-4.93v6.62Z"/><path class="cls-1" d="M259.59,201.71a7,7,0,0,1-2.67-1.47,1.12,1.12,0,0,1-.37-.86,1,1,0,0,1,.2-.6.56.56,0,0,1,.46-.25,1.16,1.16,0,0,1,.68.27,8.25,8.25,0,0,0,5.18,1.75,5.43,5.43,0,0,0,3.22-.8,2.66,2.66,0,0,0,1.13-2.3,1.84,1.84,0,0,0-.54-1.38,3.85,3.85,0,0,0-1.42-.84,21.65,21.65,0,0,0-2.36-.66,23.64,23.64,0,0,1-3.29-1,5.1,5.1,0,0,1-2.07-1.47,3.74,3.74,0,0,1-.8-2.49,4.42,4.42,0,0,1,.8-2.6,5.11,5.11,0,0,1,2.22-1.76,8.17,8.17,0,0,1,3.26-.62,9.39,9.39,0,0,1,3.18.52,6.59,6.59,0,0,1,2.48,1.51,1.18,1.18,0,0,1,.39.85,1,1,0,0,1-.19.6.58.58,0,0,1-.47.25,1.41,1.41,0,0,1-.7-.26,8.3,8.3,0,0,0-2.23-1.37,6.9,6.9,0,0,0-2.46-.39,5.17,5.17,0,0,0-3.15.84,2.78,2.78,0,0,0-1.13,2.36,2.16,2.16,0,0,0,1,1.94,10,10,0,0,0,3,1.13c1.48.36,2.65.69,3.5,1a5.27,5.27,0,0,1,2.11,1.36,3.4,3.4,0,0,1,.84,2.41,4.19,4.19,0,0,1-.79,2.54,5.08,5.08,0,0,1-2.24,1.71,8.32,8.32,0,0,1-3.29.61A11.07,11.07,0,0,1,259.59,201.71Z"/><path class="cls-1" d="M96.65,230.74a.93.93,0,0,1-.28-.71V214.77a.93.93,0,0,1,.28-.71,1,1,0,0,1,.74-.27h4.77a8.67,8.67,0,0,1,6.38,2.24,10.08,10.08,0,0,1,0,12.73,8.66,8.66,0,0,1-6.37,2.25H97.39A1,1,0,0,1,96.65,230.74Zm12.07-8.35q0-6.88-6.69-6.89H98.37v13.8H102Q108.72,229.3,108.72,222.39Z"/><path class="cls-1" d="M117.7,230.13a7.08,7.08,0,0,1-2.72-3,10.61,10.61,0,0,1-1-4.67,11,11,0,0,1,.94-4.7,6.89,6.89,0,0,1,2.71-3.05,8.81,8.81,0,0,1,8.38,0,6.89,6.89,0,0,1,2.71,3.05,12,12,0,0,1,0,9.35,7.08,7.08,0,0,1-2.72,3.07,8.64,8.64,0,0,1-8.33,0Zm8.42-2.48a9.84,9.84,0,0,0,0-10.51,5.89,5.89,0,0,0-8.54,0,9.76,9.76,0,0,0,0,10.49,5.84,5.84,0,0,0,8.52,0Z"/><path class="cls-1" d="M142.09,230.65a7.23,7.23,0,0,1-2.67-1.47,1.12,1.12,0,0,1-.37-.86,1,1,0,0,1,.2-.6.56.56,0,0,1,.46-.25,1.27,1.27,0,0,1,.69.26,8.15,8.15,0,0,0,5.17,1.76,5.5,5.5,0,0,0,3.22-.8,2.67,2.67,0,0,0,1.13-2.3,1.84,1.84,0,0,0-.54-1.38,3.85,3.85,0,0,0-1.42-.84,21.65,21.65,0,0,0-2.36-.66,22.22,22.22,0,0,1-3.29-1,5.15,5.15,0,0,1-2.07-1.46,3.78,3.78,0,0,1-.8-2.49,4.4,4.4,0,0,1,.8-2.6,5.1,5.1,0,0,1,2.22-1.76,8,8,0,0,1,3.26-.62,9.39,9.39,0,0,1,3.18.52,6.62,6.62,0,0,1,2.48,1.5,1.2,1.2,0,0,1,.39.86,1,1,0,0,1-.19.6.58.58,0,0,1-.47.25,1.48,1.48,0,0,1-.7-.27,8.24,8.24,0,0,0-2.23-1.36,6.9,6.9,0,0,0-2.46-.39,5.17,5.17,0,0,0-3.15.84,2.77,2.77,0,0,0-1.12,2.35,2.17,2.17,0,0,0,1,1.95,10,10,0,0,0,3,1.13c1.49.36,2.65.69,3.5,1a5.17,5.17,0,0,1,2.11,1.36,3.38,3.38,0,0,1,.84,2.41,4.21,4.21,0,0,1-.79,2.54,5.23,5.23,0,0,1-2.24,1.71,8.32,8.32,0,0,1-3.29.61A11.11,11.11,0,0,1,142.09,230.65Z"/><path class="cls-1" d="M157,229.44a7.08,7.08,0,0,1-1.73-5.17V214.7a1,1,0,0,1,.27-.75,1,1,0,0,1,.73-.28.93.93,0,0,1,.71.28,1,1,0,0,1,.27.75v9.74a5.23,5.23,0,0,0,1.23,3.78,4.82,4.82,0,0,0,3.63,1.27,4.77,4.77,0,0,0,3.61-1.27,5.27,5.27,0,0,0,1.22-3.78V214.7a1.05,1.05,0,0,1,.28-.75,1.09,1.09,0,0,1,1.46,0,1.09,1.09,0,0,1,.26.75v9.57a7.06,7.06,0,0,1-1.74,5.16,8.25,8.25,0,0,1-10.2,0Z"/><path class="cls-1" d="M173.62,230.75a.86.86,0,0,1-.29-.67V214.7a1,1,0,0,1,.27-.75,1,1,0,0,1,.74-.28,1,1,0,0,1,.73.28,1,1,0,0,1,.27.75v14.6h7.88a1,1,0,0,1,.69.22.81.81,0,0,1,.24.63.83.83,0,0,1-.24.64,1,1,0,0,1-.69.22h-8.91A1,1,0,0,1,173.62,230.75Z"/><path class="cls-1" d="M57.34,18.8h-.19A52.15,52.15,0,1,0,94.84,107v8.89a7.23,7.23,0,1,0,14.45,0V70.94A52.14,52.14,0,0,0,57.34,18.8Zm-.19,89.68A37.54,37.54,0,1,1,94.68,70.94,37.53,37.53,0,0,1,57.15,108.48Z"/><path class="cls-1" d="M227.57,71.1V26.18a7.23,7.23,0,0,0-14.45,0v8.89a52.15,52.15,0,1,0-37.7,88.18h.2A52.15,52.15,0,0,0,227.57,71.1ZM213,71.1a37.54,37.54,0,1,1-37.54-37.54A37.54,37.54,0,0,1,213,71.1Z"/><path class="cls-1" d="M293,123.15a51.76,51.76,0,0,1-36.16-14.63,7,7,0,1,1,9.8-10.13,37.92,37.92,0,0,0,63.62-20.21H248.48a7.05,7.05,0,0,1-7-7.05,52,52,0,0,1,88.19-37.39,7.05,7.05,0,1,1-9.81,10.13,37.92,37.92,0,0,0-63.62,20.21H338a7.05,7.05,0,0,1,7.05,7A52.08,52.08,0,0,1,293,123.15Z"/></g></svg>