<svg width="1532" height="505" viewBox="0 0 1532 505" fill="none" xmlns="http://www.w3.org/2000/svg">
<path d="M68.6047 55.9902C33.0917 55.9902 8.34018 73.9392 4.84269 102.336H38.7415C40.6247 90.2809 50.5792 79.565 68.6047 79.565C88.7826 79.565 98.4679 93.2277 98.4679 110.105V110.641V112.516L59.9955 116.535C32.5536 119.214 0 126.447 0 159.934C0 187.259 22.0611 206.815 49.503 206.815C77.2139 206.815 89.5897 193.957 98.737 174.936V203.601H132.098V111.98V111.445C132.098 81.9761 113.265 55.9902 68.6047 55.9902ZM62.4168 185.652C47.0817 185.652 34.1678 176.275 34.1678 159.934C34.1678 141.181 54.0767 138.502 72.3712 136.359L98.4679 133.68V142.253C98.4679 166.363 86.3612 185.652 62.4168 185.652Z" fill="white"/>
<path d="M271.63 92.424C265.173 73.4035 248.223 55.9902 221.858 55.9902C186.614 55.9902 161.055 85.1908 161.055 129.126C161.055 173.329 186.345 202.529 221.858 202.529C243.919 202.529 263.559 189.134 271.63 169.578V203.333C271.63 225.3 256.025 235.748 236.386 235.748C219.167 235.748 204.908 227.444 201.949 211.37H168.05C171.817 243.517 201.68 259.323 236.386 259.323C270.015 259.323 304.99 243.517 304.99 202.529V59.205H271.63V92.424ZM233.964 178.954C209.213 178.954 195.492 160.47 195.492 129.126C195.492 98.0498 209.213 79.565 233.964 79.565C258.985 79.565 272.975 98.0498 272.975 129.126C272.975 160.47 258.985 178.954 233.964 178.954Z" fill="white"/>
<path d="M476.492 130.465C476.492 85.4588 448.512 55.9902 405.735 55.9902C362.15 55.9902 334.44 87.0661 334.44 131.269C334.44 175.204 361.343 206.815 405.735 206.815C439.633 206.815 464.116 191.813 473.263 161.005H439.095C433.984 174.936 424.567 183.241 406.004 183.241C385.557 183.241 371.298 169.042 368.607 141.181H475.684C476.223 137.431 476.492 133.68 476.492 130.465ZM405.735 79.565C426.451 79.565 440.441 94.8351 442.055 117.874H368.876C372.374 91.8882 386.095 79.565 405.735 79.565Z" fill="white"/>
<path d="M585.566 55.9902C560.545 55.9902 546.286 70.9924 539.56 88.6735V59.205H506.199V203.601H539.829V119.749C539.829 92.1561 551.667 79.8329 570.499 79.8329C589.601 79.8329 601.17 91.8883 601.17 119.214V119.749V203.601H634.799V113.32V112.784C634.799 80.6366 618.926 55.9902 585.566 55.9902Z" fill="white"/>
<path d="M774.224 93.2277C767.767 73.9392 750.818 55.9902 724.452 55.9902C689.208 55.9902 663.65 87.334 663.65 131.269C663.65 175.204 688.939 206.815 724.452 206.815C746.513 206.815 765.884 192.617 774.224 172.793V203.601H807.585V0H774.224V93.2277ZM736.559 183.241C711.538 183.241 697.818 163.148 697.818 131.269C697.818 99.6572 711.538 79.565 736.559 79.565C761.58 79.565 775.3 99.6572 775.3 131.269C775.3 163.148 761.58 183.241 736.559 183.241Z" fill="white"/>
<path d="M906.984 55.9902C871.471 55.9902 846.719 73.9392 843.222 102.336H877.121C879.004 90.2809 888.959 79.565 906.984 79.565C927.162 79.565 936.847 93.2277 936.847 110.105V110.641V112.516L898.375 116.535C870.933 119.214 838.379 126.447 838.379 159.934C838.379 187.259 860.44 206.815 887.882 206.815C915.593 206.815 927.969 193.957 937.116 174.936V203.601H970.477V111.98V111.445C970.477 81.9761 951.644 55.9902 906.984 55.9902ZM900.796 185.652C885.461 185.652 872.547 176.275 872.547 159.934C872.547 141.181 892.456 138.502 910.75 136.359L936.847 133.68V142.253C936.847 166.363 924.741 185.652 900.796 185.652Z" fill="white"/>
<path d="M774.408 336.655C767.953 317.188 751.009 299.073 724.651 299.073C689.417 299.073 663.865 330.707 663.865 375.047C663.865 419.387 689.148 451.291 724.651 451.291C746.705 451.291 766.071 436.961 774.408 416.954V448.047H807.76V242.566H774.408V336.655ZM736.754 427.499C711.74 427.499 698.023 407.221 698.023 375.047C698.023 343.144 711.74 322.866 736.754 322.866C761.767 322.866 775.484 343.144 775.484 375.047C775.484 407.221 761.767 427.499 736.754 427.499Z" fill="white"/>
<path d="M979.75 374.236C979.75 328.814 951.778 299.073 909.013 299.073C865.441 299.073 837.738 330.436 837.738 375.047C837.738 419.387 864.634 451.291 909.013 451.291C942.902 451.291 967.378 436.15 976.522 405.058H942.364C937.254 419.117 927.84 427.499 909.282 427.499C888.841 427.499 874.586 413.169 871.896 385.051H978.943C979.481 381.266 979.75 377.48 979.75 374.236ZM909.013 322.866C929.723 322.866 943.709 338.277 945.323 361.529H872.165C875.662 335.303 889.379 322.866 909.013 322.866Z" fill="white"/>
<path d="M1063.78 451.291C1100.9 451.291 1128.06 434.528 1128.06 405.599C1128.06 382.347 1114.88 368.829 1084.49 362.34L1061.63 357.473C1044.15 353.688 1035.27 350.173 1035.27 340.17C1035.27 329.084 1048.45 322.866 1062.97 322.866C1075.88 322.866 1087.72 328.814 1091.48 339.629H1125.37C1119.19 312.592 1093.37 299.073 1062.7 299.073C1029.62 299.073 1002.73 316.107 1002.73 342.873C1002.73 365.043 1018.86 377.21 1045.22 382.888L1068.08 388.025C1089.06 392.351 1095.79 397.758 1095.79 408.843C1095.79 420.199 1085.03 427.499 1064.59 427.499C1050.87 427.499 1036.88 422.362 1033.39 404.788H999.498C1003.8 435.61 1029.89 451.291 1063.78 451.291Z" fill="white"/>
<path d="M1191.75 279.877V242.566H1156.52V279.877H1191.75ZM1190.95 448.047V302.318H1157.33V448.047H1190.95Z" fill="white"/>
<path d="M1332.31 335.844C1325.85 316.647 1308.91 299.073 1282.55 299.073C1247.31 299.073 1221.76 328.544 1221.76 372.884C1221.76 417.495 1247.05 446.965 1282.55 446.965C1304.6 446.965 1324.24 433.447 1332.31 413.71V447.776C1332.31 469.946 1316.71 480.491 1297.07 480.491C1279.86 480.491 1265.6 472.109 1262.64 455.887H1228.76C1232.52 488.332 1262.38 504.283 1297.07 504.283C1330.69 504.283 1365.66 488.331 1365.66 446.965V302.318H1332.31V335.844ZM1294.65 423.173C1269.91 423.173 1256.19 404.517 1256.19 372.884C1256.19 341.521 1269.91 322.866 1294.65 322.866C1319.66 322.866 1333.65 341.521 1333.65 372.884C1333.65 404.517 1319.66 423.173 1294.65 423.173Z" fill="white"/>
<path d="M1482.78 299.073C1457.77 299.073 1443.51 314.214 1436.79 332.058V302.318H1403.44V448.047H1437.06V363.421C1437.06 335.573 1448.89 323.136 1467.72 323.136C1486.81 323.136 1498.38 335.303 1498.38 362.88V363.421V448.047H1532V356.932V356.392C1532 323.947 1516.13 299.073 1482.78 299.073Z" fill="white"/>
<path d="M505.48 461.195C479.3 461.195 458.177 453.429 442.112 437.896C426.641 421.766 418.906 400.856 418.906 375.167C418.906 347.686 426.641 326.179 442.112 310.647C457.582 294.516 478.407 286.451 504.588 286.451C530.173 286.451 550.999 294.516 567.064 310.647C583.724 326.777 592.054 347.686 592.054 373.375C592.054 400.259 584.022 421.766 567.956 437.896C551.891 453.429 531.066 461.195 505.48 461.195Z" fill="white"/>
</svg>
