<?xml version="1.0" encoding="UTF-8" standalone="no"?>
<!DOCTYPE svg PUBLIC "-//W3C//DTD SVG 1.1//EN" "http://www.w3.org/Graphics/SVG/1.1/DTD/svg11.dtd">
<svg width="100%" height="100%" viewBox="0 0 228 89" version="1.1" xmlns="http://www.w3.org/2000/svg" xmlns:xlink="http://www.w3.org/1999/xlink" xml:space="preserve" xmlns:serif="http://www.serif.com/" style="fill-rule:evenodd;clip-rule:evenodd;stroke-linejoin:round;stroke-miterlimit:2;">
    <g>
        <g>
            <path d="M22.93,53.18C33.19,53.18 40.62,45.11 40.62,34.77C40.62,24.52 33.18,16.45 22.93,16.45L14.23,16.45L14.23,53.19L22.93,53.19L22.93,53.18ZM0.08,4.84C0.08,3.94 0.81,3.12 1.71,3.12L23.84,3.12C41.34,3.12 55.68,17.36 55.68,34.77C55.68,52.36 41.35,66.6 23.84,66.6L1.71,66.6C0.81,66.6 0.08,65.79 0.08,64.88L0.08,4.84Z" style="fill:white;fill-rule:nonzero;"/>
        </g>
        <g>
            <g>
                <path d="M171.48,12.96C171.48,8.39 175.15,4.72 179.72,4.72C182.03,4.72 183.69,5.45 185.24,6.85C185.45,7.03 185.45,7.31 185.26,7.49L183.87,8.93C183.71,9.11 183.48,9.11 183.3,8.93C182.34,8.08 181.06,7.58 179.79,7.58C176.87,7.58 174.7,10.02 174.7,12.9C174.7,15.75 176.89,18.17 179.81,18.17C181.18,18.17 182.34,17.65 183.3,16.87C183.48,16.71 183.73,16.73 183.87,16.87L185.28,18.33C185.46,18.49 185.42,18.79 185.26,18.95C183.71,20.46 181.77,21.14 179.76,21.16L179.76,22.12C181.15,22.3 181.97,23.19 181.97,24.47C181.97,25.79 180.9,26.87 179.55,26.87C178.87,26.87 178.21,26.53 177.82,26.07C177.64,25.86 177.68,25.61 177.89,25.43L178.35,25.04C178.48,24.9 178.71,24.92 178.83,25.06C179.01,25.27 179.31,25.33 179.51,25.33C179.97,25.33 180.31,24.94 180.31,24.49C180.31,23.94 179.83,23.46 178.64,23.37C178.3,23.32 178.25,23.07 178.25,22.96L178.25,21.02C174.4,20.36 171.48,17.02 171.48,12.96" style="fill:white;fill-rule:nonzero;"/>
                <path d="M196.38,15.47L194.1,10.45L194.03,10.45L191.79,15.47L196.38,15.47ZM190.67,2.44C190.51,2.33 190.46,2.07 190.53,1.91C190.76,1.5 191.51,0 192.9,0C194.09,0 194.47,1.25 195.34,1.25C196.14,1.25 196.16,-0.16 196.82,0.31L197.46,0.77C197.67,0.93 197.64,1.2 197.48,1.48C197.23,1.91 196.56,3.22 195.27,3.22C194.08,3.22 193.53,1.94 192.78,1.94C191.96,1.94 192,3.35 191.32,2.92L190.67,2.44ZM186.52,20.33L193.62,4.97C193.69,4.83 193.8,4.72 194.01,4.72L194.24,4.72C194.47,4.72 194.56,4.83 194.63,4.97L201.66,20.33C201.8,20.63 201.61,20.92 201.27,20.92L199.28,20.92C198.94,20.92 198.78,20.78 198.62,20.46L197.5,18L190.68,18L189.56,20.46C189.47,20.69 189.26,20.92 188.9,20.92L186.92,20.92C186.57,20.93 186.38,20.63 186.52,20.33" style="fill:white;fill-rule:nonzero;"/>
                <path d="M210.99,18.19C213.86,18.19 216.24,15.84 216.24,12.97C216.24,10.09 213.87,7.7 210.99,7.7C208.12,7.7 205.76,10.1 205.76,12.97C205.76,15.84 208.12,18.19 210.99,18.19M210.99,4.72C215.55,4.72 219.2,8.39 219.2,12.96C219.2,17.52 215.55,21.15 210.99,21.15C206.43,21.15 202.8,17.52 202.8,12.96C202.8,8.4 206.43,4.72 210.99,4.72" style="fill:white;fill-rule:nonzero;"/>
                <path d="M175.5,37.9L173.22,32.88L173.15,32.88L170.91,37.9L175.5,37.9ZM165.64,42.76L172.74,27.4C172.81,27.26 172.92,27.15 173.13,27.15L173.36,27.15C173.59,27.15 173.68,27.26 173.75,27.4L180.78,42.76C180.92,43.06 180.73,43.35 180.39,43.35L178.41,43.35C178.07,43.35 177.9,43.21 177.75,42.89L176.63,40.42L169.8,40.42L168.68,42.89C168.59,43.12 168.39,43.35 168.02,43.35L166.04,43.35C165.68,43.35 165.5,43.05 165.64,42.76" style="fill:white;fill-rule:nonzero;"/>
                <path d="M183.17,27.81C183.17,27.58 183.35,27.38 183.61,27.38L185.71,27.38C185.94,27.38 186.15,27.59 186.15,27.81L186.15,40.61L191.97,40.61C192.22,40.61 192.4,40.81 192.4,41.04L192.4,42.91C192.4,43.14 192.22,43.34 191.97,43.34L183.62,43.34C183.37,43.34 183.18,43.14 183.18,42.91L183.18,27.81L183.17,27.81Z" style="fill:white;fill-rule:nonzero;"/>
                <path d="M205.92,40.57C208.89,40.57 211.06,38.33 211.06,35.34C211.06,32.37 208.89,30.14 205.92,30.14L203.32,30.14L203.32,40.57L205.92,40.57ZM200.38,27.81C200.38,27.58 200.56,27.38 200.79,27.38L206.2,27.38C210.6,27.38 214.21,30.96 214.21,35.35C214.21,39.78 210.6,43.36 206.2,43.36L200.79,43.36C200.56,43.36 200.38,43.16 200.38,42.93L200.38,27.81Z" style="fill:white;fill-rule:nonzero;"/>
                <path d="M217.54,27.81C217.54,27.58 217.72,27.38 217.98,27.38L227.27,27.38C227.52,27.38 227.7,27.59 227.7,27.81L227.7,29.68C227.7,29.91 227.52,30.11 227.27,30.11L220.51,30.11L220.51,33.85L226.15,33.85C226.38,33.85 226.59,34.05 226.59,34.28L226.59,36.17C226.59,36.42 226.38,36.61 226.15,36.61L220.51,36.61L220.51,40.6L227.27,40.6C227.52,40.6 227.7,40.8 227.7,41.03L227.7,42.9C227.7,43.13 227.52,43.33 227.27,43.33L217.98,43.33C217.73,43.33 217.54,43.13 217.54,42.9L217.54,27.81Z" style="fill:white;fill-rule:nonzero;"/>
                <path d="M91.63,50.24C91.63,50.01 91.81,49.81 92.06,49.81L101.35,49.81C101.6,49.81 101.78,50.02 101.78,50.24L101.78,52.11C101.78,52.34 101.6,52.54 101.35,52.54L94.6,52.54L94.6,56.28L100.24,56.28C100.47,56.28 100.68,56.49 100.68,56.72L100.68,58.61C100.68,58.86 100.47,59.04 100.24,59.04L94.6,59.04L94.6,63.03L101.36,63.03C101.61,63.03 101.79,63.23 101.79,63.47L101.79,65.34C101.79,65.57 101.61,65.77 101.36,65.77L92.07,65.77C91.82,65.77 91.64,65.56 91.64,65.34L91.64,50.24L91.63,50.24Z" style="fill:white;fill-rule:nonzero;"/>
                <path d="M118.07,50.24C118.07,50.01 118.28,49.81 118.5,49.81L120.62,49.81C120.85,49.81 121.06,50.02 121.06,50.24L121.06,65.35C121.06,65.58 120.85,65.78 120.62,65.78L118.5,65.78C118.27,65.78 118.07,65.57 118.07,65.35L118.07,50.24Z" style="fill:white;fill-rule:nonzero;"/>
                <path d="M142.1,49.99C142.1,49.76 142.31,49.58 142.54,49.58L143.11,49.58L152.6,59.67L152.62,59.67L152.62,50.25C152.62,50.02 152.8,49.82 153.05,49.82L155.15,49.82C155.38,49.82 155.58,50.02 155.58,50.25L155.58,65.61C155.58,65.84 155.37,66.02 155.15,66.02L154.6,66.02L145.06,55.55L145.04,55.55L145.04,65.36C145.04,65.59 144.86,65.79 144.61,65.79L142.53,65.79C142.3,65.79 142.09,65.58 142.09,65.36L142.09,49.99L142.1,49.99Z" style="fill:white;fill-rule:nonzero;"/>
                <path d="M180.52,57.08C181.73,57.08 182.78,56.03 182.78,54.75C182.78,53.54 181.73,52.54 180.52,52.54L176.8,52.54L176.8,57.08L180.52,57.08ZM173.81,50.24C173.81,50.01 173.99,49.81 174.24,49.81L180.77,49.81C183.51,49.81 185.74,52 185.74,54.72C185.74,56.82 184.35,58.53 182.36,59.33L185.49,65.13C185.65,65.43 185.49,65.79 185.1,65.79L182.71,65.79C182.5,65.79 182.39,65.68 182.34,65.58L179.31,59.53L176.78,59.53L176.78,65.35C176.78,65.58 176.57,65.78 176.35,65.78L174.25,65.78C174,65.78 173.82,65.57 173.82,65.35L173.82,50.24L173.81,50.24Z" style="fill:white;fill-rule:nonzero;"/>
                <path d="M188.39,63.54L189.21,62.12C189.39,61.8 189.78,61.8 189.99,61.96C190.1,62.03 191.96,63.38 193.44,63.38C194.63,63.38 195.52,62.6 195.52,61.62C195.52,60.46 194.54,59.66 192.62,58.88C190.48,58.01 188.33,56.64 188.33,53.95C188.33,51.92 189.84,49.57 193.46,49.57C195.79,49.57 197.57,50.76 198.02,51.1C198.25,51.24 198.32,51.62 198.16,51.85L197.29,53.15C197.11,53.42 196.77,53.61 196.49,53.42C196.31,53.31 194.57,52.16 193.32,52.16C192.02,52.16 191.31,53.03 191.31,53.76C191.31,54.83 192.16,55.56 194.01,56.32C196.22,57.21 198.78,58.54 198.78,61.48C198.78,63.83 196.75,66 193.53,66C190.66,66 188.97,64.66 188.51,64.22C188.3,64.02 188.19,63.91 188.39,63.54" style="fill:white;fill-rule:nonzero;"/>
            </g>
            <path d="M82.25,15.47L79.97,10.45L79.9,10.45L77.66,15.47L82.25,15.47ZM72.39,20.33L79.49,4.97C79.56,4.83 79.67,4.72 79.88,4.72L80.11,4.72C80.34,4.72 80.43,4.83 80.5,4.97L87.53,20.33C87.66,20.63 87.49,20.92 87.14,20.92L85.15,20.92C84.81,20.92 84.65,20.78 84.49,20.46L83.37,18L76.55,18L75.43,20.46C75.34,20.69 75.13,20.92 74.77,20.92L72.78,20.92C72.44,20.93 72.26,20.63 72.39,20.33" style="fill:white;fill-rule:nonzero;"/>
            <path d="M88.99,18.69L89.81,17.28C89.99,16.96 90.38,16.96 90.59,17.12C90.7,17.19 92.55,18.53 94.03,18.53C95.22,18.53 96.11,17.75 96.11,16.77C96.11,15.61 95.13,14.81 93.21,14.03C91.07,13.16 88.92,11.79 88.92,9.1C88.92,7.07 90.43,4.72 94.06,4.72C96.39,4.72 98.16,5.9 98.62,6.25C98.85,6.39 98.92,6.77 98.76,7L97.89,8.3C97.71,8.57 97.37,8.76 97.09,8.57C96.91,8.46 95.17,7.31 93.92,7.31C92.62,7.31 91.91,8.18 91.91,8.91C91.91,9.98 92.76,10.71 94.6,11.47C96.81,12.36 99.37,13.68 99.37,16.63C99.37,18.98 97.34,21.15 94.12,21.15C91.25,21.15 89.56,19.8 89.1,19.37C88.9,19.17 88.78,19.05 88.99,18.69" style="fill:white;fill-rule:nonzero;"/>
            <path d="M101.68,18.69L102.5,17.28C102.68,16.96 103.07,16.96 103.27,17.12C103.39,17.19 105.23,18.53 106.72,18.53C107.91,18.53 108.8,17.75 108.8,16.77C108.8,15.61 107.82,14.81 105.9,14.03C103.76,13.16 101.61,11.79 101.61,9.1C101.61,7.07 103.12,4.72 106.75,4.72C109.08,4.72 110.86,5.9 111.31,6.25C111.54,6.39 111.61,6.77 111.45,7L110.58,8.3C110.4,8.57 110.06,8.76 109.78,8.57C109.6,8.46 107.86,7.31 106.61,7.31C105.31,7.31 104.6,8.18 104.6,8.91C104.6,9.98 105.44,10.71 107.29,11.47C109.5,12.36 112.06,13.68 112.06,16.63C112.06,18.98 110.03,21.15 106.81,21.15C103.94,21.15 102.25,19.8 101.79,19.37C101.58,19.17 101.47,19.05 101.68,18.69" style="fill:white;fill-rule:nonzero;"/>
            <path d="M122.36,18.19C125.23,18.19 127.61,15.84 127.61,12.97C127.61,10.09 125.24,7.7 122.36,7.7C119.48,7.7 117.13,10.1 117.13,12.97C117.13,15.84 119.48,18.19 122.36,18.19M122.36,4.72C126.92,4.72 130.57,8.39 130.57,12.96C130.57,17.52 126.92,21.15 122.36,21.15C117.8,21.15 114.17,17.52 114.17,12.96C114.16,8.4 117.79,4.72 122.36,4.72" style="fill:white;fill-rule:nonzero;"/>
            <path d="M140.96,4.72C143.27,4.72 144.93,5.45 146.48,6.84C146.69,7.02 146.69,7.29 146.5,7.48L145.11,8.92C144.95,9.1 144.72,9.1 144.54,8.92C143.58,8.07 142.3,7.57 141.02,7.57C138.1,7.57 135.93,10.01 135.93,12.89C135.93,15.74 138.12,18.16 141.04,18.16C142.41,18.16 143.57,17.64 144.53,16.86C144.71,16.7 144.96,16.72 145.1,16.86L146.51,18.32C146.69,18.48 146.65,18.77 146.49,18.94C144.94,20.45 142.98,21.15 140.94,21.15C136.38,21.15 132.7,17.52 132.7,12.96C132.72,8.4 136.4,4.72 140.96,4.72" style="fill:white;fill-rule:nonzero;"/>
            <path d="M149.82,5.39C149.82,5.16 150.03,4.96 150.25,4.96L152.37,4.96C152.6,4.96 152.8,5.17 152.8,5.39L152.8,20.5C152.8,20.73 152.59,20.93 152.37,20.93L150.25,20.93C150.02,20.93 149.82,20.73 149.82,20.5L149.82,5.39Z" style="fill:white;fill-rule:nonzero;"/>
            <path d="M165.06,15.47L162.78,10.45L162.71,10.45L160.48,15.47L165.06,15.47ZM155.21,20.33L162.3,4.97C162.37,4.83 162.48,4.72 162.69,4.72L162.91,4.72C163.14,4.72 163.23,4.83 163.3,4.97L170.33,20.33C170.47,20.63 170.29,20.92 169.94,20.92L167.95,20.92C167.61,20.92 167.45,20.78 167.29,20.46L166.18,18L159.35,18L158.23,20.46C158.14,20.69 157.93,20.92 157.57,20.92L155.58,20.92C155.25,20.93 155.07,20.63 155.21,20.33" style="fill:white;fill-rule:nonzero;"/>
            <path d="M74.47,27.56C74.47,27.33 74.68,27.15 74.91,27.15L75.48,27.15L84.98,37.24L85,37.24L85,27.82C85,27.59 85.18,27.39 85.43,27.39L87.53,27.39C87.76,27.39 87.96,27.6 87.96,27.82L87.96,43.18C87.96,43.41 87.75,43.59 87.53,43.59L86.98,43.59L77.43,33.1L77.41,33.1L77.41,42.91C77.41,43.14 77.23,43.34 76.98,43.34L74.9,43.34C74.67,43.34 74.46,43.14 74.46,42.91L74.46,27.56L74.47,27.56Z" style="fill:white;fill-rule:nonzero;"/>
            <path d="M100.22,37.9L97.94,32.88L97.87,32.88L95.64,37.9L100.22,37.9ZM90.36,42.76L97.46,27.4C97.53,27.26 97.64,27.15 97.85,27.15L98.08,27.15C98.31,27.15 98.4,27.26 98.47,27.4L105.5,42.76C105.64,43.06 105.45,43.35 105.11,43.35L103.12,43.35C102.78,43.35 102.62,43.21 102.46,42.89L101.35,40.42L94.53,40.42L93.41,42.89C93.32,43.12 93.11,43.35 92.75,43.35L90.77,43.35C90.4,43.35 90.22,43.05 90.36,42.76" style="fill:white;fill-rule:nonzero;"/>
            <path d="M114.85,27.15C117.15,27.15 118.82,27.88 120.37,29.27C120.58,29.45 120.58,29.73 120.39,29.91L119,31.35C118.84,31.53 118.61,31.53 118.43,31.35C117.47,30.51 116.19,30 114.91,30C111.99,30 109.82,32.44 109.82,35.32C109.82,38.17 112.01,40.59 114.93,40.59C116.3,40.59 117.46,40.06 118.42,39.29C118.6,39.13 118.85,39.15 118.99,39.29L120.4,40.75C120.58,40.91 120.53,41.21 120.38,41.37C118.83,42.88 116.87,43.58 114.84,43.58C110.28,43.58 106.6,39.95 106.6,35.39C106.61,30.82 110.28,27.15 114.85,27.15" style="fill:white;fill-rule:nonzero;"/>
            <path d="M123.71,27.81C123.71,27.58 123.92,27.38 124.14,27.38L126.26,27.38C126.49,27.38 126.69,27.59 126.69,27.81L126.69,42.92C126.69,43.15 126.49,43.35 126.26,43.35L124.14,43.35C123.91,43.35 123.71,43.15 123.71,42.92L123.71,27.81Z" style="fill:white;fill-rule:nonzero;"/>
            <path d="M138.22,40.61C141.09,40.61 143.47,38.26 143.47,35.38C143.47,32.5 141.1,30.11 138.22,30.11C135.34,30.11 132.99,32.51 132.99,35.38C133,38.26 135.34,40.61 138.22,40.61M138.22,27.15C142.78,27.15 146.43,30.82 146.43,35.39C146.43,39.95 142.78,43.58 138.22,43.58C133.66,43.58 130.02,39.95 130.02,35.39C130.03,30.82 133.66,27.15 138.22,27.15" style="fill:white;fill-rule:nonzero;"/>
            <path d="M149.75,27.56C149.75,27.33 149.96,27.15 150.18,27.15L150.75,27.15L160.25,37.24L160.27,37.24L160.27,27.82C160.27,27.59 160.45,27.39 160.7,27.39L162.8,27.39C163.03,27.39 163.23,27.6 163.23,27.82L163.23,43.18C163.23,43.41 163.02,43.59 162.8,43.59L162.25,43.59L152.71,33.11L152.69,33.11L152.69,42.92C152.69,43.15 152.51,43.35 152.26,43.35L150.18,43.35C149.95,43.35 149.75,43.15 149.75,42.92L149.75,27.56Z" style="fill:white;fill-rule:nonzero;"/>
            <path d="M80.01,62.99C82.98,62.99 85.15,60.75 85.15,57.77C85.15,54.8 82.98,52.57 80.01,52.57L77.41,52.57L77.41,63L80.01,63L80.01,62.99ZM74.47,50.24C74.47,50.01 74.65,49.81 74.88,49.81L80.29,49.81C84.69,49.81 88.3,53.39 88.3,57.77C88.3,62.2 84.69,65.78 80.29,65.78L74.88,65.78C74.65,65.78 74.47,65.57 74.47,65.35L74.47,50.24Z" style="fill:white;fill-rule:nonzero;"/>
            <path d="M104.44,63.54L105.26,62.12C105.44,61.8 105.83,61.8 106.03,61.96C106.15,62.03 108,63.38 109.48,63.38C110.67,63.38 111.56,62.6 111.56,61.62C111.56,60.46 110.58,59.66 108.66,58.88C106.52,58.01 104.37,56.64 104.37,53.95C104.37,51.92 105.87,49.57 109.5,49.57C111.83,49.57 113.61,50.76 114.06,51.1C114.29,51.24 114.36,51.62 114.2,51.85L113.33,53.15C113.15,53.42 112.81,53.61 112.53,53.42C112.35,53.31 110.61,52.16 109.36,52.16C108.06,52.16 107.35,53.03 107.35,53.76C107.35,54.83 108.19,55.56 110.04,56.32C112.25,57.21 114.81,58.54 114.81,61.48C114.81,63.83 112.78,66 109.56,66C106.68,66 104.99,64.66 104.54,64.22C104.35,64.02 104.24,63.91 104.44,63.54" style="fill:white;fill-rule:nonzero;"/>
            <path d="M132.58,49.58C134.63,49.58 136.6,50.38 138.15,51.7C138.33,51.88 138.36,52.16 138.17,52.34L136.76,53.82C136.58,54 136.37,54 136.17,53.82C135.19,52.95 133.98,52.5 132.72,52.5C129.87,52.5 127.61,54.94 127.61,57.79C127.61,60.62 129.87,63.02 132.74,63.02C134.02,63.02 135,62.63 135.46,62.45L135.46,60.5L133.63,60.5C133.38,60.5 133.2,60.32 133.2,60.09L133.2,58.29C133.2,58.04 133.39,57.86 133.63,57.86L138.01,57.86C138.24,57.86 138.42,58.07 138.42,58.29L138.42,64.13C138.42,64.31 138.33,64.43 138.24,64.5C138.24,64.5 135.89,65.98 132.58,65.98C128.04,65.98 124.39,62.37 124.39,57.81C124.39,53.25 128.04,49.58 132.58,49.58" style="fill:white;fill-rule:nonzero;"/>
            <path d="M160.07,50.24C160.07,50.01 160.25,49.81 160.5,49.81L169.79,49.81C170.04,49.81 170.22,50.02 170.22,50.24L170.22,52.11C170.22,52.34 170.04,52.54 169.79,52.54L163.04,52.54L163.04,56.28L168.68,56.28C168.91,56.28 169.11,56.49 169.11,56.72L169.11,58.61C169.11,58.86 168.9,59.04 168.68,59.04L163.04,59.04L163.04,63.03L169.79,63.03C170.04,63.03 170.22,63.23 170.22,63.47L170.22,65.34C170.22,65.57 170.04,65.77 169.79,65.77L160.5,65.77C160.25,65.77 160.07,65.56 160.07,65.34L160.07,50.24Z" style="fill:white;fill-rule:nonzero;"/>
        </g>
        <path d="M1.48,88.91C0.7,88.91 0,87.98 0,86.94L0,77.34C0,76.3 0.7,75.38 1.48,75.38L52.94,75.38C53.72,75.38 54.42,76.3 54.42,77.34L54.42,86.94C54.42,87.97 53.73,88.91 52.94,88.91L1.48,88.91Z" style="fill:white;fill-rule:nonzero;"/>
    </g>
</svg>
