<?xml version="1.0" encoding="UTF-8" standalone="no"?>
<!DOCTYPE svg PUBLIC "-//W3C//DTD SVG 1.1//EN" "http://www.w3.org/Graphics/SVG/1.1/DTD/svg11.dtd">
<svg width="100%" height="100%" viewBox="0 0 194 139" version="1.1" xmlns="http://www.w3.org/2000/svg" xmlns:xlink="http://www.w3.org/1999/xlink" xml:space="preserve" xmlns:serif="http://www.serif.com/" style="fill-rule:evenodd;clip-rule:evenodd;stroke-linejoin:round;stroke-miterlimit:2;">
    <path d="M131.8,110.04C131.14,113.06 130.59,115.75 130.16,118.12C129.74,120.49 129.52,121.9 129.52,122.38C129.52,122.72 129.6,122.98 129.78,123.18C129.95,123.38 130.16,123.47 130.41,123.47C130.54,123.47 130.73,123.42 130.96,123.33C131.19,123.24 131.56,123.05 132.06,122.77L132.38,123.36C131.2,124.19 130.2,124.8 129.36,125.21C128.52,125.61 127.82,125.82 127.24,125.82C126.51,125.82 125.92,125.57 125.48,125.08C125.04,124.58 124.81,123.93 124.81,123.11C124.81,122.69 124.85,122.16 124.93,121.54C125.01,120.92 125.14,120.15 125.32,119.23C124.49,121.25 123.47,122.82 122.26,123.95C121.04,125.08 119.79,125.64 118.5,125.64C117.41,125.64 116.5,125.25 115.79,124.46C115.08,123.67 114.72,122.67 114.72,121.44C114.72,119.98 115.11,118.53 115.9,117.08C116.68,115.64 117.76,114.38 119.07,113.4C120.29,112.48 121.63,111.74 123.07,111.2C124.51,110.67 125.82,110.4 127.01,110.4C127.44,110.4 127.88,110.44 128.35,110.51C128.82,110.59 129.31,110.7 129.84,110.85C130.14,110.77 130.45,110.66 130.78,110.52C131.11,110.38 131.45,110.22 131.8,110.04ZM126.61,112.55C126.5,112.54 126.38,112.53 126.27,112.52C125.83,112.47 125.39,112.44 124.95,112.43C124.24,112.43 123.67,112.56 123.25,112.82C122.83,113.07 122.43,113.56 122.05,114.26C121.39,115.53 120.86,116.85 120.45,118.22C120.07,119.52 119.89,120.68 119.89,121.73C119.89,122.2 119.96,122.56 120.11,122.79C120.25,123.02 120.5,123.16 120.77,123.15C121.6,123.15 122.56,122.18 123.65,120.24C124.75,118.29 125.73,115.74 126.61,112.55ZM110.47,109.68L108.34,117.83C109.93,114.71 111.21,112.7 112.18,111.79C113.14,110.88 114.26,110.43 115.55,110.43C115.85,110.43 116.36,110.48 117.08,110.58C117.16,110.59 117.24,110.6 117.29,110.61L115.84,114.7C115.52,114.61 115.19,114.55 114.86,114.49C114.58,114.44 114.3,114.42 114.02,114.42C112.59,114.42 111.29,115.31 110.12,117.07C108.95,118.84 107.86,121.54 106.85,125.18L102,125.6L104.71,112.3C104.32,112.4 103.92,112.49 103.52,112.58C103.11,112.66 102.7,112.72 102.29,112.76L102.59,111.99C103.85,111.79 105.09,111.5 106.3,111.13C107.7,110.7 109.1,110.22 110.47,109.68ZM100.01,103.59C100.74,103.59 101.33,103.81 101.79,104.26C102.25,104.71 102.48,105.28 102.48,105.99C102.48,106.79 102.18,107.48 101.58,108.05C101.01,108.6 100.24,108.91 99.44,108.9C98.72,108.9 98.12,108.69 97.65,108.26C97.17,107.83 96.94,107.28 96.94,106.62C96.94,105.81 97.25,105.11 97.88,104.5C98.49,103.89 99.21,103.59 100.01,103.59ZM101.74,109.68C101.56,110.29 101.4,110.91 101.25,111.53C101.22,111.66 101.19,111.79 101.15,111.92L99.74,118.45C99.69,118.66 99.63,118.96 99.55,119.33C99.18,121.05 99,122.08 99,122.45C99,122.82 99.06,123.08 99.17,123.23C99.29,123.37 99.49,123.45 99.78,123.45C99.98,123.45 100.2,123.41 100.44,123.34C100.68,123.27 101.02,123.12 101.47,122.9L101.85,123.49C100.69,124.22 99.58,124.8 98.52,125.22C97.45,125.64 96.6,125.85 95.96,125.85C95.27,125.85 94.75,125.67 94.4,125.31C94.05,124.95 93.87,124.42 93.87,123.7C93.87,123.36 93.95,122.73 94.09,121.81C94.24,120.89 94.46,119.76 94.73,118.39L95.95,112.32C95.56,112.42 95.17,112.51 94.76,112.6C94.36,112.68 93.94,112.74 93.53,112.78L93.83,112.01C95.09,111.81 96.33,111.52 97.55,111.15C98.97,110.7 100.37,110.22 101.74,109.68Z" style="fill:white;"/>
    <path d="M83.22,118.62C84.88,118.29 86.29,117.64 87.46,116.67C88.63,115.71 89.21,114.79 89.21,113.94C89.21,113.48 89.01,113.1 88.61,112.82C88.21,112.54 87.67,112.4 87.01,112.4C86.59,112.4 86.25,112.51 85.98,112.73C85.71,112.95 85.32,113.52 84.8,114.45C84.46,115.07 84.17,115.71 83.92,116.38C83.65,117.11 83.42,117.86 83.22,118.62ZM83.07,119.77C83.06,119.85 83.04,119.92 83.04,120C83.03,120.09 83.03,120.22 83.03,120.39C83.03,121.39 83.31,122.18 83.88,122.75C84.45,123.32 85.2,123.61 86.16,123.61C86.95,123.61 87.84,123.35 88.84,122.82C89.84,122.29 90.82,121.56 91.79,120.61L92.64,120.97C91.32,122.51 89.9,123.7 88.36,124.55C86.83,125.4 85.32,125.82 83.85,125.82C82.12,125.82 80.67,125.29 79.51,124.24C78.34,123.19 77.76,121.87 77.76,120.29C77.76,118.89 78.18,117.55 79.01,116.24C79.84,114.93 81.02,113.78 82.54,112.78C83.82,111.94 85.13,111.29 86.46,110.83C87.8,110.37 89.04,110.14 90.18,110.14C91.35,110.14 92.27,110.39 92.94,110.88C93.61,111.37 93.95,112.05 93.95,112.91C93.95,114.34 92.97,115.68 91,116.93C89.02,118.21 86.38,119.15 83.07,119.77ZM80.46,102.76C80.3,103.4 80.17,103.91 80.07,104.31C79.97,104.71 79.9,105.08 79.83,105.42C79.39,105.37 78.95,105.33 78.51,105.3C78.21,105.28 77.91,105.27 77.61,105.27C76.68,105.27 76,105.35 75.57,105.5C75.14,105.66 74.92,105.9 74.92,106.22C74.92,106.62 75.16,107.24 75.63,108.1C76.1,108.96 76.34,109.66 76.34,110.19L76.34,110.72L79.9,110.72L79.58,112.25L76.2,112.25L74.61,120.43C74.1,123.12 73.64,125.26 73.23,126.87C72.83,128.47 72.4,129.88 71.96,131.08L69.39,131.32C69.29,130.53 69.21,129.73 69.17,128.93C69.12,128.1 69.11,127.25 69.11,126.39C69.11,125.27 69.16,124.16 69.27,123.07C69.37,122.01 69.52,120.96 69.73,119.91L71.23,112.26L68.88,112.26L69.18,110.88C70.34,110.88 71.06,110.79 71.33,110.6C71.6,110.41 71.73,110.05 71.73,109.52C71.73,109.33 71.7,109.01 71.65,108.56C71.59,108.11 71.57,107.76 71.57,107.5C71.57,106.11 72.23,104.96 73.55,104.06C74.87,103.16 76.54,102.71 78.55,102.71C78.89,102.71 79.43,102.73 80.17,102.76L80.46,102.76Z" style="fill:white;"/>
    <path d="M58.24,110.1C58.1,110.67 57.98,111.21 57.86,111.71C57.75,112.21 57.65,112.68 57.56,113.13L56.32,119.75C56.24,120.19 56.19,120.55 56.15,120.83C56.12,121.04 56.1,121.25 56.09,121.45C56.09,121.8 56.17,122.08 56.31,122.29C56.46,122.5 56.66,122.61 56.89,122.61C57.59,122.61 58.53,121.52 59.72,119.33C60.9,117.14 61.98,114.41 62.93,111.13L67.86,110.54L65.98,120.4C65.92,120.7 65.87,121 65.84,121.29C65.81,121.6 65.79,121.92 65.79,122.23C65.79,122.58 65.87,122.86 66.03,123.04C66.19,123.23 66.43,123.32 66.74,123.32C66.93,123.32 67.17,123.26 67.46,123.14C67.74,123.03 68.17,122.8 68.74,122.47L69.21,123C68.04,123.89 66.95,124.58 65.93,125.07C64.9,125.56 64.06,125.8 63.4,125.8C62.6,125.8 61.97,125.52 61.52,124.97C61.08,124.42 60.85,123.66 60.85,122.7C60.85,122.17 60.91,121.52 61.05,120.75C61.18,119.97 61.41,118.94 61.74,117.64C60.35,120.68 59.1,122.8 58,124C56.9,125.2 55.69,125.81 54.38,125.81C53.35,125.81 52.54,125.49 51.95,124.87C51.35,124.24 51.06,123.39 51.06,122.3C51.06,122.06 51.08,121.77 51.12,121.44C51.18,120.99 51.26,120.55 51.34,120.1L52.84,112.38C51.87,112.69 50.88,112.9 49.87,113L50.02,112.29C51.1,112.13 52.18,111.91 53.24,111.62C54.45,111.3 56.12,110.8 58.24,110.1Z" style="fill:white;"/>
    <path d="M46.19,102.35L45.81,104.65C45.74,104.64 45.63,104.63 45.49,104.62C44.9,104.57 44.31,104.54 43.72,104.53C42.22,104.53 41.14,106.12 40.46,109.28C40.36,109.78 40.28,110.16 40.22,110.45L38.68,117.36C39.84,114.9 41.02,113.1 42.23,111.94C43.43,110.78 44.71,110.2 46.08,110.2C47.37,110.2 48.39,110.59 49.11,111.37C49.84,112.15 50.2,113.24 50.2,114.63C50.2,116 49.8,117.4 48.99,118.83C48.19,120.26 47.08,121.55 45.66,122.7C44.49,123.66 43.18,124.44 41.78,125C40.41,125.55 39.11,125.83 37.87,125.83C37.16,125.83 36.53,125.72 36.01,125.51C35.48,125.3 35.06,124.99 34.75,124.59C34.38,124.74 34,124.9 33.59,125.08C33.18,125.25 32.76,125.42 32.32,125.61L35.14,111.26L35.16,111.13C35.8,107.81 37.43,105.46 40.04,104.07C40.98,103.55 41.98,103.15 43.01,102.86C44.05,102.57 45.12,102.4 46.19,102.35ZM45.08,114.72C45.08,114.28 44.95,113.92 44.7,113.63C44.45,113.35 44.13,113.21 43.72,113.21C43.27,113.21 42.81,113.41 42.36,113.79C41.91,114.18 41.39,114.83 40.8,115.75C39.91,117.15 39.22,118.4 38.74,119.51C38.26,120.61 38.01,121.48 38.01,122.11C38.01,122.7 38.17,123.14 38.5,123.45C38.83,123.75 39.31,123.91 39.95,123.91C40.57,123.91 41.08,123.74 41.49,123.39C41.91,123.04 42.4,122.29 42.98,121.14C43.6,119.97 44.11,118.75 44.52,117.49C44.89,116.31 45.08,115.39 45.08,114.72ZM33.53,102.35C33.4,102.76 33.29,103.16 33.19,103.53C33.09,103.91 33.02,104.24 32.97,104.54L30.26,118.44C30.06,119.45 29.87,120.47 29.69,121.48C29.61,121.98 29.57,122.34 29.57,122.57C29.57,122.9 29.62,123.13 29.73,123.25C29.83,123.37 30.03,123.43 30.3,123.43C30.51,123.43 30.74,123.39 30.98,123.32C31.22,123.25 31.55,123.1 31.99,122.88L32.38,123.47C31.22,124.2 30.1,124.78 29.04,125.2C27.98,125.62 27.13,125.83 26.49,125.83C25.79,125.83 25.26,125.65 24.9,125.29C24.54,124.92 24.36,124.39 24.36,123.68C24.36,123.14 24.6,121.59 25.09,119L25.21,118.38L27.75,104.98C27.36,105.09 26.96,105.19 26.56,105.26C26.16,105.34 25.74,105.4 25.31,105.45L25.63,104.65C26.9,104.43 28.17,104.14 29.41,103.77C30.81,103.36 32.18,102.89 33.53,102.35Z" style="fill:white;"/>
    <path d="M7.81,105.09C9,105.23 10.2,105.3 11.4,105.3C11.95,105.3 12.54,105.28 13.15,105.25C13.77,105.21 14.4,105.16 15.05,105.09C15.24,105.61 15.41,106.07 15.56,106.44C15.72,106.82 15.87,107.16 16,107.46L23.02,122.66C23.39,123.44 23.73,123.97 24.07,124.25C24.41,124.53 24.85,124.7 25.41,124.74L25.41,125.54C23.87,125.35 22.33,125.26 20.78,125.27C20.04,125.27 19.25,125.29 18.41,125.34C17.57,125.39 16.67,125.45 15.7,125.55L15.7,124.75C16.37,124.7 16.82,124.6 17.07,124.44C17.31,124.29 17.44,124.04 17.44,123.69C17.43,123.48 17.39,123.27 17.32,123.06L15.7,119.12L7.85,119.12L6.42,122.58C6.35,122.77 6.29,122.97 6.25,123.16C6.21,123.31 6.2,123.46 6.19,123.62C6.19,123.97 6.33,124.25 6.59,124.43C6.86,124.62 7.26,124.72 7.8,124.74L7.8,125.54C7.1,125.45 6.39,125.38 5.68,125.33C5.05,125.28 4.42,125.26 3.79,125.26C3.07,125.26 2.4,125.28 1.79,125.33C1.17,125.38 0.57,125.44 -0.01,125.54L-0.01,124.74C0.92,124.66 1.7,123.91 2.34,122.48C2.42,122.3 2.48,122.15 2.53,122.06L9,107.55C9.1,107.32 9.17,107.13 9.21,107C9.24,106.87 9.26,106.74 9.26,106.63C9.26,106.38 9.14,106.19 8.89,106.06C8.65,105.94 8.28,105.86 7.79,105.84L7.81,105.09ZM11.82,109.48L8.97,116.61L14.71,116.61L11.82,109.48ZM87.38,132.87L87.38,133.18C87.38,133.4 87.38,133.57 87.39,133.69C87.4,133.81 87.41,133.93 87.43,134.04L87.26,134.04C87.2,133.65 87.01,133.37 86.71,133.18C86.4,132.99 85.98,132.89 85.42,132.89C84.67,132.89 84.05,133.1 83.56,133.53C83.07,133.96 82.82,134.5 82.82,135.16C82.82,135.89 83.1,136.5 83.66,136.99C84.22,137.48 84.91,137.73 85.72,137.73C86.38,137.73 87.03,137.54 87.59,137.2L87.55,137.61C86.97,137.95 86.31,138.12 85.65,138.11C84.63,138.11 83.8,137.85 83.14,137.33C82.49,136.81 82.16,136.14 82.16,135.33C82.16,134.94 82.24,134.57 82.41,134.23C82.58,133.88 82.83,133.57 83.13,133.33C83.44,133.08 83.79,132.88 84.2,132.74C84.61,132.6 85.03,132.53 85.46,132.53C85.83,132.53 86.17,132.56 86.49,132.62C86.8,132.67 87.1,132.76 87.38,132.87ZM91.93,133.2L90.77,135.58L93.08,135.58L91.93,133.2ZM91.05,132.6C91.16,132.62 91.28,132.63 91.41,132.64C91.67,132.66 91.92,132.66 92.18,132.64C92.26,132.64 92.33,132.63 92.4,132.62C92.47,132.85 92.56,133.07 92.66,133.29L94.59,137.31C94.68,137.49 94.78,137.63 94.88,137.72C94.99,137.81 95.12,137.86 95.27,137.88L95.27,138.02C95.12,138 94.96,137.98 94.81,137.97C94.38,137.94 93.96,137.96 93.53,138.02L93.53,137.88C93.65,137.88 93.78,137.85 93.89,137.8C93.96,137.76 94.01,137.68 94,137.6C94,137.56 93.99,137.51 93.97,137.47C93.95,137.41 93.92,137.35 93.9,137.29L93.22,135.94L90.6,135.94L90.01,137.18C89.97,137.26 89.93,137.35 89.9,137.44C89.88,137.5 89.87,137.55 89.87,137.61C89.87,137.69 89.91,137.75 89.99,137.8C90.11,137.85 90.24,137.88 90.37,137.89L90.37,138.03C90.09,137.99 89.81,137.97 89.54,137.96C89.26,137.96 88.98,137.98 88.7,138.03L88.7,137.89C88.88,137.87 89.04,137.79 89.17,137.67C89.3,137.55 89.44,137.33 89.59,137.03L91.33,133.49C91.39,133.37 91.43,133.28 91.45,133.21C91.47,133.15 91.48,133.08 91.49,133.01C91.49,132.93 91.46,132.87 91.39,132.83C91.33,132.79 91.21,132.77 91.05,132.76L91.05,132.6ZM91.68,130.66L92.27,130.66L93.44,132.07L93.15,132.07L91.98,131.22L90.81,132.07L90.52,132.07L91.68,130.66ZM96.6,132.6C96.85,132.62 97.09,132.64 97.34,132.64L97.58,132.64L97.79,132.63L100.27,137.23L102.41,132.63C102.51,132.64 102.6,132.65 102.68,132.65L102.9,132.65C103.13,132.64 103.37,132.63 103.6,132.6L103.6,132.73C103.4,132.76 103.26,132.8 103.19,132.87C103.12,132.94 103.09,133.05 103.09,133.21C103.09,133.29 103.09,133.36 103.1,133.43C103.1,133.5 103.11,133.56 103.12,133.63L103.36,136.65C103.36,136.7 103.37,136.77 103.38,136.88C103.43,137.52 103.64,137.85 104.03,137.89L104.03,138.02C103.72,137.98 103.41,137.96 103.11,137.96C102.8,137.96 102.49,137.98 102.19,138.02L102.19,137.89C102.41,137.86 102.55,137.81 102.63,137.74C102.71,137.67 102.75,137.57 102.75,137.43C102.75,137.35 102.75,137.26 102.74,137.13C102.74,137 102.73,136.87 102.72,136.74L102.49,133.37L100.35,138L100,138L97.58,133.37L97.39,136.84C97.38,136.95 97.38,137.06 97.37,137.16L97.37,137.43C97.37,137.57 97.41,137.67 97.5,137.74C97.58,137.81 97.73,137.86 97.94,137.9L97.94,138.03C97.67,138 97.4,137.98 97.14,137.97C96.87,137.97 96.61,137.99 96.34,138.03L96.33,137.9C96.73,137.86 96.94,137.51 96.97,136.85C96.97,136.71 96.98,136.6 96.98,136.52L97.13,133.84L97.14,133.74L97.14,133.61C97.14,133.22 97.1,132.98 97.03,132.88C96.96,132.79 96.82,132.73 96.62,132.72L96.6,132.6ZM108.22,133.2L107.06,135.58L109.37,135.58L108.22,133.2ZM107.34,132.6C107.45,132.62 107.57,132.63 107.7,132.64C107.96,132.66 108.21,132.66 108.47,132.64C108.54,132.64 108.61,132.63 108.69,132.62C108.76,132.85 108.85,133.07 108.95,133.29L110.88,137.31C110.97,137.49 111.07,137.63 111.17,137.72C111.28,137.81 111.41,137.86 111.57,137.88L111.57,138.02C111.42,138 111.26,137.98 111.11,137.97C110.68,137.94 110.26,137.96 109.84,138.02L109.84,137.88C109.96,137.88 110.09,137.85 110.2,137.8C110.27,137.76 110.32,137.68 110.31,137.6C110.31,137.56 110.3,137.51 110.28,137.47C110.26,137.41 110.23,137.35 110.21,137.29L109.53,135.94L106.91,135.94L106.32,137.18C106.28,137.26 106.24,137.35 106.21,137.44C106.19,137.5 106.18,137.55 106.18,137.61C106.18,137.69 106.22,137.75 106.3,137.8C106.42,137.85 106.55,137.88 106.68,137.89L106.68,138.03C106.4,137.99 106.12,137.97 105.84,137.96C105.56,137.96 105.28,137.98 105,138.03L105,137.89C105.18,137.87 105.34,137.79 105.47,137.67C105.6,137.55 105.74,137.33 105.89,137.03L107.63,133.49C107.69,133.37 107.73,133.28 107.75,133.21C107.77,133.15 107.78,133.08 107.79,133.01C107.79,132.93 107.76,132.87 107.69,132.83C107.63,132.79 107.51,132.77 107.35,132.76L107.34,132.6ZM112.74,132.63L115.47,132.63C116.09,132.63 116.58,132.75 116.94,132.98C117.3,133.21 117.48,133.53 117.48,133.94C117.48,134.35 117.27,134.69 116.85,134.95C116.43,135.22 115.88,135.37 115.2,135.39C115.74,135.87 116.26,136.36 116.76,136.87C117.26,137.38 117.52,137.64 117.52,137.65C117.6,137.73 117.7,137.79 117.81,137.83C117.91,137.86 118.04,137.88 118.2,137.89L118.2,138.02C118.07,138.01 117.94,138.01 117.81,138L117.31,138C117.24,138 117.14,138.01 117.04,138.01C116.24,137.12 115.39,136.29 114.49,135.51C114.28,135.33 114.18,135.23 114.18,135.21C114.18,135.18 114.2,135.16 114.24,135.15C114.28,135.14 114.36,135.13 114.48,135.13L114.62,135.13C115.32,135.13 115.85,135.03 116.23,134.83C116.61,134.63 116.8,134.35 116.8,133.98C116.8,133.61 116.63,133.36 116.3,133.2C115.97,133.05 115.37,132.97 114.51,132.97L113.96,132.97L113.96,137.23C113.96,137.49 114,137.65 114.08,137.72C114.16,137.79 114.31,137.84 114.53,137.88L114.53,138.01C114.23,137.97 113.93,137.95 113.64,137.95C113.34,137.95 113.05,137.97 112.75,138.01L112.75,137.88C112.97,137.85 113.12,137.79 113.2,137.72C113.28,137.65 113.32,137.49 113.32,137.23L113.32,133.38C113.32,133.12 113.28,132.96 113.2,132.89C113.12,132.82 112.97,132.77 112.75,132.73L112.74,132.63ZM121.86,133.2L120.7,135.58L123,135.58L121.86,133.2ZM120.98,132.6C121.09,132.62 121.21,132.63 121.34,132.64C121.6,132.66 121.85,132.66 122.11,132.64C122.18,132.64 122.25,132.63 122.33,132.62C122.4,132.85 122.49,133.07 122.59,133.29L124.52,137.31C124.61,137.49 124.71,137.63 124.81,137.72C124.92,137.81 125.05,137.86 125.2,137.88L125.2,138.02C125.03,138 124.88,137.98 124.74,137.97C124.6,137.96 124.47,137.95 124.35,137.95C124.05,137.95 123.76,137.97 123.47,138.02L123.47,137.88C123.59,137.88 123.72,137.85 123.83,137.8C123.9,137.76 123.95,137.68 123.94,137.6C123.94,137.56 123.93,137.51 123.91,137.47C123.89,137.41 123.86,137.35 123.84,137.29L123.16,135.94L120.54,135.94L119.95,137.18C119.91,137.26 119.87,137.35 119.84,137.44C119.82,137.5 119.81,137.55 119.81,137.61C119.81,137.69 119.85,137.75 119.93,137.8C120.05,137.85 120.18,137.88 120.31,137.89L120.31,138.03C119.9,137.97 119.49,137.95 119.08,137.98C118.94,137.99 118.79,138.01 118.64,138.03L118.64,137.89C118.82,137.87 118.98,137.8 119.11,137.67C119.24,137.55 119.38,137.33 119.53,137.03L121.27,133.49C121.33,133.37 121.37,133.28 121.39,133.21C121.41,133.15 121.42,133.08 121.43,133.01C121.43,132.94 121.4,132.87 121.33,132.83C121.26,132.79 121.15,132.77 120.99,132.76L120.98,132.6ZM130.87,132.6C131.01,132.61 131.14,132.62 131.26,132.63C131.45,132.64 131.65,132.64 131.85,132.64L132.06,132.63L134.54,137.23L136.68,132.63C136.78,132.64 136.87,132.65 136.95,132.65L137.17,132.65C137.4,132.64 137.64,132.63 137.87,132.6L137.87,132.73C137.66,132.76 137.53,132.8 137.46,132.87C137.39,132.94 137.36,133.05 137.36,133.21L137.36,133.43C137.36,133.5 137.37,133.56 137.38,133.63L137.62,136.65C137.62,136.7 137.63,136.77 137.64,136.88C137.69,137.52 137.9,137.85 138.29,137.89L138.29,138.02C137.98,137.98 137.67,137.96 137.37,137.96C137.06,137.96 136.75,137.98 136.44,138.02L136.44,137.89C136.66,137.86 136.8,137.81 136.88,137.74C136.96,137.67 137,137.57 137,137.43C137,137.35 137,137.26 136.99,137.13C136.99,137 136.98,136.87 136.97,136.74L136.74,133.37L134.6,138L134.25,138L131.83,133.37L131.64,136.84C131.63,136.95 131.63,137.06 131.62,137.16L131.62,137.43C131.62,137.57 131.66,137.67 131.74,137.74C131.82,137.81 131.97,137.86 132.18,137.9L132.18,138.03C131.91,138 131.64,137.98 131.38,137.97C131.11,137.97 130.85,137.99 130.58,138.03L130.58,137.9C130.98,137.86 131.19,137.51 131.22,136.85C131.22,136.71 131.23,136.6 131.23,136.52L131.37,133.84C131.37,133.81 131.38,133.78 131.38,133.74L131.38,133.61C131.38,133.22 131.34,132.98 131.27,132.88C131.2,132.79 131.06,132.73 130.86,132.72L130.87,132.6ZM139.73,132.61C140.03,132.65 140.33,132.67 140.62,132.67C140.92,132.67 141.21,132.65 141.51,132.61L141.51,132.74C141.29,132.78 141.13,132.83 141.05,132.9C140.97,132.97 140.93,133.13 140.93,133.39L140.93,135.9C140.93,136.56 141.07,137.03 141.34,137.32C141.61,137.6 142.05,137.74 142.66,137.74C143.27,137.74 143.71,137.6 143.98,137.32C144.25,137.04 144.38,136.56 144.38,135.9L144.38,133.38C144.38,133.12 144.34,132.96 144.26,132.89C144.18,132.82 144.03,132.77 143.81,132.74L143.81,132.61C143.99,132.63 144.15,132.64 144.3,132.65C144.57,132.67 144.84,132.67 145.11,132.65C145.25,132.64 145.41,132.63 145.6,132.61L145.6,132.74C145.38,132.77 145.23,132.82 145.15,132.89C145.07,132.96 145.03,133.12 145.03,133.38L145.03,135.92C145.03,136.68 144.84,137.23 144.46,137.58C144.08,137.93 143.48,138.11 142.67,138.11C141.85,138.11 141.25,137.93 140.87,137.58C140.49,137.23 140.3,136.68 140.3,135.92L140.3,133.39C140.3,133.14 140.26,132.97 140.18,132.9C140.1,132.83 139.95,132.78 139.72,132.74L139.73,132.61ZM147.28,138.03L147.28,137.9C147.5,137.87 147.65,137.81 147.73,137.74C147.81,137.67 147.85,137.51 147.85,137.25L147.85,133.38C147.85,133.12 147.81,132.96 147.73,132.89C147.65,132.82 147.5,132.77 147.28,132.72L147.28,132.59C147.62,132.64 147.97,132.66 148.31,132.64C148.4,132.63 148.5,132.62 148.59,132.61L152.4,137.14L152.4,133.37C152.4,133.11 152.36,132.95 152.28,132.88C152.2,132.81 152.05,132.76 151.83,132.72L151.83,132.59C152.36,132.66 152.89,132.66 153.42,132.59L153.42,132.72C153.19,132.76 153.04,132.81 152.96,132.88C152.88,132.95 152.84,133.11 152.84,133.37L152.84,138L152.39,138L148.3,133.14L148.3,137.25C148.3,137.5 148.34,137.66 148.42,137.73C148.5,137.8 148.65,137.86 148.87,137.89L148.87,138.02C148.73,138 148.59,137.99 148.45,137.98C148.2,137.96 147.94,137.96 147.69,137.98C147.56,138 147.42,138.01 147.28,138.03ZM155.16,132.61C155.3,132.63 155.44,132.64 155.59,132.65C156.04,132.68 156.49,132.66 156.94,132.61L156.94,132.74C156.72,132.78 156.57,132.83 156.49,132.9C156.41,132.97 156.38,133.13 156.38,133.39L156.38,137.26C156.38,137.52 156.42,137.68 156.49,137.75C156.57,137.82 156.72,137.87 156.94,137.91L156.94,138.04C156.64,138 156.34,137.98 156.05,137.98C155.75,137.98 155.46,138 155.17,138.04L155.17,137.91C155.39,137.88 155.54,137.82 155.62,137.75C155.7,137.68 155.74,137.52 155.74,137.26L155.74,133.39C155.74,133.13 155.7,132.97 155.62,132.9C155.54,132.83 155.39,132.78 155.17,132.74L155.17,132.61L155.16,132.61ZM163.96,132.87L163.96,133.18C163.95,133.47 163.97,133.76 164.01,134.04L163.84,134.04C163.78,133.65 163.59,133.37 163.29,133.18C162.98,132.99 162.56,132.89 162,132.89C161.25,132.89 160.63,133.1 160.14,133.53C159.65,133.96 159.4,134.5 159.4,135.16C159.4,135.89 159.68,136.5 160.24,136.99C160.8,137.48 161.49,137.73 162.3,137.73C162.96,137.73 163.61,137.55 164.17,137.2L164.13,137.61C163.55,137.95 162.9,138.12 162.23,138.11C161.21,138.11 160.38,137.85 159.72,137.33C159.06,136.81 158.74,136.14 158.74,135.33C158.74,134.94 158.82,134.57 158.99,134.23C159.15,133.89 159.39,133.59 159.71,133.33C160.02,133.08 160.37,132.88 160.78,132.74C161.19,132.6 161.61,132.53 162.04,132.53C162.41,132.53 162.75,132.56 163.07,132.62C163.37,132.67 163.67,132.75 163.96,132.87ZM165.88,132.61C166.47,132.69 167.07,132.69 167.66,132.61L167.66,132.74C167.44,132.78 167.29,132.83 167.21,132.9C167.13,132.97 167.09,133.13 167.09,133.39L167.09,137.26C167.09,137.52 167.13,137.68 167.21,137.75C167.29,137.82 167.44,137.87 167.66,137.91L167.66,138.04C167.36,138 167.07,137.98 166.77,137.98C166.47,137.98 166.18,138 165.88,138.04L165.88,137.91C166.1,137.88 166.25,137.82 166.33,137.75C166.41,137.68 166.45,137.52 166.45,137.26L166.45,133.39C166.45,133.13 166.41,132.97 166.33,132.9C166.25,132.83 166.1,132.78 165.88,132.74L165.88,132.61ZM169.47,138.03L169.47,137.9C169.69,137.87 169.84,137.81 169.92,137.74C170,137.67 170.04,137.51 170.04,137.25L170.04,133.4C170.04,133.14 170,132.98 169.92,132.91C169.84,132.84 169.69,132.79 169.47,132.75L169.47,132.62L171.78,132.62C172.6,132.62 173.24,132.76 173.69,133.05C174.14,133.34 174.37,133.75 174.37,134.28C174.37,134.75 174.17,135.13 173.77,135.42C173.37,135.72 172.85,135.86 172.22,135.86C171.89,135.86 171.6,135.82 171.32,135.74C171.05,135.66 170.91,135.58 170.91,135.51C170.91,135.49 170.92,135.48 170.94,135.47C170.95,135.46 170.97,135.45 170.99,135.45C171.04,135.45 171.08,135.46 171.13,135.47C171.41,135.53 171.66,135.56 171.91,135.56C172.43,135.56 172.85,135.44 173.18,135.21C173.51,134.97 173.67,134.67 173.67,134.31C173.67,133.9 173.48,133.58 173.09,133.34C172.7,133.11 172.17,132.99 171.48,132.99L170.69,132.99L170.69,137.25C170.69,137.51 170.73,137.67 170.81,137.74C170.89,137.81 171.04,137.86 171.26,137.9L171.26,138.03C170.96,137.99 170.66,137.97 170.37,137.97C170.06,137.97 169.76,137.99 169.47,138.03ZM177.44,133.2L176.28,135.58L178.59,135.58L177.44,133.2ZM176.56,132.6C176.67,132.62 176.79,132.63 176.92,132.64C177.18,132.66 177.43,132.66 177.69,132.64C177.76,132.64 177.83,132.63 177.91,132.62C177.98,132.85 178.07,133.07 178.17,133.29L180.1,137.31C180.19,137.49 180.29,137.63 180.39,137.72C180.5,137.81 180.63,137.86 180.79,137.88L180.79,138.02C180.64,138 180.48,137.98 180.33,137.97C179.9,137.94 179.48,137.96 179.06,138.02L179.06,137.88C179.18,137.88 179.31,137.85 179.42,137.8C179.49,137.76 179.54,137.68 179.53,137.6C179.53,137.56 179.52,137.51 179.5,137.47C179.48,137.41 179.45,137.35 179.43,137.29L178.75,135.94L176.13,135.94L175.54,137.18C175.5,137.26 175.46,137.35 175.43,137.44C175.41,137.5 175.4,137.55 175.4,137.61C175.4,137.69 175.44,137.75 175.52,137.8C175.64,137.85 175.77,137.88 175.9,137.89L175.9,138.03C175.62,137.99 175.34,137.97 175.06,137.96C174.78,137.96 174.5,137.98 174.22,138.03L174.22,137.89C174.4,137.87 174.56,137.79 174.69,137.67C174.82,137.55 174.96,137.33 175.11,137.03L176.85,133.49C176.91,133.37 176.95,133.28 176.97,133.21C176.99,133.15 177,133.08 177.01,133.01C177.01,132.93 176.98,132.87 176.91,132.83C176.85,132.79 176.73,132.77 176.57,132.76L176.56,132.6ZM181.96,132.61C182.55,132.69 183.15,132.69 183.74,132.61L183.74,132.74C183.52,132.78 183.37,132.83 183.29,132.9C183.21,132.97 183.17,133.13 183.17,133.39L183.17,137.64L184.85,137.64C185.57,137.64 186.02,137.57 186.2,137.43C186.37,137.29 186.5,136.99 186.58,136.54L186.75,136.54C186.68,136.95 186.63,137.25 186.6,137.44C186.58,137.63 186.57,137.79 186.57,137.94L186.57,138.01L181.96,138.01L181.96,137.88C182.18,137.85 182.33,137.79 182.41,137.72C182.49,137.65 182.53,137.49 182.53,137.23L182.53,133.39C182.53,133.13 182.49,132.97 182.41,132.9C182.33,132.83 182.18,132.78 181.96,132.74L181.96,132.61Z" style="fill:white;"/>
    <path d="M118.45,76.21C110.53,79.1 99.36,84.73 91.19,87.52C83.13,90.28 79.27,91.36 84.57,83.87C85.15,83.05 85.77,82.26 86.42,81.5C93.5,82.87 112.7,76.29 118.45,76.21Z" style="fill:white;"/>
    <path d="M151.95,77.84C152.7,83.42 153.02,89.46 153.05,94.81C153.14,112.64 150.81,114.56 142.52,98.34C138.82,91.09 136.63,82.96 132.77,76.76C138.3,75.93 145.22,78.2 151.95,77.84Z" style="fill:white;"/>
    <path d="M149.17,62.45C149.64,63.69 150.32,73.75 150.7,75.22C131.19,67.77 117.09,70.01 93.83,74.65C97.99,71.38 103.35,68.65 107.06,64.83C124.86,63.33 137.4,60.82 149.17,62.45Z" style="fill:white;"/>
    <path d="M148.04,42.19C158.19,41.74 174.9,46.06 185.31,49.65C196.73,53.58 196.11,54.07 186.57,56.9C185.28,57.28 183.97,57.6 182.65,57.84C160.06,54.34 141.54,52.69 108.97,62.59C109.77,61.4 111.51,57.31 112.16,55.94C110.59,55.11 105.85,49.05 104.13,47.71C121.53,44.79 144.84,47.45 175.74,52.29C165.36,47.77 156.24,44.5 148.04,42.19Z" style="fill:white;"/>
    <path d="M148.6,20.12C148.2,21.54 147.02,25.07 146.64,26.5C141.15,25.81 135.57,24.97 129.31,25.36C130.24,23.8 131.99,20.58 133.01,19.02C137.48,18.97 142.58,19.26 148.6,20.12ZM151.18,5.66C151.22,10.78 149.95,15.43 148.61,20.08C143.53,18.06 139.13,16.66 135.22,15.74C138.46,11.08 141.75,6.75 144.54,3.53C148.07,-0.6 151.12,-2.46 151.18,5.66ZM91.6,33.62C90.3,32.1 89.01,30.57 87.72,29.03C79.24,18.89 79.02,17.43 92.75,23.45C96.5,25.09 99.91,27.21 103.34,29.3C100.11,30.37 95.19,32.19 91.54,33.64L91.6,33.62Z" style="fill:white;"/>
    <path d="M145.65,34.09C145.49,36.63 145.67,39.18 146.18,41.67C121.06,39.1 115.5,41.1 100.16,43.58C97.47,40.46 94.47,36.98 91.66,33.66L91.61,33.61L91.56,33.62L91.52,33.63L92.16,33.54C97.14,32.81 103.02,31.83 107.19,31.56C112.14,34.41 117.39,36.84 123.98,37.47C124.36,35.68 125.06,33.69 125.98,31.56C133.35,32.08 139.67,33.1 145.65,34.09Z" style="fill:white;"/>
</svg>
