<?xml version="1.0" encoding="UTF-8" standalone="no"?>
<!DOCTYPE svg PUBLIC "-//W3C//DTD SVG 1.1//EN" "http://www.w3.org/Graphics/SVG/1.1/DTD/svg11.dtd">
<svg width="100%" height="100%" viewBox="0 0 253 119" version="1.1" xmlns="http://www.w3.org/2000/svg" xmlns:xlink="http://www.w3.org/1999/xlink" xml:space="preserve" xmlns:serif="http://www.serif.com/" style="fill-rule:evenodd;clip-rule:evenodd;stroke-miterlimit:10;">
    <path d="M103,73.33C102.12,72.13 101.5,70.79 101.16,69.31C100.81,67.83 100.64,66.36 100.64,64.91L100.64,28.53C100.64,26.32 100.81,24.4 101.16,22.76C101.51,21.12 102.03,19.67 102.72,18.41C103.98,16.14 105.9,14.5 108.49,13.5C109.31,13.19 110.16,12.92 111.04,12.7C111.92,12.48 112.87,12.31 113.87,12.18C115.13,12.05 116.49,11.96 117.94,11.9C119.39,11.84 120.93,11.81 122.57,11.81L132.49,11.81C136.59,11.81 139.75,11.76 141.99,11.67C144.22,11.58 145.6,11.5 146.1,11.43L146.95,11.34L146.95,11.91C146.95,12.98 146.84,13.93 146.62,14.74C146.4,15.56 146.13,16.32 145.82,17.01C145.13,18.21 144.15,19.15 142.89,19.85C141.63,20.48 140.29,20.86 138.87,20.98C137.45,21.11 136.02,21.17 134.57,21.17L114.91,21.17C114.53,21.23 114.22,21.3 113.96,21.36C113.71,21.43 113.49,21.52 113.3,21.64C112.92,21.83 112.64,22.08 112.45,22.4C112.2,22.71 112.04,23.14 111.98,23.68C111.92,24.22 111.89,24.83 111.89,25.52L111.89,38.93L123.71,38.93C127.87,38.93 130.26,38.83 132.5,38.73C134.74,38.63 136.81,38.23 137.32,38.06L138.17,37.8L138.17,38.37C138.17,40.45 137.79,42.15 137.04,43.47C136.72,44.16 136.31,44.73 135.81,45.17C135.31,45.61 134.74,45.99 134.11,46.3C132.85,46.93 131.51,47.31 130.09,47.44C128.67,47.57 127.24,47.63 125.79,47.63L111.89,47.63L111.89,62.94C111.89,67.04 111.95,70.2 112.08,72.44C112.21,74.68 112.3,76.05 112.36,76.55L112.36,76.74L112.45,77.31L111.79,77.31C109.71,77.31 107.95,76.95 106.5,76.22C105.04,75.49 103.88,74.53 103,73.33" style="fill:white;fill-rule:nonzero;"/>
    <path d="M189.83,73.33C188.95,74.53 187.76,75.49 186.28,76.21C184.8,76.94 182.99,77.3 180.84,77.3L180.27,77.3C180.4,76.17 180.49,74.89 180.55,73.47C180.61,72.05 180.68,70.65 180.74,69.26C180.8,67.87 180.83,66.57 180.83,65.34L180.83,62.36L180.74,55.84C180.74,52.69 181.2,49.74 182.11,47C183.02,44.26 184.39,41.85 186.22,39.77C188.05,37.75 190.22,36.15 192.74,34.95C195.26,33.75 198.13,33.15 201.34,33.15C202.98,33.15 204.51,33.29 205.92,33.58C207.34,33.86 208.58,34.16 209.65,34.48C210.91,34.86 212.11,35.27 213.24,35.71L213.62,35.9C213.62,35.9 213.38,37.94 212.3,39.02C211.73,39.59 210.94,40.09 209.94,40.53C209.06,40.85 208.16,41.05 207.25,41.15C206.34,41.24 205.44,41.29 204.56,41.29C204.12,41.29 203.72,41.27 203.38,41.24C203.03,41.21 202.7,41.19 202.39,41.19C201.88,41.19 201.26,41.25 200.5,41.38C199.74,41.51 198.92,41.79 198.04,42.23C197.22,42.67 196.4,43.29 195.58,44.07C194.76,44.86 194.07,45.95 193.5,47.33C193.12,48.21 192.82,49.25 192.6,50.45C192.38,51.65 192.27,53 192.27,54.52L192.27,64.91C192.27,66.36 192.08,67.83 191.7,69.31C191.34,70.8 190.71,72.14 189.83,73.33" style="fill:white;fill-rule:nonzero;"/>
    <path d="M176.22,73.46C176.16,72.04 176.09,70.64 176.03,69.25C175.97,67.86 175.94,66.56 175.94,65.33L175.94,62.35L176.03,55.83C176.03,52.68 175.57,49.73 174.66,46.99C173.75,44.25 172.38,41.84 170.55,39.76C168.72,37.74 166.55,36.14 164.03,34.94C161.51,33.74 158.64,33.14 155.43,33.14C153.79,33.14 152.26,33.28 150.85,33.57C149.43,33.85 148.19,34.15 147.12,34.47C145.86,34.85 143.15,35.89 143.15,35.89C143.15,35.89 143.15,38.01 144.47,39.01C145.11,39.49 145.82,40.08 146.83,40.52C147.71,40.84 148.61,41.04 149.52,41.13C150.43,41.22 151.33,41.27 152.21,41.27C152.65,41.27 153.05,41.25 153.39,41.22C153.74,41.19 154.07,41.17 154.38,41.17C154.89,41.17 155.51,41.23 156.27,41.36C157.03,41.49 157.85,41.77 158.73,42.21C159.55,42.65 160.37,43.27 161.19,44.05C162.01,44.84 162.7,45.93 163.27,47.31C163.62,48.12 163.9,49.07 164.11,50.15C161.51,49.41 158.74,49.03 155.8,49.03C153.4,49.03 151.12,49.3 148.95,49.83C146.77,50.37 144.8,51.2 143.04,52.33C141.28,53.46 139.86,54.95 138.79,56.77C137.72,58.6 137.18,60.74 137.18,63.2L137.18,63.77C137.24,66.41 137.87,68.75 139.07,70.76C139.95,72.21 141.02,73.42 142.28,74.4C143.54,75.38 144.89,76.15 146.34,76.72C147.79,77.35 149.25,77.79 150.74,78.04C152.22,78.29 153.65,78.42 155.04,78.42C155.42,78.42 155.81,78.4 156.22,78.37C156.63,78.34 157.02,78.29 157.4,78.23C160.3,77.91 162.93,77.11 165.29,75.82C166.16,75.34 166.99,74.82 167.76,74.24C168.52,75.01 169.42,75.66 170.49,76.18C171.97,76.9 173.78,77.27 175.92,77.27L176.49,77.27C176.38,76.15 176.28,74.87 176.22,73.46M164.12,61.52C163.87,62.66 163.46,63.76 162.89,64.83C162.2,66.09 161.31,67.1 160.24,67.86C159.11,68.62 157.66,69.09 155.89,69.28L154.76,69.28C153.25,69.28 152.02,69.09 151.07,68.71C150.25,68.39 149.56,67.89 148.99,67.2C148.48,66.63 148.15,66.02 148,65.36C147.84,64.7 147.76,64.08 147.76,63.52L147.76,62.76C147.76,62.22 148.33,60.81 148.89,60.11C149.58,59.17 150.69,58.44 152.2,57.94C153.52,57.5 155.07,57.28 156.83,57.28L156.92,57.28C157.99,57.28 159.03,57.34 160.04,57.47C161.05,57.6 161.96,57.75 162.78,57.94C163.16,58 163.49,58.07 163.77,58.13C164.05,58.19 164.32,58.26 164.57,58.32C164.53,59.31 164.37,60.38 164.12,61.52" style="fill:white;fill-rule:nonzero;"/>
    <path d="M247,39.78C248.83,41.86 250.23,44.27 251.2,47.01C252.18,49.75 252.67,52.7 252.67,55.85C252.67,59 252.12,61.95 251.02,64.69C249.92,67.43 248.42,69.81 246.53,71.83C244.64,73.85 242.42,75.46 239.87,76.65C237.32,77.85 234.56,78.45 231.6,78.45C228.39,78.45 225.47,77.85 222.86,76.65C220.24,75.45 218.02,73.85 216.2,71.83C214.37,69.75 212.95,67.34 211.95,64.6C210.94,61.86 210.44,58.94 210.44,55.86C210.44,52.65 210.99,49.68 212.09,46.97C213.19,44.26 214.72,41.86 216.67,39.79C218.56,37.77 220.78,36.17 223.34,34.97C225.89,33.77 228.65,33.17 231.61,33.17C234.82,33.17 237.74,33.77 240.35,34.97C242.95,36.15 245.17,37.76 247,39.78M241.14,54.43C241.14,51.4 240.76,49.03 240.01,47.29C239.25,45.56 238.34,44.25 237.27,43.37C236.2,42.49 235.14,41.9 234.1,41.62C233.06,41.34 232.22,41.19 231.59,41.19C230.77,41.19 229.79,41.35 228.66,41.66C227.65,42.04 226.67,42.7 225.73,43.64C224.78,44.65 223.96,46.12 223.27,48.04C222.58,49.96 222.17,52.53 222.04,55.74C221.98,56.06 221.95,56.53 221.95,57.16C221.95,60.18 222.34,62.57 223.13,64.3C223.92,66.03 224.82,67.34 225.82,68.22C226.89,69.1 227.96,69.68 229.04,69.97C230.11,70.25 230.96,70.4 231.59,70.4C232.03,70.4 232.5,70.37 233.01,70.31C233.51,70.25 234.02,70.12 234.52,69.93C235.59,69.49 236.57,68.83 237.45,67.95C238.39,66.94 239.21,65.48 239.91,63.55C240.6,61.63 241.01,59.06 241.14,55.85L241.14,54.43Z" style="fill:white;fill-rule:nonzero;"/>
    <path d="M7.1,51.48C2.05,39.44 12.16,25.2 19.29,21.31C22.22,19.71 28.59,15.56 35.9,11.34C26.18,11.4 15.99,12.86 11.05,15.55C3.91,19.45 -3.37,39.28 1.68,51.32C6.73,63.36 31.07,79.67 44.19,78.25C44.31,78.23 44.42,78.22 44.54,78.2C31.01,76.03 11.55,62.1 7.1,51.48" style="fill:white;fill-rule:nonzero;"/>
    <path d="M70.45,56.37C76.79,44.43 92.86,18.77 89.03,12.73C81.54,0.91 65.77,0.11 65.77,0.11C58.82,-0.92 46.39,5.28 35.89,11.34C40.2,11.31 44.41,11.56 48.03,12.09C48.03,12.09 63.8,12.89 71.29,24.7C75.12,30.75 71.37,44.26 65.03,56.2C59.09,67.4 50.9,77.19 44.54,78.2C46.35,78.49 48.06,78.58 49.61,78.41C56.01,77.72 64.41,67.76 70.45,56.37" style="fill:white;fill-rule:nonzero;"/>
    <path d="M65.03,56.21C71.37,44.27 75.13,30.75 71.29,24.71C63.81,12.9 48.03,12.1 48.03,12.1C44.41,11.57 40.2,11.32 35.89,11.35C28.58,15.57 22.21,19.72 19.28,21.32C12.16,25.2 2.05,39.44 7.1,51.48C11.55,62.1 31,76.03 44.54,78.2C50.9,77.19 59.09,67.4 65.03,56.21" style="fill:white;fill-rule:nonzero;stroke:white;stroke-width:0.3px;"/>
    <path d="M111.34,98.47C110.99,98.93 110.65,99.31 110.33,99.63C110.01,99.95 109.59,100.33 109.06,100.79C108.73,101.09 108.3,101.45 107.77,101.85C107.24,102.26 106.69,102.58 106.14,102.82C105.58,103.06 105.05,103.14 104.55,103.07C104.04,102.99 103.67,102.63 103.41,101.97C104.5,101.19 105.44,100.36 106.24,99.5C107.04,98.64 107.68,97.57 108.16,96.28C108.49,95.12 108.46,94.33 108.07,93.93C107.68,93.53 107.12,93.34 106.38,93.36C106.15,93.29 105.86,93.3 105.51,93.42C105.15,93.53 104.94,93.6 104.86,93.63C104.35,93.91 103.91,94.29 103.53,94.79C103.15,95.28 102.8,95.88 102.47,96.59C101.99,97.96 101.74,99.07 101.71,99.93C101.68,100.79 101.73,101.47 101.86,101.98C101.88,102.11 101.94,102.26 102.01,102.43C102.09,102.61 102.21,102.8 102.37,103.02C102.53,103.24 102.77,103.44 103.07,103.65C103.37,103.85 103.78,104.04 104.28,104.22C104.89,104.32 105.42,104.32 105.89,104.22C106.36,104.12 106.79,103.94 107.18,103.69C107.57,103.44 107.94,103.14 108.3,102.8C108.65,102.46 109.02,102.11 109.4,101.76C109.73,101.38 110.01,101.08 110.24,100.85C110.47,100.62 110.65,100.43 110.79,100.26C110.93,100.1 111.04,99.94 111.11,99.8C111.18,99.66 111.26,99.5 111.34,99.33C111.39,99.1 111.43,98.92 111.45,98.8C111.47,98.67 111.48,98.58 111.47,98.52C111.46,98.43 111.42,98.42 111.34,98.47M103.54,98.22C103.78,97.47 104.08,96.8 104.43,96.19C104.78,95.58 105.17,95.12 105.6,94.79C106.03,94.46 106.46,94.4 106.89,94.6C106.94,94.6 106.99,94.64 107.04,94.71C107.14,94.86 107.15,95.13 107.08,95.51C107.06,96.07 106.9,96.6 106.61,97.1C106.32,97.61 105.98,98.07 105.59,98.49C105.2,98.91 104.78,99.27 104.34,99.59C103.9,99.91 103.51,100.15 103.18,100.33C103.18,99.67 103.31,98.97 103.54,98.22" style="fill:white;fill-rule:nonzero;"/>
    <path d="M119.15,92.02C119.02,91.94 118.91,91.89 118.81,91.85C118.71,91.81 118.67,91.83 118.7,91.91C118.65,92.44 118.52,93.07 118.32,93.81C118.12,94.54 117.87,95.3 117.58,96.07C117.29,96.84 116.97,97.6 116.63,98.35C116.29,99.1 115.97,99.75 115.66,100.32C115.36,100.89 115.09,101.35 114.86,101.7C114.63,102.05 114.48,102.21 114.4,102.16C114.12,101.4 113.89,100.52 113.7,99.5C113.51,98.49 113.34,97.52 113.21,96.6C113.07,95.68 112.95,94.89 112.85,94.25C112.75,93.61 112.66,93.28 112.58,93.28C112.02,93.08 111.66,93.02 111.5,93.11C111.34,93.2 111.32,93.46 111.44,93.89C111.67,94.7 111.87,95.58 112.05,96.53C112.23,97.48 112.39,98.41 112.52,99.34C112.66,100.26 112.8,101.14 112.94,101.96C113.08,102.78 113.24,103.46 113.41,103.99C113.54,104.27 113.74,104.41 114.04,104.41C114.33,104.41 114.64,104.25 114.97,103.92C116.18,102.18 117.2,100.34 118.02,98.42C118.84,96.5 119.39,94.55 119.67,92.58C119.67,92.5 119.61,92.41 119.5,92.32C119.4,92.18 119.28,92.1 119.15,92.02" style="fill:white;fill-rule:nonzero;"/>
    <path d="M128.18,95.09C127.88,94.79 127.49,94.52 127.02,94.27C126.55,94.03 126.04,93.82 125.48,93.63C124.92,93.44 124.36,93.29 123.77,93.17C123.19,93.06 122.66,92.99 122.18,92.96C122.1,93.11 121.96,93.26 121.76,93.42C121.66,93.52 121.56,93.6 121.46,93.65C121.56,93.73 121.65,93.81 121.73,93.9C121.81,93.99 121.88,94.08 121.96,94.18C122.04,94.28 122.11,94.4 122.19,94.52C122.06,95.2 121.97,96.06 121.92,97.1C121.87,98.14 121.88,99.33 121.96,100.67C121.98,100.97 122.05,101.33 122.17,101.75C122.28,102.17 122.46,102.57 122.68,102.95C122.91,103.33 123.21,103.65 123.59,103.92C123.97,104.19 124.44,104.32 124.99,104.32C125.32,104.32 125.67,104.13 126.05,103.75C126.43,103.37 126.78,102.89 127.11,102.31C127.44,101.73 127.74,101.08 128,100.36C128.27,99.64 128.46,98.94 128.59,98.25C128.72,97.57 128.75,96.94 128.7,96.37C128.66,95.79 128.49,95.37 128.18,95.09M127.52,98.34C127.43,98.93 127.24,99.57 126.93,100.24C126.63,100.91 126.17,101.56 125.56,102.19C125.33,102.42 125.12,102.56 124.92,102.61C124.72,102.66 124.52,102.65 124.33,102.59C124.14,102.53 123.98,102.44 123.85,102.32C123.72,102.21 123.62,102.1 123.55,102C123.45,101.82 123.35,101.49 123.27,101C123.18,100.51 123.13,99.93 123.12,99.26C123.11,98.59 123.15,97.85 123.25,97.04C123.35,96.23 123.53,95.42 123.78,94.61C124.31,94.76 124.74,94.88 125.07,94.97C125.4,95.06 125.67,95.14 125.88,95.22C126.09,95.29 126.27,95.38 126.41,95.47C126.55,95.56 126.72,95.67 126.92,95.79C127.17,95.99 127.36,96.32 127.47,96.78C127.59,97.22 127.61,97.74 127.52,98.34" style="fill:white;fill-rule:nonzero;"/>
    <path d="M135.69,79.46C135.49,78.9 135.19,78.49 134.8,78.23C134.41,77.96 134.01,77.86 133.6,77.93C133.2,77.99 132.81,78.22 132.44,78.61C132.07,79 131.8,79.56 131.62,80.3C131.54,80.66 131.47,81.17 131.41,81.84C131.35,82.51 131.3,83.26 131.26,84.08C131.22,84.9 131.19,85.77 131.17,86.68C131.15,87.59 131.13,88.46 131.13,89.28L131.13,93.02C131.13,93.37 131.14,93.66 131.15,93.89C131.16,94.12 131.17,94.34 131.17,94.55C131.17,94.76 131.18,94.97 131.19,95.18C131.2,95.38 131.22,95.62 131.25,95.9C131.2,96.13 131.12,96.37 131.02,96.62C130.95,96.82 130.84,97.05 130.7,97.3C130.56,97.55 130.4,97.81 130.23,98.06C130.18,98.14 130.14,98.22 130.12,98.33C130.1,98.43 130.07,98.55 130.04,98.67C130.01,98.8 129.99,98.92 129.96,99.05C129.91,99.28 129.92,99.39 130,99.39C130.05,99.39 130.18,99.29 130.38,99.08C130.58,98.88 130.91,98.47 131.37,97.87C131.5,98.96 131.65,100.37 131.84,102.1C132.03,103.83 132.29,105.86 132.62,108.19C132.87,108.54 133.07,108.82 133.21,109.01C133.35,109.2 133.47,109.34 133.57,109.45C133.67,109.55 133.77,109.62 133.87,109.64C133.97,109.66 134.1,109.69 134.25,109.72C134.22,109.52 134.16,109.06 134.06,108.34C133.96,107.62 133.85,106.78 133.74,105.84C133.62,104.89 133.5,103.89 133.36,102.84C133.22,101.79 133.1,100.81 133,99.9C132.9,98.99 132.81,98.22 132.74,97.59C132.66,96.96 132.63,96.6 132.63,96.53C132.86,95.9 133.12,95.11 133.43,94.18C133.73,93.25 134.04,92.24 134.34,91.17C134.64,90.1 134.93,88.99 135.2,87.85C135.46,86.71 135.67,85.62 135.83,84.57C135.98,83.52 136.06,82.55 136.06,81.67C136.03,80.74 135.92,80.02 135.69,79.46M134.76,84.09C134.57,85.51 134.27,87.11 133.87,88.89C133.47,90.67 132.95,92.49 132.31,94.33C132.31,93.72 132.3,92.9 132.27,91.86C132.25,90.82 132.23,89.72 132.21,88.56C132.2,87.4 132.22,86.23 132.27,85.05C132.32,83.88 132.43,82.83 132.59,81.92C132.76,81.01 132.98,80.3 133.25,79.8C133.53,79.29 133.91,79.13 134.39,79.31C134.69,79.34 134.88,79.78 134.94,80.66C135.02,81.53 134.95,82.67 134.76,84.09" style="fill:white;fill-rule:nonzero;"/>
    <path d="M145.82,100.92C145.54,101.16 145.23,101.43 144.89,101.74C144.55,102.05 144.2,102.3 143.83,102.5C143.46,102.7 143.14,102.72 142.86,102.54C142.53,102.34 142.32,101.9 142.23,101.21C142.14,100.53 142.11,99.77 142.14,98.93C142.17,98.1 142.22,97.26 142.31,96.41C142.4,95.56 142.47,94.86 142.52,94.3C142.44,94.28 142.32,94.25 142.16,94.22C141.99,94.2 141.83,94.18 141.67,94.18C141.51,94.18 141.36,94.2 141.23,94.24C141.1,94.28 141.04,94.37 141.04,94.52C141.14,95.25 141.07,96.11 140.81,97.1C140.56,98.09 140.24,99.02 139.86,99.89C139.48,100.76 139.09,101.48 138.68,102.03C138.28,102.59 137.98,102.8 137.81,102.67C137.66,102.59 137.54,102.44 137.45,102.22C137.36,101.99 137.3,101.75 137.26,101.5C137.22,101.25 137.2,101.01 137.18,100.8C137.17,100.58 137.16,100.44 137.16,100.36C137.21,98.29 137.28,96.51 137.37,95.05C137.46,93.58 137.44,92.56 137.31,91.98C137.21,91.85 137.08,91.77 136.93,91.73C136.78,91.69 136.63,91.66 136.47,91.64C136.29,91.62 136.12,91.6 135.94,91.6C135.99,92.33 136.03,93.14 136.05,94.01C136.07,94.88 136.09,95.77 136.09,96.67L136.09,99.31C136.09,100.17 136.11,100.94 136.15,101.63C136.19,102.31 136.24,102.87 136.3,103.32C136.36,103.76 136.47,104.02 136.62,104.1C136.72,104.3 136.91,104.46 137.19,104.57C137.47,104.68 137.86,104.64 138.37,104.44C138.52,104.39 138.71,104.2 138.94,103.87C139.17,103.54 139.41,103.15 139.66,102.69C139.91,102.24 140.16,101.76 140.42,101.25C140.67,100.74 140.9,100.29 141.1,99.88C141.15,100.21 141.2,100.58 141.23,100.98C141.27,101.39 141.32,101.76 141.38,102.12C141.44,102.48 141.52,102.78 141.61,103.05C141.7,103.32 141.82,103.46 141.97,103.49C142.35,103.64 142.77,103.66 143.24,103.55C143.71,103.44 144.15,103.24 144.57,102.96C144.99,102.68 145.36,102.34 145.69,101.94C146.02,101.54 146.23,101.12 146.33,100.69C146.28,100.59 146.1,100.68 145.82,100.92" style="fill:white;fill-rule:nonzero;"/>
    <path d="M148.48,101.16C148.35,99.57 148.27,98.04 148.21,96.59C148.16,95.14 148.07,93.8 147.94,92.59C147.74,92.54 147.57,92.54 147.45,92.59C147.32,92.64 147.22,92.7 147.15,92.78C147.08,92.86 147,92.95 146.94,93.05C146.88,93.15 146.8,93.23 146.69,93.28C146.74,93.89 146.8,94.71 146.86,95.74C146.92,96.78 146.99,97.85 147.05,98.95C147.11,100.05 147.18,101.07 147.24,102C147.3,102.94 147.36,103.61 147.41,104.01C147.61,104.14 147.83,104.24 148.05,104.33C148.28,104.42 148.59,104.42 149,104.35C148.95,103.95 148.87,103.52 148.77,103.06C148.68,102.6 148.58,101.97 148.48,101.16" style="fill:white;fill-rule:nonzero;"/>
    <path d="M170.94,95.09C170.64,94.79 170.25,94.52 169.78,94.27C169.31,94.03 168.8,93.82 168.24,93.63C167.68,93.44 167.12,93.29 166.53,93.17C165.95,93.06 165.42,92.99 164.94,92.96C164.86,93.11 164.72,93.26 164.52,93.42C164.42,93.52 164.32,93.6 164.22,93.65C164.32,93.73 164.41,93.81 164.48,93.9C164.56,93.99 164.63,94.08 164.71,94.18C164.79,94.28 164.86,94.4 164.94,94.52C164.81,95.2 164.72,96.06 164.67,97.1C164.62,98.14 164.63,99.33 164.71,100.67C164.71,100.72 164.73,100.78 164.73,100.84C164.59,100.83 164.4,100.83 164.14,100.83C163.58,100.91 163.14,100.8 162.81,100.51C162.48,100.22 162.23,99.83 162.05,99.35C161.87,98.87 161.75,98.33 161.69,97.74C161.63,97.15 161.57,96.58 161.52,96.05C161.47,95.52 161.41,95.06 161.33,94.66C161.25,94.27 161.11,94.03 160.91,93.96C160.48,93.78 160.08,93.84 159.7,94.15C159.32,94.45 158.97,94.88 158.64,95.42C158.31,95.97 158,96.57 157.71,97.24C157.42,97.91 157.16,98.52 156.93,99.08C156.88,98.37 156.84,97.68 156.82,96.99C156.79,96.31 156.78,95.69 156.76,95.13C156.75,94.57 156.72,94.1 156.68,93.71C156.64,93.32 156.6,93.06 156.55,92.93C156.32,92.5 156.07,92.29 155.79,92.29C155.51,92.29 155.22,92.43 154.92,92.72C154.62,93.01 154.31,93.4 153.99,93.9C153.67,94.39 153.38,94.92 153.12,95.49C152.85,96.06 152.62,96.62 152.42,97.18C152.22,97.74 152.06,98.22 151.97,98.62C151.97,96.93 152.02,95.51 152.12,94.37C152.22,93.23 152.25,92.33 152.2,91.68C152.15,91.63 152.05,91.55 151.92,91.43C151.78,91.32 151.64,91.23 151.5,91.18C151.36,91.13 151.23,91.12 151.1,91.16C150.97,91.2 150.91,91.33 150.91,91.56C150.89,92.5 150.85,93.6 150.82,94.86C150.78,96.13 150.74,97.36 150.71,98.58C150.67,99.79 150.63,100.88 150.6,101.83C150.56,102.78 150.52,103.42 150.47,103.75C150.6,103.98 150.75,104.2 150.92,104.41C151.1,104.62 151.4,104.68 151.83,104.58C151.88,103.85 152,103.03 152.19,102.13C152.38,101.23 152.61,100.33 152.89,99.44C153.17,98.54 153.49,97.67 153.86,96.84C154.23,96 154.62,95.26 155.05,94.6C155.25,94.37 155.39,94.34 155.47,94.49C155.54,94.64 155.59,94.92 155.62,95.32C155.65,95.73 155.65,96.21 155.62,96.78C155.59,97.35 155.58,97.94 155.56,98.54C155.55,99.15 155.55,99.75 155.56,100.34C155.57,100.93 155.63,101.43 155.73,101.84C155.8,102.12 155.98,102.31 156.26,102.41C156.54,102.51 156.74,102.45 156.87,102.22C156.97,101.89 157.12,101.47 157.31,100.95C157.5,100.43 157.72,99.89 157.97,99.34C158.22,98.79 158.49,98.26 158.77,97.77C159.05,97.28 159.31,96.87 159.55,96.54C159.79,96.21 159.99,96.02 160.16,95.97C160.32,95.92 160.43,96.06 160.48,96.39C160.53,97.15 160.63,97.92 160.76,98.69C160.9,99.46 161.14,100.12 161.48,100.66C161.82,101.2 162.29,101.56 162.88,101.72C163.4,101.87 164.06,101.76 164.84,101.41C164.87,101.53 164.89,101.64 164.92,101.76C165.03,102.18 165.2,102.58 165.43,102.96C165.66,103.34 165.96,103.66 166.34,103.93C166.72,104.2 167.19,104.33 167.74,104.33C168.07,104.33 168.42,104.14 168.8,103.76C169.18,103.38 169.53,102.9 169.86,102.32C170.19,101.74 170.49,101.09 170.75,100.37C171.02,99.65 171.21,98.95 171.34,98.26C171.47,97.58 171.5,96.95 171.45,96.38C171.42,95.79 171.24,95.37 170.94,95.09M170.27,98.34C170.18,98.93 169.99,99.57 169.68,100.24C169.38,100.91 168.92,101.56 168.31,102.19C168.08,102.42 167.87,102.56 167.66,102.61C167.46,102.66 167.26,102.65 167.07,102.59C166.88,102.53 166.72,102.44 166.6,102.32C166.47,102.21 166.37,102.1 166.29,102C166.19,101.82 166.1,101.49 166.01,101C165.92,100.51 165.87,99.93 165.86,99.26C165.85,98.59 165.89,97.85 165.99,97.04C166.09,96.23 166.27,95.42 166.52,94.61C167.05,94.76 167.48,94.88 167.81,94.97C168.14,95.06 168.41,95.14 168.63,95.22C168.84,95.29 169.02,95.38 169.16,95.47C169.3,95.56 169.47,95.67 169.67,95.79C169.92,95.99 170.11,96.32 170.22,96.78C170.35,97.22 170.36,97.74 170.27,98.34" style="fill:white;fill-rule:nonzero;"/>
    <path d="M184.02,98.39C183.64,98.57 183.3,98.73 183.01,98.86C182.72,99 182.43,99.15 182.16,99.32C181.88,99.48 181.57,99.66 181.21,99.85C180.86,100.04 180.43,100.27 179.92,100.55C179.52,100.27 179,99.99 178.37,99.72C177.74,99.44 177.1,99.13 176.47,98.79C175.84,98.45 175.26,98.06 174.74,97.63C174.22,97.2 173.86,96.7 173.66,96.11C173.46,95.53 173.56,95.04 173.96,94.63C174.37,94.23 174.9,93.94 175.57,93.78C176.24,93.62 176.97,93.57 177.75,93.65C178.53,93.73 179.2,93.94 179.76,94.3C179.96,94.43 180.17,94.55 180.39,94.68C180.6,94.81 180.73,94.82 180.75,94.72C180.62,94.52 180.49,94.3 180.35,94.07C180.21,93.84 180.02,93.62 179.78,93.41C179.54,93.2 179.21,93 178.79,92.82C178.37,92.64 177.85,92.5 177.22,92.4C176.54,92.3 175.89,92.34 175.27,92.53C174.65,92.72 174.11,93.01 173.64,93.4C173.17,93.79 172.82,94.25 172.58,94.77C172.34,95.29 172.27,95.83 172.37,96.38C172.42,96.89 172.72,97.39 173.28,97.9C173.84,98.41 174.46,98.88 175.16,99.32C175.86,99.76 176.53,100.17 177.19,100.53C177.85,100.9 178.29,101.21 178.52,101.46C178.19,101.74 177.81,102.05 177.38,102.41C176.95,102.77 176.57,103.14 176.24,103.53C175.91,103.92 175.68,104.33 175.54,104.74C175.4,105.16 175.47,105.57 175.75,105.97C176,106.27 176.34,106.48 176.77,106.58C177.2,106.68 177.59,106.67 177.95,106.54C178.48,106.36 179.06,106.05 179.7,105.59C180.33,105.14 180.9,104.5 181.41,103.69C181.59,103.36 181.64,103.04 181.58,102.72C181.52,102.4 181.41,102.11 181.26,101.83C181.08,101.53 180.84,101.24 180.54,100.96C181.1,100.61 181.61,100.28 182.09,99.97C182.57,99.67 182.9,99.45 183.08,99.32C183.43,99.07 183.69,98.87 183.86,98.73C184.02,98.59 184.13,98.49 184.16,98.43C184.2,98.37 184.2,98.34 184.16,98.34C184.12,98.35 184.07,98.37 184.02,98.39M180.15,103.29C180.07,103.52 179.92,103.78 179.67,104.07C179.43,104.36 179.15,104.63 178.84,104.87C178.52,105.11 178.19,105.29 177.83,105.42C177.48,105.55 177.16,105.55 176.88,105.42C176.7,105.27 176.68,105.04 176.8,104.74C176.93,104.44 177.12,104.12 177.39,103.79C177.66,103.46 177.97,103.14 178.32,102.82C178.67,102.5 178.99,102.24 179.27,102.04C179.5,102.19 179.72,102.39 179.93,102.63C180.16,102.86 180.23,103.08 180.15,103.29" style="fill:white;fill-rule:nonzero;"/>
    <path d="M205.65,95.09C205.35,94.79 204.96,94.52 204.49,94.27C204.02,94.03 203.51,93.82 202.95,93.63C202.39,93.44 201.83,93.29 201.24,93.17C200.66,93.06 200.13,92.99 199.65,92.96C199.57,93.11 199.43,93.26 199.23,93.42C199.13,93.52 199.03,93.6 198.93,93.65C199.03,93.73 199.12,93.81 199.19,93.9C199.27,93.99 199.34,94.08 199.42,94.18C199.5,94.28 199.57,94.4 199.65,94.52C199.53,95.18 199.44,96 199.39,96.99C199.25,97.11 199.1,97.26 198.93,97.46C198.7,97.72 198.4,98.05 198.04,98.45C197.67,98.84 197.21,99.3 196.66,99.83C196.28,100.13 195.91,100.43 195.56,100.72C195.21,101.01 194.84,101.28 194.46,101.54C194.08,101.79 193.68,102.01 193.25,102.18C192.82,102.36 192.33,102.5 191.77,102.6C191.49,102.57 191.28,102.49 191.14,102.35C191,102.21 190.89,102.05 190.82,101.88C190.57,101.02 190.53,100.27 190.7,99.64C190.88,99.01 191.17,98.26 191.57,97.4C191.95,96.62 192.38,95.98 192.86,95.5C193.34,95.02 193.78,94.63 194.19,94.34C194.59,94.05 194.93,93.83 195.2,93.68C195.47,93.53 195.59,93.38 195.56,93.23C195.05,93.13 194.54,93.13 194.02,93.23C193.5,93.33 192.94,93.6 192.33,94.03C191.9,94.39 191.46,94.94 191,95.7C190.55,96.46 190.17,97.28 189.86,98.17C189.56,99.06 189.37,99.95 189.29,100.84C189.21,101.74 189.33,102.5 189.63,103.14C189.88,103.67 190.15,103.97 190.45,104.05C190.74,104.13 191.11,104.18 191.57,104.2C192.71,104.02 193.77,103.57 194.76,102.85C195.75,102.13 196.61,101.36 197.36,100.54C198.11,99.72 198.71,98.94 199.18,98.21C199.25,98.11 199.3,98.02 199.36,97.92C199.34,98.75 199.37,99.67 199.42,100.68C199.44,100.98 199.51,101.34 199.63,101.76C199.74,102.18 199.91,102.58 200.14,102.96C200.37,103.34 200.67,103.66 201.05,103.93C201.43,104.2 201.9,104.33 202.45,104.33C202.78,104.33 203.13,104.14 203.51,103.76C203.89,103.38 204.24,102.9 204.57,102.32C204.9,101.74 205.2,101.09 205.46,100.37C205.73,99.65 205.92,98.95 206.05,98.26C206.18,97.58 206.21,96.95 206.16,96.38C206.13,95.79 205.95,95.37 205.65,95.09M204.98,98.34C204.89,98.93 204.7,99.57 204.39,100.24C204.09,100.91 203.63,101.56 203.02,102.19C202.79,102.42 202.58,102.56 202.38,102.61C202.18,102.66 201.98,102.65 201.79,102.59C201.6,102.53 201.44,102.44 201.32,102.32C201.19,102.21 201.09,102.1 201.01,102C200.91,101.82 200.82,101.49 200.73,101C200.64,100.51 200.59,99.93 200.58,99.26C200.57,98.59 200.61,97.85 200.71,97.04C200.81,96.23 200.99,95.42 201.24,94.61C201.77,94.76 202.2,94.88 202.53,94.97C202.86,95.06 203.13,95.14 203.35,95.22C203.56,95.29 203.74,95.38 203.88,95.47C204.02,95.56 204.19,95.67 204.39,95.79C204.64,95.99 204.83,96.32 204.94,96.78C205.06,97.22 205.07,97.74 204.98,98.34" style="fill:white;fill-rule:nonzero;"/>
    <path d="M217.16,102.43C217,102.42 216.78,102.37 216.52,102.3C216.25,102.22 215.98,102.1 215.69,101.92C215.4,101.74 215.18,101.47 215.03,101.09C214.68,100.26 214.45,99.46 214.35,98.7C214.25,97.94 214.15,97.25 214.05,96.63C213.95,96.01 213.78,95.46 213.56,94.98C213.33,94.5 212.94,94.13 212.39,93.88C212.14,93.78 211.86,93.85 211.57,94.11C211.28,94.36 210.99,94.71 210.72,95.15C210.44,95.59 210.18,96.1 209.94,96.67C209.7,97.24 209.48,97.78 209.28,98.28C209.08,98.79 208.92,99.24 208.81,99.63C208.7,100.02 208.64,100.27 208.64,100.37C208.66,99.91 208.68,99.4 208.7,98.81C208.71,98.23 208.72,97.61 208.74,96.95C208.75,96.29 208.76,95.61 208.78,94.9C208.79,94.19 208.8,93.48 208.8,92.78C208.7,92.78 208.57,92.73 208.42,92.63C208.27,92.53 208.12,92.43 207.98,92.33C207.84,92.23 207.71,92.18 207.6,92.18C207.49,92.18 207.43,92.29 207.43,92.52C207.51,93.99 207.56,95.71 207.6,97.7C207.64,99.69 207.59,101.79 207.47,104.02C207.67,104.3 207.82,104.42 207.91,104.4C208,104.37 208.23,104.36 208.61,104.36C208.63,104.26 208.71,103.98 208.84,103.53C208.97,103.08 209.14,102.53 209.35,101.9C209.57,101.27 209.8,100.59 210.05,99.87C210.3,99.15 210.57,98.49 210.85,97.88C211.13,97.27 211.4,96.77 211.67,96.36C211.94,95.96 212.18,95.74 212.41,95.72C212.56,95.72 212.7,95.95 212.83,96.42C212.96,96.89 213.1,97.46 213.27,98.13C213.43,98.8 213.62,99.5 213.82,100.22C214.02,100.94 214.28,101.56 214.6,102.08C214.92,102.6 215.3,102.93 215.76,103.09C216.21,103.24 216.76,103.08 217.39,102.6C217.38,102.49 217.32,102.45 217.16,102.43" style="fill:white;fill-rule:nonzero;"/>
    <path d="M227.95,98.39C227.57,98.57 227.23,98.73 226.94,98.86C226.65,99 226.36,99.15 226.09,99.32C225.81,99.48 225.49,99.66 225.14,99.85C224.79,100.04 224.36,100.27 223.85,100.55C223.44,100.27 222.93,99.99 222.29,99.72C221.66,99.44 221.03,99.13 220.39,98.79C219.76,98.45 219.18,98.06 218.66,97.63C218.14,97.2 217.78,96.7 217.58,96.11C217.38,95.53 217.48,95.04 217.88,94.63C218.28,94.23 218.82,93.94 219.49,93.78C220.16,93.62 220.89,93.57 221.67,93.65C222.45,93.73 223.12,93.94 223.68,94.3C223.88,94.43 224.09,94.55 224.31,94.68C224.53,94.81 224.64,94.82 224.67,94.72C224.54,94.52 224.41,94.3 224.27,94.07C224.13,93.84 223.94,93.62 223.7,93.41C223.46,93.2 223.13,93 222.71,92.82C222.29,92.64 221.77,92.5 221.14,92.4C220.46,92.3 219.81,92.34 219.19,92.53C218.57,92.72 218.03,93.01 217.56,93.4C217.09,93.79 216.74,94.25 216.5,94.77C216.26,95.29 216.19,95.83 216.29,96.38C216.34,96.89 216.64,97.39 217.2,97.9C217.76,98.41 218.38,98.88 219.08,99.32C219.78,99.76 220.45,100.17 221.11,100.53C221.77,100.9 222.21,101.21 222.44,101.46C222.11,101.74 221.73,102.05 221.3,102.41C220.87,102.77 220.49,103.14 220.16,103.53C219.83,103.92 219.6,104.33 219.46,104.74C219.32,105.16 219.39,105.57 219.67,105.97C219.92,106.27 220.26,106.48 220.69,106.58C221.12,106.68 221.51,106.67 221.87,106.54C222.4,106.36 222.98,106.05 223.62,105.59C224.25,105.14 224.82,104.5 225.33,103.69C225.51,103.36 225.56,103.04 225.5,102.72C225.44,102.4 225.33,102.11 225.18,101.83C225,101.53 224.76,101.24 224.46,100.96C225.02,100.61 225.53,100.28 226.01,99.97C226.49,99.67 226.82,99.45 227,99.32C227.36,99.07 227.61,98.87 227.78,98.73C227.94,98.59 228.05,98.49 228.08,98.43C228.12,98.37 228.12,98.34 228.08,98.34C228.05,98.35 228,98.37 227.95,98.39M224.08,103.29C224,103.52 223.85,103.78 223.61,104.07C223.37,104.36 223.09,104.63 222.78,104.87C222.46,105.11 222.13,105.29 221.78,105.42C221.43,105.55 221.11,105.55 220.83,105.42C220.65,105.27 220.63,105.04 220.75,104.74C220.88,104.44 221.07,104.12 221.34,103.79C221.61,103.46 221.92,103.14 222.27,102.82C222.62,102.5 222.94,102.24 223.22,102.04C223.45,102.19 223.67,102.39 223.88,102.63C224.09,102.86 224.16,103.08 224.08,103.29" style="fill:white;fill-rule:nonzero;"/>
    <path d="M228.05,89.8C228.16,89.79 228.3,89.79 228.45,89.82C228.73,89.77 228.9,89.66 228.98,89.5C229.06,89.34 229.23,89.14 229.51,88.91C229.66,88.73 229.71,88.47 229.66,88.12C229.61,87.77 229.46,87.61 229.2,87.66C228.77,87.84 228.45,88.06 228.23,88.34C228.01,88.62 227.86,88.9 227.75,89.17C227.84,89.6 227.93,89.81 228.05,89.8" style="fill:white;fill-rule:nonzero;"/>
    <path d="M230.15,103.06C230.05,102.61 229.95,101.97 229.85,101.16C229.72,99.57 229.63,98.04 229.58,96.59C229.53,95.14 229.44,93.8 229.31,92.59C229.11,92.54 228.94,92.54 228.82,92.59C228.69,92.64 228.59,92.7 228.52,92.78C228.44,92.86 228.37,92.95 228.31,93.05C228.25,93.15 228.16,93.23 228.06,93.28C228.11,93.89 228.17,94.71 228.23,95.74C228.29,96.78 228.36,97.85 228.42,98.95C228.48,100.05 228.55,101.07 228.61,102C228.67,102.94 228.73,103.61 228.78,104.01C228.98,104.14 229.2,104.24 229.42,104.33C229.65,104.42 229.96,104.42 230.37,104.35C230.33,103.95 230.25,103.51 230.15,103.06" style="fill:white;fill-rule:nonzero;"/>
    <path d="M242.03,101.16C241.65,101.44 241.26,101.72 240.87,101.99C240.48,102.27 240.18,102.51 239.98,102.71C240.06,102.25 240.14,101.63 240.23,100.83C240.32,100.03 240.43,99.19 240.55,98.31C240.68,97.43 240.82,96.55 240.99,95.67C241.15,94.8 241.35,94.06 241.58,93.45C241.56,93.44 241.54,93.44 241.52,93.43C241.54,93.42 241.56,93.42 241.58,93.41C241.2,93.13 240.71,92.99 240.1,92.97C239.49,92.96 238.9,93.02 238.32,93.14C237.74,93.37 237.23,93.62 236.78,93.9C236.34,94.18 235.96,94.45 235.66,94.72C235.36,94.99 235.11,95.23 234.92,95.44C234.73,95.66 234.61,95.79 234.56,95.84C234.28,96.17 233.98,96.6 233.65,97.13C233.32,97.66 233.02,98.24 232.74,98.88C232.46,99.51 232.25,100.18 232.11,100.87C231.97,101.56 231.96,102.24 232.09,102.9C232.14,103.05 232.21,103.2 232.3,103.35C232.39,103.5 232.51,103.64 232.68,103.75C232.84,103.86 233.07,103.94 233.36,103.98C233.65,104.02 234.04,104 234.52,103.92C234.47,103.92 234.58,103.89 234.84,103.83C235.1,103.77 235.44,103.6 235.86,103.34C236.28,103.07 236.74,102.68 237.26,102.14C237.78,101.61 238.27,100.88 238.72,99.94C238.74,100.65 238.74,101.34 238.72,102.01C238.7,102.68 238.63,103.32 238.53,103.92C238.1,104.28 237.73,104.58 237.41,104.83C237.09,105.08 236.8,105.32 236.52,105.53C236.24,105.74 235.97,105.98 235.7,106.23C235.43,106.48 235.14,106.79 234.81,107.14C234.61,107.34 234.24,107.72 233.71,108.28C233.18,108.83 232.64,109.52 232.08,110.33C231.52,111.14 231.04,112.04 230.64,113.02C230.24,114.01 230.06,115 230.11,116.02C230.16,116.93 230.37,117.61 230.74,118.07C231.11,118.53 231.56,118.81 232.09,118.92C232.62,119.03 233.2,119 233.83,118.82C234.46,118.64 235.07,118.38 235.65,118.02C236.08,117.74 236.42,117.5 236.67,117.3C236.92,117.1 237.15,116.86 237.35,116.58C237.58,116.25 237.79,115.95 237.98,115.69C238.17,115.42 238.35,115.1 238.53,114.7C238.71,114.31 238.88,113.8 239.04,113.18C239.2,112.56 239.36,111.74 239.51,110.73C239.64,109.85 239.69,108.97 239.68,108.09C239.67,107.22 239.69,106.35 239.74,105.49C239.74,105.46 239.75,105.32 239.76,105.05C239.77,104.79 239.78,104.64 239.78,104.61C240.08,104.26 240.48,103.83 240.96,103.34C241.44,102.85 241.99,102.26 242.59,101.58C242.64,101.53 242.72,101.43 242.84,101.29C242.95,101.15 243.07,101.01 243.18,100.85C243.29,100.7 243.38,100.56 243.45,100.43C243.51,100.3 243.52,100.22 243.47,100.17C242.96,100.54 242.48,100.86 242.03,101.16M238.69,106.78C238.64,109.16 238.39,111.1 237.93,112.6C237.48,114.1 236.88,115.27 236.15,116.11C235.52,116.72 234.83,117.17 234.08,117.46C233.34,117.75 232.65,117.65 232.01,117.17C231.65,116.59 231.5,115.99 231.53,115.37C231.57,114.75 231.73,114.04 232.01,113.23C232.21,112.5 232.61,111.69 233.2,110.82C233.79,109.95 234.7,108.94 235.91,107.8C236.06,107.67 236.35,107.42 236.78,107.04C237.21,106.66 237.77,106.19 238.45,105.64C238.53,105.61 238.59,105.64 238.64,105.71C238.75,105.84 238.76,106.19 238.69,106.78M239.69,94.66C239.68,95.15 239.54,95.69 239.29,96.27C239.14,96.65 238.9,97.16 238.57,97.79C238.24,98.42 237.84,99.07 237.38,99.72C236.91,100.38 236.39,100.97 235.82,101.48C235.25,102 234.64,102.33 233.98,102.49C233.75,102.54 233.56,102.53 233.41,102.45C233.26,102.37 233.17,102.29 233.14,102.18C233.11,102.03 233.1,101.81 233.1,101.53C233.1,101.25 233.16,100.92 233.27,100.53C233.39,100.14 233.57,99.67 233.82,99.13C234.07,98.59 234.44,97.97 234.92,97.29C235.98,96 236.97,95.13 237.88,94.67C238.66,94.28 239.25,94.11 239.68,94.13C239.7,94.25 239.7,94.42 239.69,94.66" style="fill:white;fill-rule:nonzero;"/>
    <path d="M250.33,96.36C250.28,95.79 250.1,95.37 249.8,95.09C249.5,94.79 249.11,94.52 248.64,94.27C248.17,94.03 247.66,93.82 247.1,93.63C246.54,93.44 245.98,93.29 245.39,93.17C244.81,93.06 244.28,92.99 243.8,92.96C243.72,93.11 243.59,93.26 243.38,93.42C243.28,93.52 243.18,93.6 243.08,93.65C243.18,93.73 243.27,93.81 243.34,93.9C243.42,93.99 243.49,94.08 243.57,94.18C243.65,94.28 243.72,94.4 243.8,94.52C243.67,95.2 243.59,96.06 243.53,97.1C243.48,98.14 243.49,99.33 243.57,100.67C243.6,100.97 243.67,101.33 243.78,101.75C243.89,102.17 244.06,102.57 244.29,102.95C244.52,103.33 244.82,103.65 245.2,103.92C245.58,104.19 246.05,104.32 246.6,104.32C246.93,104.32 247.28,104.13 247.66,103.75C248.04,103.37 248.39,102.89 248.72,102.31C249.05,101.73 249.35,101.08 249.61,100.36C249.88,99.64 250.07,98.94 250.2,98.25C250.35,97.56 250.38,96.93 250.33,96.36M249.14,98.34C249.05,98.93 248.86,99.57 248.55,100.24C248.24,100.91 247.79,101.56 247.18,102.19C246.95,102.42 246.74,102.56 246.54,102.61C246.34,102.66 246.14,102.65 245.95,102.59C245.76,102.53 245.6,102.44 245.47,102.32C245.34,102.21 245.24,102.1 245.17,102C245.07,101.82 244.98,101.49 244.89,101C244.8,100.51 244.75,99.93 244.74,99.26C244.73,98.59 244.77,97.85 244.87,97.04C244.97,96.23 245.15,95.42 245.4,94.61C245.93,94.76 246.36,94.88 246.69,94.97C247.02,95.06 247.29,95.14 247.5,95.22C247.71,95.29 247.89,95.38 248.03,95.47C248.17,95.56 248.34,95.67 248.54,95.79C248.79,95.99 248.98,96.32 249.09,96.78C249.21,97.22 249.23,97.74 249.14,98.34" style="fill:white;fill-rule:nonzero;"/>
    <path d="M148.24,86.73C147.78,86.73 146.81,88.41 146.81,88.41L146.81,88.43C146.63,88.68 146.48,88.93 146.39,89.17C146.47,89.6 146.56,89.81 146.67,89.8C146.78,89.79 146.92,89.79 147.07,89.82C147.35,89.77 147.53,89.66 147.6,89.5C147.66,89.37 147.79,89.21 147.98,89.04C148.02,89.01 148.06,88.99 148.08,88.98C148.19,88.94 148.46,88.71 148.56,88.6C148.66,88.49 148.94,87.94 149.02,87.83C149.1,87.71 149.05,87.26 149.02,87.09C149,86.93 148.69,86.73 148.24,86.73" style="fill:white;fill-rule:nonzero;"/>
</svg>
