<?xml version="1.0" encoding="UTF-8"?>
<svg id="Camada_1" data-name="Camada 1" xmlns="http://www.w3.org/2000/svg" version="1.1" viewBox="0 0 749.3 382.6">
  <defs>
    <style>
      .cls-1 {
        fill: #fff;
        stroke-width: 0px;
      }
    </style>
  </defs>
  <path class="cls-1" d="M500.3,0c.3.5.7,1,1.1,1.7-.7.7-1.3,1.3-2,1.9-1.7,1.4-2.5,3.1-2.4,5.2,0,.7,0,1.4,0,2.2,0,80.2,0,160.4,0,240.6,0,1.7,0,3.5.5,5.2,1.1,4.8,5.4,8.5,10.6,8.3,5-.2,10.1,0,15.1,0,4.4,0,8.6.4,12.8,1.6.3,0,.6.2.9.2.1,0,.3,0,.6-.1,0-.5.2-1,.2-1.5.4-7.9,1.2-15.7,2.8-23.5,2.8-13.4,7.6-26,14.4-37.9,4.6-8.1,10.1-15.5,16.1-22.6,2.1-2.5,4.2-5.1,6.5-7.4,10.4-10.3,21.9-19.1,36-23.9,5.2-1.8,10.6-2.8,16.2-2.9,6.8,0,13.5,4.5,15.7,10.9,1.1,3.3,1.7,6.8,2.1,10.3,1.2,11-1.3,21.5-4.6,32-2.1,6.6-4.7,12.9-7.8,19.1-6.2,12.1-13.5,23.5-22.3,33.9-4.7,5.6-9.7,10.8-15,15.8-6.2,5.7-12.8,11-20.5,14.9-1.6.8-3.1,1.6-4.7,2.4-.7.4-1.4.8-2.1,1.2.1.8.1,1.4.3,2,3.4,13.5,8.6,26.1,17.1,37.2,9,11.8,20.7,19.7,35,23.9,5.9,1.7,11.8,2.5,17.9,2.9,8.5.5,16.9-.2,25.2-2.1,11.1-2.5,21-7.5,29.4-15.4,4.3-4,8.1-8.3,11.2-13.3,3.9-6.2,6.6-12.8,8-19.9.7-3.8,1.2-7.7,2-11.6.5-2.3,1.2-4.6,2.1-6.8,2.1-5.2,6.2-7.8,11.7-8.2,4.2-.3,8.4-.5,12.7-.5,2,0,4.1.6,6.1.9v1.9c-1.7,2.2-2.3,4.8-2.8,7.3-.8,4.1-1.4,8.3-1.9,12.5-1.4,11.3-3.6,22.4-8.1,32.9-4.1,9.5-9.8,17.9-17.3,25.1-6,5.7-12.6,10.5-20,14.4-8.5,4.5-17.4,7.7-26.8,9.5-4.5.9-9.1,1.5-13.8,1.8-5.6.4-11.2.6-16.7.5-14.3-.2-28.1-3-41.3-8.4-8.8-3.7-16.9-8.6-24.2-14.9-6.1-5.2-11.5-11.1-16.1-17.6-9.6-13.4-15.7-28.3-19.4-44.3-.2-.7-.4-1.4-.6-2.1,0-.1-.2-.3-.5-.7-.8,0-1.9-.2-3-.2-10.4,0-20.8.1-31.2,0-6.8-.1-13.5-1.1-19.7-4.3-7-3.6-11.6-9.2-14.4-16.3-2.7-6.9-3.8-14.1-3.8-21.6,0-76.1,0-152.3,0-228.4,0-3.5.4-6.8,1.3-10.2,2-7,6.6-11.3,13.7-13,.6-.1,1.2-.4,1.8-.6,5.3,0,10.6,0,15.8,0ZM568.7,255c1.8-1.2,3.1-2,4.4-3,5.3-4.2,9.6-9.3,13.8-14.6,3.5-4.4,6.7-9,9.9-13.5,5.5-7.8,10.5-15.8,14.2-24.6,1.3-3.2,2.3-6.6,3.3-10,.4-1.4.6-2.9-.8-4-1.6-.4-3,.1-4.3.9-1.6,1-3.3,2-4.8,3.2-7.8,6.3-14.3,13.7-19.7,22.1-5.6,8.5-9.8,17.7-12.8,27.5-1.5,5-2.7,10.2-3.1,16.1Z"/>
  <path class="cls-1" d="M43.7,0c0,75,0,150,0,225,0,7.9,1.1,15.7,2.7,23.5,1.4,7.2,3.5,14.1,6.8,20.7,1.7,3.5,3.7,6.9,6.4,9.8.3.3.5.8.7,1.1-.8,1.8-17.8,19-20.3,20.4-.9-.9-2-1.8-2.9-2.9-5.1-6.1-9.1-12.9-12.1-20.3-4.8-11.6-7.8-23.6-9.2-36.1-.8-7.5-1.4-14.9-1.4-22.4,0-59.3,0-118.7,0-178,0-.9,0-1.8,0-2.6,0-2.9.9-5.3,3.3-7.1.3-.2.6-.5.9-.8,0,0,0-.1.1-.4-1-1.1-2.4-1-3.6-1-4.5,0-9,0-13.4,0-.6,0-1.1,0-1.7,0V0h43.7Z"/>
  <path class="cls-1" d="M241.8,222.8c0,41.4-33.5,74.8-74.6,74.8-20.8,0-38.6-7.6-53.2-22.2-14.4-14.4-21.7-32.2-21.7-52.4,0-21.8,8.2-40.5,24.5-55.3,14.4-13,31.2-19.2,50.7-19.3,40-.2,74.3,32.8,74.2,74.3ZM212.5,223.1c.8-24.2-19.9-45.6-45-45.8-25.4-.1-46,20.3-46.1,45.4,0,24.7,19.4,46,45.8,46,26,0,45.9-21.9,45.3-45.6Z"/>
  <path class="cls-1" d="M390.1,152.5c2.5-.7,26-.7,28.3,0,0,.7.3,1.6.3,2.4,0,27.4.1,54.8,0,82.2,0,7.9-2.2,15.5-5.4,22.7-3.7,8.3-9,15.5-15.8,21.5-6.2,5.5-13.2,9.8-21.1,12.6-7.5,2.6-15.1,4-23,3.9-7.9-.2-15.5-1.9-22.9-4.8-6.4-2.5-12.2-6.1-17.3-10.5-6.1-5.2-11.2-11.4-15-18.5-4.2-7.7-6.4-16-7.4-24.6-.1-1,0-2.1,0-3.1,0-14.9,0-29.7,0-44.6,0-3.7.5-6.8,3.9-8.9.2-.1.3-.5.5-1-6.2-1.5-12.3-.7-18.2-1.1-.8-2.4-.9-26.1-.1-28.2,1.8-.6,39.4-.8,42.4,0,0,.9.3,2,.3,3.1,0,14.9,0,29.9,0,44.8,0,10.3,0,20.6,0,30.9,0,5.7.8,11.3,3.2,16.6,1.5,3.4,3.4,6.5,6,9.1,2.7,2.8,5.6,5.5,9.1,7.4,4.4,2.3,8.9,3.8,13.9,4.2,6.1.5,11.8-.5,17.3-2.9,4.1-1.8,7.5-4.4,10.7-7.6,4.6-4.5,7.6-9.9,9-16.1.8-3.6,1.3-7.3,1.3-10.9.1-25,0-50,0-75,0-1.2.1-2.3.2-3.6Z"/>
  <path class="cls-1" d="M638.3,110.7c4.3-1.2,6.4-4.6,8.8-7.7,5.5-6.8,10.6-14,16.4-20.6,5.9-6.7,13-9.2,21.5-5.6,4.3,1.8,8.2,4.3,11.8,7.2,1.1.9,2.4,1.7,2.4,3.5-.4.2-.8.6-1.2.6-1.8.2-3,1.2-4.1,2.6-5,6.9-10,13.9-15.1,20.7-2.8,3.7-5.5,7.4-9.4,10.2-.1,0-.3.2-.4.3-5.6,4.3-11.4,4.5-17.4,1.1-3.8-2.2-7.4-4.7-10.6-7.7-1.2-1.1-2.6-2.4-2.8-4.6Z"/>
</svg>