<?xml version="1.0" encoding="UTF-8" standalone="no"?>
<!DOCTYPE svg PUBLIC "-//W3C//DTD SVG 1.1//EN" "http://www.w3.org/Graphics/SVG/1.1/DTD/svg11.dtd">
<svg width="100%" height="100%" viewBox="0 0 735 145" version="1.1" xmlns="http://www.w3.org/2000/svg" xmlns:xlink="http://www.w3.org/1999/xlink" xml:space="preserve" xmlns:serif="http://www.serif.com/" style="fill-rule:evenodd;clip-rule:evenodd;stroke-linejoin:round;stroke-miterlimit:2;">
    <path d="M310.3,139.8L310.3,123.7C315.1,124.8 319.8,126.2 324.6,126.8C331.6,127.8 338.6,127.2 345.1,124C352,120.6 355.4,115.1 355.6,107.5L355.6,100.9C354.8,101.3 354.5,101.3 354.4,101.5C348.2,111.9 331.4,116.4 317.5,111.8C301.8,106.7 291.8,93.6 290.4,76.4C289.5,64.5 291.6,53.3 299.3,43.7C310.4,29.9 330.7,25.4 345.5,33.8C348.7,35.6 351.1,38.6 353.9,41.1C354.2,41.4 354.5,41.8 355.4,42.7L355.4,31.4L376.1,31.4C376.1,32.4 376.2,33.3 376.2,34.1C376.2,57.8 376.3,81.4 376.2,105.1C376.2,110 375.6,115.1 374.2,119.9C371.4,129.9 364.6,136.8 355,140.6C341.3,146 327.4,146 313.5,141.3C312.4,140.9 311.4,140.3 310.3,139.8ZM356,71.7C356,57.8 346.8,48.2 333.4,48.1C320.2,48.1 310.7,57.8 310.7,71.4C310.7,85.1 320.1,95.1 333.3,95.1C346.7,95.1 356,85.6 356,71.7Z" style="fill:white;fill-rule:nonzero;"/>
    <path d="M65.2,41.5L65.2,1.9L85.9,1.9L85.9,112L65.4,112L65.4,101.1C63.6,103 62.4,104.7 60.9,106C50.9,114.2 39.4,115.7 27.5,111.9C11.2,106.7 2.5,94.7 0.5,78.1C-1.1,65.3 1.2,53.2 9.9,42.9C20.8,30 40.2,25.9 54.9,33.3C58.9,35.3 62.3,38 65.3,41.5L65.2,41.5ZM20.5,71.7C20.5,78.2 22.6,83.9 26.4,88C34.8,97 49.6,97.6 58.7,89.4C67.6,81.3 68.5,64.9 60.5,55.8C54.4,48.8 44.1,46.3 34.9,49.7C25.8,53.1 20.5,61.2 20.6,71.8L20.5,71.7Z" style="fill:white;fill-rule:nonzero;"/>
    <path d="M178.5,79.7L117.9,79.7C118.9,84.1 121,87.5 124.1,90.3C130.6,96.1 138.4,97.3 146.7,96.6C153,96 158.6,93.7 163.6,89.5C166.8,92.9 169.8,96.1 173,99.5C167.8,105.9 161.2,109.9 153.4,112C140.5,115.4 128,114.4 116.6,107.1C102.2,97.9 97.2,84 98.4,67.5C99.4,54.4 105.1,43.8 116.2,36.4C133.9,24.7 159.4,28.7 171.4,45.3C178.8,55.6 179.9,67.2 178.4,79.7L178.5,79.7ZM117.8,64.4L159.9,64.4C159.2,54.7 151.1,47.5 140.5,47.1C129,46.7 119.3,54 117.8,64.4Z" style="fill:white;fill-rule:nonzero;"/>
    <path d="M413.1,112L392.5,112L392.5,31.4L413.1,31.4L413.1,41.5C413.6,41.2 413.9,41.2 414,41C421,31.6 430.7,28.7 441.8,29.8C456.6,31.3 466.1,41.1 468.1,56.7C468.4,58.8 468.6,61 468.6,63.2L468.6,111.9L448,111.9L448,67.9C448,63.1 447.1,58.6 444.3,54.7C440.1,49.1 434.3,47.5 427.7,48.4C420.7,49.4 416.3,53.6 414.4,60.3C413.7,62.7 413.4,65.4 413.4,67.9L413.4,109.1C413.4,114.185 413.4,111.271 413.4,111.9L413.1,112Z" style="fill:white;fill-rule:nonzero;"/>
    <path d="M625,52L599,52C594.2,39.7 589.4,27.3 584.4,14.3C582.1,20.3 580.1,25.6 578,31.1C582.3,42.5 586.7,53.9 591.1,65.6L510.9,65.6L510.9,112L489.9,112L489.9,1.8L570.7,1.8C570.2,3.2 569.7,4.6 569.2,6.1L494.3,6.1L494.3,107.4L506.3,107.4L506.3,61.2L584.7,61.2C580.8,50.9 577,41 573.2,31C576.9,21.4 580.5,11.8 584.4,1.7C590.4,17.3 596.2,32.3 602.1,47.4L621.1,47.4C626.5,13.9 657.2,-4.4 687.7,0.9C717.3,6.1 736.3,30.8 734.3,61.3C732.4,90.4 709.8,112.4 680.4,113.6C649.6,114.9 628.7,94.6 623.6,74.9L628,74.9C633.4,89.8 643.6,100.4 658.6,105.9C671.2,110.5 683.9,110.4 696.5,105.9C720.2,97.3 733.6,73.2 729.1,47.5C724.8,22.7 704.1,5.2 679.2,4.5C652.9,3.9 628.1,21.2 625,52Z" style="fill:white;fill-rule:nonzero;"/>
    <path d="M184.2,91.1C189.8,89.6 195,88.2 200.6,86.7C201,87.6 201.3,88.4 201.7,89.2C204.9,96.2 212.6,99.3 219.7,96.3C225.7,93.7 226.7,86.5 221.4,82.7C219.4,81.2 216.9,80.3 214.5,79.3C209.1,76.9 203.3,75.2 198.3,72.3C185.5,64.8 183,48.4 192.8,38.1C197.6,33.1 203.8,30.7 210.6,30C220.4,29 229.3,30.9 236.5,38.2C239.7,41.5 242,46 242.6,50.3C237.4,51.6 232.1,53 226.9,54.3C226.1,52.9 225.5,51.6 224.7,50.4C221.8,46.1 216.1,44.5 211.4,46.6C206.2,48.9 205.4,55.1 209.9,58.6C211.7,60 214,60.9 216.1,61.8C221.7,64.2 227.5,66.1 232.9,68.8C241.2,73 245.6,79.8 245.4,89.3C245.2,99 240.5,106.1 231.8,110C220.2,115.2 208.3,115.4 196.9,109.4C189.7,105.7 185.9,99.3 184.4,91.1L184.2,91.1Z" style="fill:white;fill-rule:nonzero;"/>
    <path d="M602.5,61.3L642.1,61.3C642.6,63.4 643,65.6 643.5,67.6C647.6,83.7 662.1,94.3 678.8,93.6C695.3,92.9 708.9,81.2 711.7,64.9C713.8,52.7 712,41.3 703.6,31.9C693.9,21 681.5,17.7 667.7,21.5C653.5,25.4 645.4,35.4 642.7,49.8C642.6,50.5 642.4,51.3 642.3,52.1L638,52.1C638.5,45.8 640.3,40 643.5,34.7C652.2,20 669.7,12.8 686.4,16.7C703.3,20.7 715.3,34.7 716.7,51.9C717.7,64.1 715.3,75.4 707.1,84.7C696.5,96.6 683,100.5 667.7,96.8C652.8,93.3 643.5,83.4 639.3,68.8C639,67.9 638.8,67 638.6,66.1C638.6,66.1 638.6,66 638.3,65.7L609.2,65.7C615.1,81.1 621,96.4 627,111.9L604.2,111.9C600.1,101.1 595.9,90.2 591.7,79.2L555.1,79.2C555.7,77.6 556.1,76.3 556.6,74.9L594.8,74.9C598.9,85.7 603.1,96.5 607.3,107.5L620.5,107.5C614.6,92.1 608.7,76.8 602.7,61.3L602.5,61.3Z" style="fill:white;fill-rule:nonzero;"/>
    <rect x="257.4" y="31.4" width="20.4" height="80.7" style="fill:white;fill-rule:nonzero;"/>
    <path d="M553.2,47.5C552.5,49.3 552,50.6 551.5,52L506.6,52L506.6,16.5L565.2,16.5C564.6,18 564.1,19.4 563.5,21L511.1,21L511.1,47.5L553.3,47.5L553.2,47.5Z" style="fill:white;fill-rule:nonzero;"/>
    <rect x="257.4" y="1.8" width="20.5" height="17.7" style="fill:white;fill-rule:nonzero;"/>
</svg>
