<?xml version="1.0" encoding="UTF-8" standalone="no"?>
<!DOCTYPE svg PUBLIC "-//W3C//DTD SVG 1.1//EN" "http://www.w3.org/Graphics/SVG/1.1/DTD/svg11.dtd">
<svg width="100%" height="100%" viewBox="0 0 290 114" version="1.1" xmlns="http://www.w3.org/2000/svg" xmlns:xlink="http://www.w3.org/1999/xlink" xml:space="preserve" xmlns:serif="http://www.serif.com/" style="fill-rule:evenodd;clip-rule:evenodd;stroke-linejoin:round;stroke-miterlimit:2;">
    <g>
        <path d="M197.45,1.31L221.04,1.31L221.04,36.18C221.11,36.2 221.19,36.22 221.26,36.24C221.7,35.8 222.15,35.37 222.58,34.92C227.03,30.31 231.47,25.7 235.94,21.1C237.07,19.94 238.26,18.8 239.79,18.19C240.64,17.85 241.57,17.61 242.48,17.55C244.2,17.44 246,17.3 247.54,18.27C248.82,19.08 250.05,20.01 251.15,21.05C255.91,25.57 260.61,30.15 265.34,34.71C265.45,34.82 265.57,34.91 265.78,35.09L265.78,1.32L289.32,1.32L289.32,69C289.32,74.04 285.14,78.23 280.09,78.26C278.17,78.27 276.25,78.18 274.34,78.28C271.36,78.45 268.91,77.32 266.94,75.24C264.26,72.42 261.7,69.48 259.14,66.55C254.87,61.66 250.63,56.73 246.4,51.8C245.71,51 245.09,50.17 243.98,49.93C242.56,49.62 241.4,50.05 240.5,51.13C236.89,55.42 233.31,59.73 229.72,64.02C227.15,67.09 224.59,70.19 221.98,73.22C220.5,74.93 218.89,76.55 216.78,77.47C215.78,77.91 214.65,78.16 213.56,78.22C211.38,78.33 209.18,78.26 206.99,78.25C201.82,78.24 197.65,74.07 197.64,68.9C197.62,62.97 197.61,57.04 197.6,51.11C197.57,39.05 197.54,26.98 197.5,14.92C197.49,10.61 197.45,6.3 197.43,1.99C197.42,1.8 197.44,1.58 197.45,1.31Z" style="fill:white;fill-rule:nonzero;"/>
        <path d="M150.01,79.53C142.16,79.58 135.75,78.42 129.64,75.81C121.52,72.34 115.2,66.81 110.83,59.12C108.08,54.28 106.5,49.08 106.06,43.52C105.45,35.94 106.56,28.68 110.05,21.85C112.51,17.03 115.86,12.91 120.04,9.51C125.69,4.91 132.23,2.19 139.36,0.85C143.98,-0.02 148.64,-0.2 153.32,0.19C162.88,0.99 171.52,4.14 178.79,10.56C185.39,16.39 189.58,23.65 191.09,32.37C192.51,40.51 191.8,48.44 188.36,56.02C184.47,64.61 178.2,70.95 169.7,75C162.82,78.28 156.68,79.53 150.01,79.53ZM165.86,39.19C165.81,38.54 165.73,37.29 165.59,36.04C165.51,35.34 165.36,34.65 165.19,33.96C163.04,24.94 155.23,19.57 146.07,20.99C139.91,21.94 135.63,25.47 133.29,31.25C131.48,35.71 131.36,40.35 132.29,45.01C133.07,48.91 134.86,52.29 137.95,54.89C141.78,58.12 146.25,59.22 151.16,58.59C156.2,57.95 160.13,55.46 162.87,51.18C165.08,47.72 165.82,43.85 165.86,39.19Z" style="fill:white;fill-rule:nonzero;"/>
        <path d="M23.25,53.66L23.25,78.24L0.04,78.24C0.02,78.01 0,77.79 0,77.57L0,10.32C0,5.39 4.07,1.29 9,1.28C25.74,1.27 42.48,1.27 59.22,1.27L59.86,1.27C59.88,1.56 59.9,1.82 59.9,2.08L59.9,15.15C59.9,18.61 57.64,20.88 54.16,20.88C45.81,20.89 37.47,20.88 29.12,20.88C26.35,20.88 24.13,22.56 23.47,25.14C23.38,25.49 23.29,25.86 23.29,26.22C23.27,28.8 23.28,31.37 23.28,34.04L43.48,34.04C43.49,34.35 43.51,34.58 43.51,34.8L43.51,48.69C43.51,51.56 41.43,53.64 38.54,53.64C33.75,53.65 28.96,53.64 24.17,53.64C23.9,53.66 23.63,53.66 23.25,53.66Z" style="fill:white;fill-rule:nonzero;"/>
        <path d="M62.53,1.32L85.8,1.32L85.8,52.81C85.8,55.64 87.56,57.91 90.25,58.52C90.75,58.64 91.29,58.65 91.81,58.65C95.94,58.66 100.07,58.65 104.19,58.66C106.89,58.67 108.95,60.11 109.64,62.48C109.77,62.93 109.87,63.42 109.87,63.89C109.89,68.54 109.88,73.19 109.88,77.84C109.88,77.95 109.86,78.06 109.85,78.27L71.7,78.27C66.67,78.27 62.68,74.37 62.54,69.32C62.53,69.05 62.53,68.77 62.53,68.5L62.53,1.32Z" style="fill:white;fill-rule:nonzero;"/>
        <path d="M86.6,113.07L86.6,98.11C86.67,98.07 86.71,98.03 86.74,98.03C89.36,98.07 91.99,97.93 94.59,98.18C98.44,98.55 101.03,101.61 101.07,105.48C101.11,109.31 98.59,112.36 94.79,112.89C93.27,113.1 91.7,113.03 90.15,113.07C89,113.09 87.84,113.07 86.6,113.07ZM88.79,111.14C90.51,111.14 92.15,111.24 93.78,111.12C96.77,110.9 98.77,108.75 98.88,105.8C99,102.76 97.22,100.45 94.21,100.07C92.46,99.85 90.67,99.97 88.9,99.94C88.87,99.94 88.83,99.99 88.79,100.03L88.79,111.14Z" style="fill:white;fill-rule:nonzero;"/>
        <path d="M261.19,113.07C260.68,113.07 260.2,113.12 259.73,113.05C259.5,113.02 259.26,112.82 259.1,112.63C256.33,109.22 253.58,105.79 250.82,102.37C250.74,102.27 250.65,102.17 250.44,101.92L250.44,113.02L248.3,113.02L248.3,98.12C249.5,97.78 249.98,97.94 250.74,98.87C253.37,102.14 255.99,105.4 258.62,108.67C258.72,108.79 258.83,108.91 259.03,109.13L259.03,98.05L261.19,98.05L261.19,113.07Z" style="fill:white;fill-rule:nonzero;"/>
        <path d="M70.93,105.6C70.91,110.01 67.49,113.29 62.95,113.27C58.3,113.25 54.89,109.95 54.9,105.51C54.92,101.11 58.35,97.85 62.97,97.86C67.59,97.87 70.95,101.13 70.93,105.6ZM68.74,105.56C68.75,102.23 66.32,99.78 62.97,99.78C59.59,99.77 57.07,102.23 57.06,105.53C57.05,108.82 59.54,111.29 62.87,111.3C66.3,111.32 68.73,108.94 68.74,105.56Z" style="fill:white;fill-rule:nonzero;"/>
        <path d="M224.68,97.86C228.56,97.87 231.56,100.14 232.43,103.71C233.57,108.41 230.37,112.82 225.54,113.21C221.85,113.51 218.73,111.92 217.37,108.95C215,103.75 218.37,97.8 224.68,97.86ZM224.62,111.3C227.98,111.31 230.46,108.89 230.48,105.6C230.5,102.3 228.02,99.79 224.72,99.78C221.28,99.77 218.81,102.18 218.81,105.57C218.8,108.89 221.24,111.3 224.62,111.3Z" style="fill:white;fill-rule:nonzero;"/>
        <path d="M37.03,108.05C38.21,109.73 39.35,111.34 40.56,113.07C39.75,113.07 39.08,113.1 38.41,113.05C38.23,113.04 38.03,112.83 37.91,112.66C37.02,111.42 36.14,110.17 35.28,108.91C35.06,108.59 34.83,108.49 34.44,108.5C33.1,108.53 31.76,108.51 30.34,108.51L30.34,113.02L28.19,113.02L28.19,98.05C28.37,98.04 28.55,98.01 28.72,98.01C31.04,98.05 33.38,97.93 35.68,98.18C39.53,98.59 41.46,102.43 39.69,105.81C39.14,106.9 38.19,107.55 37.03,108.05ZM30.37,106.63C31.84,106.63 33.22,106.64 34.61,106.62C34.9,106.62 35.2,106.55 35.49,106.49C37.18,106.13 38.11,105.02 38.16,103.34C38.21,101.73 37.36,100.42 35.75,100.16C34,99.88 32.19,99.91 30.38,99.81C30.37,102.18 30.37,104.37 30.37,106.63Z" style="fill:white;fill-rule:nonzero;"/>
        <path d="M2.66,113.05L0.5,113.05L0.5,98.11C0.55,98.08 0.58,98.04 0.62,98.04C3.1,98.08 5.6,97.93 8.06,98.2C11.9,98.61 13.82,102.49 12,105.87C11.15,107.45 9.68,108.17 7.99,108.39C6.82,108.54 5.63,108.51 4.44,108.54C3.87,108.56 3.3,108.54 2.65,108.54C2.66,110.04 2.66,111.51 2.66,113.05ZM2.67,106.63C3.99,106.63 5.25,106.66 6.49,106.62C7.05,106.6 7.63,106.52 8.17,106.37C9.69,105.94 10.45,104.9 10.46,103.3C10.47,101.7 9.74,100.64 8.23,100.18C6.41,99.64 4.54,100.01 2.67,99.89L2.67,106.63Z" style="fill:white;fill-rule:nonzero;"/>
        <path d="M116.65,98.04L118.77,98.04L118.77,106.5C118.77,106.91 118.76,107.33 118.82,107.73C119.32,110.95 122.73,112.46 125.49,110.68C126.62,109.95 127.1,108.8 127.14,107.54C127.22,104.67 127.19,101.8 127.21,98.93L127.21,98.05L129.33,98.05L129.33,99.84C129.33,102.23 129.37,104.63 129.32,107.02C129.27,109.16 128.64,111.07 126.72,112.3C124.29,113.85 120.29,113.51 118.37,111.63C117.23,110.52 116.69,109.11 116.65,107.58C116.57,104.48 116.61,101.38 116.61,98.28C116.6,98.22 116.62,98.16 116.65,98.04Z" style="fill:white;fill-rule:nonzero;"/>
        <path d="M287.7,99.21C287.46,99.78 287.24,100.31 287.08,100.69C285.79,100.35 284.59,99.88 283.36,99.76C282.41,99.67 281.38,99.92 280.44,100.2C279.64,100.44 279.24,101.17 279.21,102.01C279.18,102.86 279.64,103.48 280.39,103.76C281.53,104.19 282.73,104.48 283.89,104.85C284.69,105.11 285.5,105.34 286.26,105.69C289.12,107.03 288.86,110.75 286.56,112.23C285.49,112.92 284.31,113.18 283.06,113.23C281.01,113.32 279.07,112.95 277.32,111.82C277.11,111.69 276.93,111.52 276.7,111.35C276.97,110.79 277.22,110.27 277.5,109.69C278.75,110.64 280.1,111.25 281.6,111.32C282.6,111.36 283.64,111.26 284.63,111.04C285.53,110.84 286.12,110.2 286.18,109.19C286.23,108.19 285.66,107.59 284.82,107.29C283.62,106.87 282.38,106.58 281.17,106.2C280.52,106 279.87,105.78 279.25,105.5C277.85,104.88 277.1,103.77 277.07,102.24C277.04,100.7 277.71,99.5 279.03,98.72C281.31,97.38 285.45,97.6 287.7,99.21Z" style="fill:white;fill-rule:nonzero;"/>
        <path d="M157.19,109.55C157.65,110.01 158.08,110.44 158.51,110.87C156.37,113.83 150.59,114.07 147.43,111.35C144.1,108.48 143.96,103.12 147.13,100.02C150.17,97.05 155.98,97.11 158.52,100.19C158.06,100.61 157.6,101.03 157.13,101.46C154.27,98.71 150.23,99.69 148.47,101.64C146.55,103.77 146.57,107.38 148.54,109.52C150.35,111.49 154.43,112.29 157.19,109.55Z" style="fill:white;fill-rule:nonzero;"/>
        <path d="M179.01,113.05L176.86,113.05L176.86,99.93L171.69,99.93L171.69,98.06L184.06,98.06L184.06,99.9L179.02,99.9C179.01,104.3 179.01,108.64 179.01,113.05Z" style="fill:white;fill-rule:nonzero;"/>
        <rect x="198.88" y="98.06" width="2.07" height="14.99" style="fill:white;fill-rule:nonzero;"/>
    </g>
</svg>
