<svg id="Camada_1" data-name="Camada 1" xmlns="http://www.w3.org/2000/svg" viewBox="0 0 566.9 566.9"><defs><style>.cls-1{fill:#fff;}</style></defs><path class="cls-1" d="M111.8,371.7c0,7.7.8,12.4,2.3,14.1s5.4,2.9,11.6,3.4c.6.6.9,1.8.9,3.5s-.3,2.9-.9,3.4l-21.4-.4-21.7.4c-.5-.5-.7-1.7-.7-3.4s.2-2.9.7-3.5c6.2-.5,10-1.7,11.6-3.4s2.4-6.4,2.4-14.1V334.5c0-5.4-.8-8.8-2.2-10.2s-5-2.3-10.4-2.8a8.8,8.8,0,0,1-.3-5.5c11.9-1.5,20.7-3.4,26.3-5.5,1.7,0,2.6.4,2.6,1.3a8.2,8.2,0,0,1-.1,1.4c-.1.6-.1,1.8-.2,3.5s-.1,3.6-.2,5.2-.2,3.6-.2,5.8-.1,4.1-.1,5.9ZM94.2,280.1q0-3.5,3.3-6.3a10.5,10.5,0,0,1,6.8-2.9,8.3,8.3,0,0,1,6.4,3.2,10,10,0,0,1,2.8,6.8,8.9,8.9,0,0,1-3,6.3,9.9,9.9,0,0,1-7,3c-2.3,0-4.4-1.1-6.4-3.2A10.1,10.1,0,0,1,94.2,280.1Z"/><path class="cls-1" d="M132.6,368.8a4.1,4.1,0,0,1,3-.9,4.7,4.7,0,0,1,3,.7c2.2,9,4.8,14.8,7.6,17.5s7.4,4.6,13.6,4.6a19.9,19.9,0,0,0,11.4-3.5,11.2,11.2,0,0,0,5-9.8c0-4.2-1.3-7.6-3.9-10.1s-7.9-5.4-15.8-8.5-13.1-6.6-16.3-10.3-4.9-8.8-4.9-15.6,2.7-11.3,8.1-15.5a30.6,30.6,0,0,1,19.2-6.4,74,74,0,0,1,9.2.7c3.1.4,6.4,1,9.9,1.7s5.6,1.2,6.5,1.3q0,2.6-.6,9.6c-.3,4.7-.5,8.3-.5,10.9a4.6,4.6,0,0,1-3.1.9,4.9,4.9,0,0,1-3.1-.7,28.2,28.2,0,0,0-3.3-9.3,14.5,14.5,0,0,0-5.3-5.4,20.6,20.6,0,0,0-5.3-2.1,17.8,17.8,0,0,0-4.4-.6,14.8,14.8,0,0,0-9.4,3.3,10.6,10.6,0,0,0-4.2,8.9,15.3,15.3,0,0,0,1,5.4,17,17,0,0,0,2.4,4,14.2,14.2,0,0,0,4.2,3.1l5.1,2.5,6.6,2.6c15.5,5.6,23.2,14,23.2,25.2a21.6,21.6,0,0,1-3.3,12,20.5,20.5,0,0,1-8.3,7.7,42.5,42.5,0,0,1-10,3.8,40.7,40.7,0,0,1-9.7,1.1,69.4,69.4,0,0,1-17.5-2.1,13.3,13.3,0,0,0-3.9-.4,20.4,20.4,0,0,0-4.8.7C134,389,133.5,380,132.6,368.8Z"/><path class="cls-1" d="M226.2,326.6c0,1.6.5,1.7,1.3.5l.5-.5c9.9-10.4,19.7-15.6,29.2-15.6a21.1,21.1,0,0,1,12.7,4,18,18,0,0,1,6.7,10.1c.3,1.3,1,1.3,2,.1a46.8,46.8,0,0,1,10.6-8.3,44.8,44.8,0,0,1,10.9-4.6,46.3,46.3,0,0,1,10.4-1.3c7.8,0,13.1,2.7,15.8,7.9s4.1,12.8,4.1,22.7v30.1c0,7.7.6,12.4,2,14.1s4.8,2.9,10.3,3.4c.5.5.8,1.6.8,3.3a6.4,6.4,0,0,1-.8,3.6l-19.9-.4-19.7.4a6.5,6.5,0,0,1-.7-3.6c0-1.7.2-2.8.7-3.3,5.3-.4,8.6-1.5,10-3.4s2-6.6,2-14.1V338.1c0-6.1-1-10.5-2.9-13.1s-4.8-4-8.6-4c-9.2,0-17.8,4.3-25.5,12.7.1,1.6.1,4.1.1,7.7v30.3c0,7.7.7,12.4,2,14.1s4.4,2.9,9.4,3.4c.5.5.8,1.7.8,3.4s-.3,3-.8,3.5l-18.9-.4-19.7.4c-.5-.5-.7-1.7-.7-3.4s.2-2.9.7-3.5c5.4-.4,8.8-1.5,10.1-3.3s1.9-6.5,1.9-14.2V338.5c0-11.6-4.2-17.4-12.7-17.5-6.1,0-13.1,3.8-20.8,11.3a11.3,11.3,0,0,0-3.3,8v31.4a48.4,48.4,0,0,0,1,11.4c.7,2.2,1.7,3.7,3.1,4.4a24.4,24.4,0,0,0,7.5,1.7,5.4,5.4,0,0,1,.8,3.4,5.8,5.8,0,0,1-.8,3.5l-19.2-.4-20.7.4c-.5-.5-.8-1.7-.8-3.4a5.8,5.8,0,0,1,.8-3.5c5.6-.4,9.2-1.5,10.7-3.4s2.4-6.6,2.4-14.1V334.5c0-5.4-.8-8.8-2.3-10.2s-5-2.3-10.4-2.8a8.8,8.8,0,0,1-.3-5.5c10-1.2,18.2-3.1,24.3-5.5a2.6,2.6,0,0,1,2.4,1.5C225.7,314.3,226.2,319.2,226.2,326.6Z"/><path class="cls-1" d="M395.9,386.5h-.4l-3.8,3q-6.4,5.1-10.5,6.6a30.7,30.7,0,0,1-10.5,1.5c-7.5,0-13.5-1.6-18-4.9s-6.8-8.6-6.8-15.8,3-12.1,9-17,13.7-8.5,23.2-10.9l16.7-4.1c.7-.3,1.1-1,1.1-2.3q0-24.6-15.6-24.6a29.5,29.5,0,0,0-11.2,2c-3.2,1.3-4.8,3.3-4.8,5.9a13.9,13.9,0,0,0,.4,3.7,7.1,7.1,0,0,1,.6,3.4,5.6,5.6,0,0,1-2.3,4.1,9.2,9.2,0,0,1-6.3,2.1c-4.5,0-6.8-2.2-6.7-6.8s3.4-10.1,10.1-14.6a38.2,38.2,0,0,1,21.8-6.8q29.3,0,29.3,33v28.5c0,3.7.1,6.5.2,8.4a10.2,10.2,0,0,0,2.2,5.4,6.1,6.1,0,0,0,5.3,2.5,5.7,5.7,0,0,0,4-1.5l1.9-1.5c.4,0,.9.3,1.6,1.1a3.4,3.4,0,0,1,1,2.1c0,.3-.7,1.2-2.1,2.6a22.1,22.1,0,0,1-6,4,17.8,17.8,0,0,1-8.3,2C403.1,397.7,398.1,394,395.9,386.5Zm0-35.7-15.3,3.9c-12.2,3.2-18.3,10.3-18.2,21.3a14.3,14.3,0,0,0,3.6,9.5c2.3,2.9,5.8,4.3,10.3,4.3s10.1-2.8,16.9-8.4a5.7,5.7,0,0,0,2.7-5Z"/><path class="cls-1" d="M430,312.9h8.8V302.7c-.1-2.9-.1-4.9-.2-6.3a24.1,24.1,0,0,0-.2-3.1c0-.7-.1-1.3-.1-1.7v-1a1.4,1.4,0,0,1,.7-1.2,5.6,5.6,0,0,1,1.7-.9l2.4-.7,2.5-.9,2.9-1.4,3-1.5a5.9,5.9,0,0,1,1.8-.6c1,0,1.5.6,1.5,1.7-.5,5.2-.7,12-.7,20.4v7.4h23.2q1.5,0,1.5,1.2v3.5c0,1.6-1.6,2.4-4.6,2.3H454.1v49.2c0,6.4.4,10.9,1.4,13.8s2.5,4.2,5,4.2a25.1,25.1,0,0,0,15.8-5.5c2,.1,3.1,1.2,3.4,3.3-7.6,8.5-16.3,12.7-26,12.7s-14.9-6.4-14.9-19.1V319.9H427.4c-.6,0-.9-.3-.9-1v-2.4C426.5,314.1,427.6,312.9,430,312.9Z"/><path class="cls-1" d="M108.7,149.2a80.4,80.4,0,0,1,76.4-56,78.9,78.9,0,0,1,45.2,14.1,120.7,120.7,0,0,0,14.6-18.1A103.2,103.2,0,0,0,85.8,145.3l10.3,1.9C100.3,148.1,104.5,148.7,108.7,149.2Z"/><path class="cls-1" d="M270.2,61.5c.3,9.2-4.6,22.6-14.2,36.8a136.3,136.3,0,0,1-14.6,18.1c-67.3,58-141.8,48.7-158.5,42.3a101.8,101.8,0,0,0-1,14.7,102.8,102.8,0,0,0,5.4,33,157.9,157.9,0,0,0,24.7-.2c58.6-3.8,114-33.2,141.3-74.9A114.8,114.8,0,0,0,265,108.1,96.2,96.2,0,0,0,270.2,61.5Z"/><path class="cls-1" d="M113.4,247.6c34.2-3.6,94.1-21.5,140.3-81.8a166.7,166.7,0,0,0,11.8-22.9q2-5.1,3.6-9.9a153.7,153.7,0,0,1-8.6,13c-2.3,3.1-4.8,6.2-7.4,9.2-31.3,35.7-81,59.6-133.2,64.7A193.8,193.8,0,0,1,99.7,221H93.5A106.4,106.4,0,0,0,113.4,247.6Z"/><path class="cls-1" d="M278.5,129.4a107.8,107.8,0,0,1-1,22,120.1,120.1,0,0,1-7.5,27.9c-15.5,39.4-50.4,74.7-94.1,96.9,3.1.3,6.1.5,9.2.5A103.4,103.4,0,0,0,288.4,173.4,101.7,101.7,0,0,0,278.5,129.4Z"/><path class="cls-1" d="M81.9,438.7h4.2v22.4H81.9Z"/><path class="cls-1" d="M91.4,438.7h2.7l14.1,15.1V438.7h4.2v22.4h-2.6L95.6,445.9v15.2H91.4Z"/><path class="cls-1" d="M116.8,458.6l1.6-2.9a9,9,0,0,0,6,2.1c2.8,0,4.5-.9,4.5-2.7s-1.9-2.5-4.7-3.3l-1.3-.4c-3.7-1-6.4-2.5-6.4-6.2s3.3-6.8,8.3-6.8a11.8,11.8,0,0,1,7.5,2.6l-1.9,3a8.2,8.2,0,0,0-5.6-2c-2.4,0-3.9,1-3.9,2.5s1.8,2.4,4,3.1l1.3.3c3.4,1,7.1,2.8,7.1,6.9s-3.5,6.6-8.6,6.6A11.7,11.7,0,0,1,116.8,458.6Z"/><path class="cls-1" d="M152.5,442.3h-6.9v18.8h-4.2V442.3h-6.8v-3.6h17.9Z"/><path class="cls-1" d="M155.6,438.7h4.2v22.4h-4.2Z"/><path class="cls-1" d="M180.8,442.3H174v18.8h-4.3V442.3h-6.8v-3.6h17.9Z"/><path class="cls-1" d="M183.6,452.6V438.7h4.3v13.7c0,3.3,2.2,5.4,5.6,5.4a5.1,5.1,0,0,0,5.4-5.4V438.7h4.3v13.9c0,5.3-3.9,8.8-9.7,8.8S183.6,457.9,183.6,452.6Z"/><path class="cls-1" d="M223.9,442.3h-6.8v18.8h-4.3V442.3H206v-3.6h17.9Z"/><path class="cls-1" d="M224.8,449.9c0-6.9,4.7-11.5,11.7-11.5s11.7,4.6,11.7,11.5-4.7,11.5-11.7,11.5S224.8,456.8,224.8,449.9Zm19,0c0-4.8-2.9-7.9-7.3-7.9s-7.3,3.1-7.3,7.9,3,7.9,7.3,7.9S243.8,454.7,243.8,449.9Z"/><path class="cls-1" d="M258.8,458.6l1.6-2.9a9,9,0,0,0,6,2.1c2.8,0,4.5-.9,4.5-2.7s-1.9-2.5-4.7-3.3l-1.3-.4c-3.6-1-6.4-2.5-6.4-6.2s3.3-6.8,8.3-6.8a11.8,11.8,0,0,1,7.5,2.6l-1.9,3a8,8,0,0,0-5.6-2c-2.4,0-3.9,1-3.9,2.5s1.8,2.4,4,3.1l1.3.3c3.4,1,7.1,2.8,7.1,6.9s-3.5,6.6-8.6,6.6A11.7,11.7,0,0,1,258.8,458.6Z"/><path class="cls-1" d="M279,452.6V438.7h4.3v13.7a5.5,5.5,0,0,0,11,0V438.7h4.3v13.9c0,5.3-3.9,8.8-9.8,8.8S279,457.9,279,452.6Z"/><path class="cls-1" d="M320.5,445.9c0,4.5-3.2,7.6-8,7.6h-4.6v7.6h-4.3V438.7h9.1C317.4,438.7,320.5,441.6,320.5,445.9Zm-4.4.2a3.6,3.6,0,0,0-3.9-3.8h-4.3v7.6h4.3A3.6,3.6,0,0,0,316.1,446.1Z"/><path class="cls-1" d="M339.4,457.5v3.6H324V438.7h15.2v3.6h-11V448h10v3.5h-10v6Z"/><path class="cls-1" d="M352.4,452.9h-4.6v8.2h-4.2V438.7h9.3c4.8,0,7.9,2.9,7.9,7.1a6.5,6.5,0,0,1-4.2,6.2l5.9,9.1h-5Zm-4.6-3.6h4.4c2.5,0,4.2-1.4,4.2-3.5s-1.6-3.5-3.9-3.5h-4.7Z"/><path class="cls-1" d="M365.7,438.7h4.2v22.4h-4.2Z"/><path class="cls-1" d="M373.9,449.9c0-6.9,4.7-11.5,11.7-11.5s11.7,4.6,11.7,11.5-4.7,11.5-11.7,11.5S373.9,456.8,373.9,449.9Zm19,0c0-4.8-2.9-7.9-7.3-7.9s-7.3,3.1-7.3,7.9,2.9,7.9,7.3,7.9S392.9,454.7,392.9,449.9Z"/><path class="cls-1" d="M410.1,452.9h-4.6v8.2h-4.2V438.7h9.3c4.7,0,7.8,2.9,7.8,7.1a6.4,6.4,0,0,1-4.1,6.2l5.9,9.1h-5Zm-4.6-3.6h4.3c2.6,0,4.3-1.4,4.3-3.5s-1.6-3.5-4-3.5h-4.6Z"/><path class="cls-1" d="M104.7,501.1l-1-18.5-8.6,18.5H93.7l-8.5-18.5-1.1,18.5H81.9l1.3-22.7h2.4l8.8,19.1,8.8-19.1h2.4l1.4,22.7Z"/><path class="cls-1" d="M126.4,495.2H114.5l-2.5,5.9h-2.5l9.9-22.5h2.2l9.8,22.5H129Zm-.8-1.9-5.1-11.9-5.1,11.9Z"/><path class="cls-1" d="M134.6,478.6h1.5l15.6,18.5V478.6H154v22.5h-1.5l-15.6-18.5v18.5h-2.3Z"/><path class="cls-1" d="M159.9,493.1V478.6h2.3V493c0,3.9,2.8,6.5,6.9,6.5s7-2.6,7-6.5V478.6h2.3v14.5c0,5-3.7,8.3-9.3,8.3S159.9,498.1,159.9,493.1Z"/><path class="cls-1" d="M198.4,499.2v1.9H184.2V478.6h13.9v1.9H186.5v8.2h10.8v1.9H186.5v8.6Z"/><path class="cls-1" d="M216.2,499.2v1.9h-13V478.6h2.4v20.6Z"/><path class="cls-1" d="M240.2,480.5h-7.3v20.6h-2.3V480.5h-7.2v-1.9h16.8Z"/><path class="cls-1" d="M257.8,499.2v1.9H243.6V478.6h13.9v1.9H245.9v8.2h10.8v1.9H245.9v8.6Z"/><path class="cls-1" d="M262.6,478.6H265v22.5h-2.4Z"/><path class="cls-1" d="M284.8,501.1l-7-9.9-6.9,9.9h-2.7l8.3-11.6-7.6-10.9h2.6l6.3,9.1,6.2-9.1h2.7l-7.6,10.9,8.3,11.6Z"/><path class="cls-1" d="M304.8,499.2v1.9H290.6V478.6h13.9v1.9H292.9v8.2h10.8v1.9H292.9v8.6Z"/><path class="cls-1" d="M309.6,478.6h2.3v22.5h-2.3Z"/><path class="cls-1" d="M332.8,501.1l-6-9.2h-6.4v9.2h-2.3V478.6h8.3c4.6,0,7.5,2.7,7.5,6.7a6.2,6.2,0,0,1-4.8,6.2l6.4,9.6ZM320.4,490h5.7c3.2,0,5.4-1.9,5.4-4.7s-2.1-4.8-5.4-4.8h-5.7Z"/><path class="cls-1" d="M353.2,495.2H341.3l-2.5,5.9h-2.5l9.9-22.5h2.2l9.8,22.5h-2.4Zm-.8-1.9-5.1-11.9-5.1,11.9Z"/><path class="cls-1" d="M388.6,489.9c0,7-4.1,11.5-10.6,11.5s-11-4.6-11-11.5,4.4-11.6,11-11.6a11.8,11.8,0,0,1,7.5,2.3l-1.5,1.5a9.2,9.2,0,0,0-6-1.9c-5.1,0-8.6,3.9-8.6,9.7s3.5,9.6,8.7,9.6,7.9-3.3,8.1-8.4h-7.1v-1.9h9.5Z"/><path class="cls-1" d="M391.2,489.9c0-7,4.6-11.6,11.3-11.6s11.2,4.6,11.2,11.6-4.5,11.5-11.2,11.5S391.2,496.8,391.2,489.9Zm20.1,0c0-5.8-3.5-9.7-8.8-9.7s-8.8,3.9-8.8,9.7,3.5,9.6,8.8,9.6S411.3,495.6,411.3,489.9Z"/><path class="cls-1" d="M440.6,501.1l-1-18.5L431,501.1h-1.4l-8.5-18.5-1,18.5h-2.3l1.3-22.7h2.4l8.8,19.1,8.8-19.1h2.5l1.3,22.7Z"/><path class="cls-1" d="M462.6,499.2v1.9H448.4V478.6h13.9v1.9H450.8v8.2h10.7v1.9H450.8v8.6Z"/><path class="cls-1" d="M466.3,498.8l.9-1.6a9.1,9.1,0,0,0,6.3,2.3c3.6,0,5.8-1.6,5.8-4s-2.4-3.7-5.8-4.7l-1.5-.5c-3.2-.9-5.9-2.3-5.9-5.8s3.1-6.2,7.7-6.2a9.7,9.7,0,0,1,7,2.6l-1.1,1.6a8.1,8.1,0,0,0-5.9-2.3c-3.2,0-5.3,1.6-5.3,3.9s2.2,3.5,4.6,4.2l1.6.4c3.2,1,7,2.6,7,6.5s-3.2,6.2-8.1,6.2C470.7,501.4,468,500.6,466.3,498.8Z"/></svg>