<?xml version="1.0" encoding="UTF-8" standalone="no"?>
<!DOCTYPE svg PUBLIC "-//W3C//DTD SVG 1.1//EN" "http://www.w3.org/Graphics/SVG/1.1/DTD/svg11.dtd">
<svg width="100%" height="100%" viewBox="0 0 190 150" version="1.1" xmlns="http://www.w3.org/2000/svg" xmlns:xlink="http://www.w3.org/1999/xlink" xml:space="preserve" xmlns:serif="http://www.serif.com/" style="fill-rule:evenodd;clip-rule:evenodd;stroke-linejoin:round;stroke-miterlimit:2;">
    <g id="Artboard1" transform="matrix(0.454623,0,0,0.821898,0,0)">
        <rect x="0" y="0" width="417.367" height="182.147" style="fill:none;"/>
        <g transform="matrix(2.45,0,0,1.35519,50.7251,57.3493)">
            <path d="M17.4,48.5C17.4,50.6 17.6,51.9 18,52.3C18.4,52.8 19.5,53.1 21.1,53.2C21.3,53.4 21.4,53.7 21.4,54.2C21.4,54.7 21.3,55 21.1,55.1C18.1,55 16.2,55 15.3,55C14.3,55 12.4,55 9.4,55.1C9.3,55 9.2,54.6 9.2,54.2C9.2,53.7 9.3,53.4 9.4,53.2C11.1,53.1 12.1,52.8 12.6,52.3C13.1,51.8 13.2,50.6 13.2,48.5L13.2,38.4C13.2,36.9 13,36 12.6,35.6C12.2,35.2 11.3,35 9.8,34.8C9.6,34.2 9.6,33.7 9.7,33.3C12.9,32.9 15.3,32.4 16.9,31.8C17.4,31.8 17.6,31.9 17.6,32.2L17.6,32.6C17.6,32.8 17.6,33.1 17.5,33.6C17.5,34.1 17.5,34.6 17.4,35C17.4,35.4 17.4,36 17.3,36.6L17.3,38.2L17.4,48.5ZM12.6,23.7C12.6,23.1 12.9,22.5 13.5,22C14.1,21.5 14.7,21.2 15.3,21.2C16,21.2 16.6,21.5 17.1,22.1C17.6,22.7 17.9,23.3 17.9,23.9C17.9,24.5 17.6,25.1 17.1,25.6C16.5,26.1 15.9,26.4 15.2,26.4C14.6,26.4 14,26.1 13.5,25.5C12.9,24.9 12.6,24.3 12.6,23.7" style="fill:white;fill-rule:nonzero;"/>
        </g>
        <g transform="matrix(2.45,0,0,1.35519,50.7251,57.3493)">
            <path d="M23,47.7C23.2,47.5 23.4,47.4 23.8,47.4C24.2,47.4 24.4,47.5 24.6,47.6C25.2,50 25.9,51.6 26.6,52.4C27.4,53.2 28.6,53.6 30.3,53.6C31.4,53.6 32.5,53.3 33.4,52.7C34.3,52.1 34.8,51.2 34.8,50C34.8,48.9 34.4,47.9 33.7,47.3C33,46.6 31.6,45.8 29.4,45C27.3,44.1 25.8,43.2 24.9,42.2C24,41.2 23.6,39.8 23.6,38C23.6,36.3 24.3,34.9 25.8,33.8C27.3,32.7 29,32.1 31,32.1C31.8,32.1 32.6,32.2 33.5,32.3C34.4,32.4 35.2,32.6 36.2,32.8C37.1,33 37.7,33.1 38,33.1C38,33.6 37.9,34.4 37.8,35.7C37.7,37 37.6,38 37.6,38.7C37.4,38.9 37.1,39 36.8,39C36.4,39 36.1,38.9 36,38.8C35.8,37.8 35.5,36.9 35.1,36.3C34.7,35.6 34.2,35.1 33.6,34.8C33,34.5 32.6,34.3 32.1,34.2C31.7,34.1 31.3,34.1 30.9,34.1C30,34.1 29.1,34.4 28.4,35C27.6,35.6 27.3,36.4 27.3,37.4C27.3,38 27.4,38.5 27.6,38.9C27.8,39.3 28,39.7 28.2,40C28.4,40.3 28.8,40.6 29.4,40.9C29.9,41.2 30.4,41.4 30.8,41.6C31.2,41.7 31.8,42 32.6,42.3C36.8,43.8 38.9,46.1 38.9,49.2C38.9,50.4 38.6,51.5 38,52.5C37.4,53.4 36.7,54.1 35.7,54.6C34.8,55.1 33.9,55.4 33,55.6C32.1,55.8 31.2,55.9 30.4,55.9C28.7,55.9 27.1,55.7 25.6,55.3C25.4,55.2 25,55.2 24.5,55.2C24.2,55.2 23.7,55.3 23.2,55.4C23.4,53.2 23.3,50.8 23,47.7" style="fill:white;fill-rule:nonzero;"/>
        </g>
        <g transform="matrix(2.45,0,0,1.35519,50.7251,57.3493)">
            <path d="M48.5,36.3C48.5,36.7 48.6,36.8 48.9,36.4L49,36.3C51.7,33.5 54.3,32.1 56.9,32.1C58.2,32.1 59.4,32.5 60.3,33.2C61.3,33.9 61.9,34.8 62.1,35.9C62.2,36.2 62.4,36.2 62.7,35.9C63.6,35 64.5,34.2 65.6,33.6C66.7,33 67.6,32.6 68.6,32.4C69.5,32.2 70.5,32.1 71.4,32.1C73.5,32.1 75,32.8 75.7,34.2C76.4,35.6 76.8,37.7 76.8,40.4L76.8,48.6C76.8,50.7 77,52 77.4,52.4C77.8,52.9 78.7,53.2 80.2,53.3C80.3,53.4 80.4,53.8 80.4,54.2C80.4,54.7 80.3,55 80.2,55.2C77.2,55.1 75.4,55.1 74.8,55.1C74.2,55.1 72.4,55.1 69.4,55.2C69.3,55 69.2,54.7 69.2,54.2C69.2,53.7 69.3,53.4 69.4,53.3C70.8,53.2 71.7,52.9 72.1,52.4C72.5,51.9 72.7,50.6 72.7,48.6L72.7,39.5C72.7,37.8 72.4,36.7 71.9,35.9C71.4,35.2 70.6,34.8 69.6,34.8C67.1,34.8 64.8,35.9 62.7,38.2C62.7,38.6 62.8,39.3 62.8,40.3L62.8,48.5C62.8,50.6 63,51.9 63.3,52.3C63.7,52.8 64.5,53.1 65.9,53.2C66,53.3 66.1,53.7 66.1,54.1C66.1,54.6 66,54.9 65.9,55C62.9,54.9 61.2,54.9 60.8,54.9C60.2,54.9 58.4,54.9 55.5,55C55.1,55 55,54.7 55,54.3C55,53.8 55.1,53.5 55.2,53.3C56.7,53.2 57.6,52.9 57.9,52.4C58.3,51.9 58.4,50.6 58.4,48.5L58.4,39.5C58.4,36.4 57.3,34.8 55,34.8C53.3,34.8 51.4,35.8 49.4,37.9C48.8,38.5 48.5,39.3 48.5,40.1L48.5,48.6C48.5,50.1 48.6,51.1 48.8,51.7C49,52.3 49.3,52.7 49.6,52.9C50,53.1 50.7,53.2 51.6,53.3C51.7,53.5 51.8,53.8 51.8,54.2C51.8,54.7 51.7,55 51.6,55.1C48.7,55 46.9,55 46.4,55C45.5,55 43.6,55 40.8,55.1C40.7,55 40.6,54.6 40.6,54.2C40.6,53.7 40.7,53.4 40.8,53.2C42.3,53.1 43.3,52.8 43.7,52.3C44.1,51.8 44.3,50.5 44.3,48.5L44.3,38.4C44.3,36.9 44.1,36 43.7,35.6C43.3,35.2 42.4,35 40.9,34.8C40.7,34.2 40.7,33.7 40.8,33.3C43.5,33 45.7,32.5 47.4,31.8C47.7,31.8 47.9,31.9 48,32.2C48.4,32.9 48.5,34.3 48.5,36.3" style="fill:white;fill-rule:nonzero;"/>
        </g>
        <g transform="matrix(2.45,0,0,1.35519,50.7251,57.3493)">
            <path d="M94.6,52.6L94.5,52.6L93.5,53.4C92.3,54.3 91.4,54.9 90.7,55.2C90,55.5 89,55.6 87.8,55.6C85.8,55.6 84.1,55.1 82.9,54.2C81.6,53.3 81,51.9 81,50C81,48.3 81.8,46.7 83.4,45.4C85,44.1 87.1,43.1 89.7,42.4L94.2,41.3C94.4,41.2 94.5,41 94.5,40.7C94.5,36.2 93.1,34 90.3,34C89.1,34 88.1,34.2 87.3,34.5C86.4,34.9 86,35.4 86,36.1C86,36.6 86,36.9 86.1,37.1C86.2,37.3 86.3,37.6 86.3,38C86.3,38.4 86.1,38.8 85.7,39.1C85.3,39.5 84.7,39.7 84,39.7C82.8,39.7 82.2,39.1 82.2,37.9C82.2,36.5 83.1,35.1 84.9,33.9C86.7,32.7 88.7,32.1 90.8,32.1C96.1,32.1 98.8,35.1 98.8,41.1L98.8,48.9C98.8,49.9 98.8,50.7 98.9,51.2C99,51.7 99.1,52.2 99.5,52.7C99.8,53.2 100.3,53.4 100.9,53.4C101.3,53.4 101.7,53.3 102,53C102.3,52.7 102.5,52.6 102.5,52.6C102.6,52.6 102.7,52.7 102.9,52.9C103.1,53.1 103.2,53.3 103.2,53.5C103.2,53.6 103,53.8 102.6,54.2C102.2,54.6 101.7,54.9 100.9,55.3C100.2,55.7 99.4,55.9 98.6,55.9C96.6,55.6 95.2,54.6 94.6,52.6M94.6,42.9L90.5,44C87.2,44.9 85.5,46.8 85.6,49.8C85.6,50.7 85.9,51.6 86.6,52.4C87.2,53.2 88.2,53.6 89.4,53.6C90.6,53.6 92.2,52.8 94,51.3C94.5,51 94.7,50.5 94.7,49.9L94.6,42.9Z" style="fill:white;fill-rule:nonzero;"/>
        </g>
        <g transform="matrix(2.45,0,0,1.35519,50.7251,57.3493)">
            <path d="M103.9,32.6L106.3,32.6L106.3,28.1C106.3,27.7 106.3,27.5 106.2,27.3L106.2,26.5C106.2,26.4 106.3,26.3 106.4,26.2C106.5,26.1 106.7,26 106.8,26C107,25.9 107.2,25.9 107.5,25.8C107.8,25.7 108,25.6 108.2,25.6C108.4,25.5 108.7,25.4 109,25.2C109.3,25 109.6,24.9 109.8,24.8C110,24.7 110.2,24.6 110.3,24.6C110.6,24.6 110.7,24.8 110.7,25.1C110.6,26.5 110.5,28.3 110.5,30.6L110.5,32.6L116.8,32.6C117.1,32.6 117.2,32.7 117.2,32.9L117.2,33.9C117.2,34.3 116.8,34.5 115.9,34.5L110.4,34.5L110.4,47.9C110.4,49.6 110.5,50.9 110.8,51.6C111,52.4 111.5,52.7 112.2,52.7C113.8,52.7 115.2,52.2 116.5,51.2C117,51.2 117.3,51.5 117.4,52.1C115.3,54.4 113,55.6 110.3,55.6C107.6,55.6 106.3,53.9 106.3,50.4L106.3,34.5L103.2,34.5C103,34.5 102.9,34.4 102.9,34.2L102.9,33.6C102.9,32.9 103.2,32.6 103.9,32.6" style="fill:white;fill-rule:nonzero;"/>
        </g>
        <g transform="matrix(2.02765,0,0,1.12157,-200.362,2.01551)">
            <path d="M144,35.3C147.4,24.7 157.3,17 169,17C174.5,17 179.6,18.7 183.8,21.6C185.8,19.6 187.3,17.6 188.6,15.7C183.1,11.8 176.3,9.4 169,9.4C153.5,9.4 140.5,19.8 136.4,34L139.8,34.7C141.3,34.9 142.6,35.1 144,35.3" style="fill:white;fill-rule:nonzero;"/>
        </g>
        <g transform="matrix(2.02765,0,0,1.12157,-200.362,2.01551)">
            <path d="M196.9,6.5C197,9.5 195.4,13.9 192.2,18.6C190.9,20.6 189.3,22.6 187.4,24.5C165.4,43.5 140.9,40.4 135.5,38.4C135.3,40 135.2,41.6 135.2,43.2C135.2,47 135.8,50.6 137,54C141.1,54.3 145.1,53.9 145.1,53.9C164.3,52.6 182.4,43 191.4,29.3C193,26.9 194.3,24.3 195.2,21.7C197,17 197.6,11.9 196.9,6.5" style="fill:white;fill-rule:nonzero;"/>
        </g>
        <g transform="matrix(2.02765,0,0,1.12157,-200.362,2.01551)">
            <path d="M145.5,67.5C156.7,66.3 176.3,60.4 191.5,40.7C193.1,38.1 194.4,35.6 195.4,33.2C195.9,32.1 196.2,31 196.6,30C195.8,31.4 194.8,32.9 193.8,34.2C193,35.2 192.2,36.2 191.4,37.2C181.2,48.9 164.9,56.7 147.8,58.4C145.6,58.6 143.4,58.7 141.2,58.7L139.2,58.7C140.7,62.1 142.9,65 145.5,67.5" style="fill:white;fill-rule:nonzero;"/>
        </g>
        <g transform="matrix(2.02765,0,0,1.12157,-200.362,2.01551)">
            <path d="M199.6,28.8C199.7,31.2 199.6,33.6 199.3,36C198.9,39.1 198,42.2 196.8,45.2C191.7,58.1 180.3,69.7 166,76.9C167,77 168,77 169,77C187.7,77 202.8,61.8 202.8,43.2C202.9,38 201.7,33.2 199.6,28.8" style="fill:white;fill-rule:nonzero;"/>
        </g>
        <g transform="matrix(1.89984,0,0,1.05087,-346.219,113.777)">
            <rect x="220.8" y="33.8" width="1.5" height="7.9" style="fill:white;"/>
        </g>
        <g transform="matrix(1.89984,0,0,1.05087,-346.219,113.777)">
            <path d="M224.2,33.8L225.2,33.8L230.1,39.2L230.1,33.8L231.6,33.8L231.6,41.7L230.7,41.7L225.7,36.4L225.7,41.7L224.2,41.7L224.2,33.8Z" style="fill:white;fill-rule:nonzero;"/>
        </g>
        <g transform="matrix(1.89984,0,0,1.05087,-346.219,113.777)">
            <path d="M233.2,40.8L233.8,39.8C234.5,40.4 235.2,40.6 235.9,40.6C236.9,40.6 237.5,40.3 237.5,39.7C237.5,39.1 236.8,38.8 235.8,38.5L235.4,38.4C234.1,38 233.1,37.5 233.1,36.2C233.1,34.8 234.3,33.8 236,33.8C237,33.8 237.9,34.1 238.7,34.7L238,35.7C237.4,35.2 236.8,35 236,35C235.2,35 234.6,35.4 234.6,35.9C234.6,36.5 235.2,36.8 236,37L236.5,37.1C237.7,37.4 239,38.1 239,39.5C239,40.9 237.8,41.8 236,41.8C234.9,41.8 233.9,41.5 233.2,40.8" style="fill:white;fill-rule:nonzero;"/>
        </g>
        <g transform="matrix(1.89984,0,0,1.05087,-346.219,113.777)">
            <path d="M245.8,35.1L243.4,35.1L243.4,41.7L241.9,41.7L241.9,35.1L239.5,35.1L239.5,33.8L245.8,33.8L245.8,35.1Z" style="fill:white;fill-rule:nonzero;"/>
        </g>
        <g transform="matrix(1.89984,0,0,1.05087,-346.219,113.777)">
            <rect x="246.9" y="33.8" width="1.5" height="7.9" style="fill:white;"/>
        </g>
        <g transform="matrix(1.89984,0,0,1.05087,-346.219,113.777)">
            <path d="M255.8,35.1L253.4,35.1L253.4,41.7L251.9,41.7L251.9,35.1L249.5,35.1L249.5,33.8L255.8,33.8L255.8,35.1Z" style="fill:white;fill-rule:nonzero;"/>
        </g>
        <g transform="matrix(1.89984,0,0,1.05087,-346.219,113.777)">
            <path d="M256.8,38.7L256.8,33.8L258.3,33.8L258.3,38.6C258.3,39.7 259.1,40.5 260.3,40.5C261.5,40.5 262.2,39.7 262.2,38.6L262.2,33.8L263.7,33.8L263.7,38.7C263.7,40.6 262.3,41.8 260.2,41.8C258.2,41.8 256.8,40.6 256.8,38.7" style="fill:white;fill-rule:nonzero;"/>
        </g>
        <g transform="matrix(1.89984,0,0,1.05087,-346.219,113.777)">
            <path d="M271.1,35.1L268.7,35.1L268.7,41.7L267.2,41.7L267.2,35.1L264.8,35.1L264.8,33.8L271.1,33.8L271.1,35.1Z" style="fill:white;fill-rule:nonzero;"/>
        </g>
        <g transform="matrix(1.89984,0,0,1.05087,-346.219,113.777)">
            <path d="M271.4,37.8C271.4,35.4 273.1,33.7 275.6,33.7C278.1,33.7 279.7,35.3 279.7,37.8C279.7,40.3 278,41.9 275.6,41.9C273.1,41.8 271.4,40.2 271.4,37.8M278.1,37.8C278.1,36.1 277.1,35 275.5,35C273.9,35 272.9,36.1 272.9,37.8C272.9,39.5 273.9,40.6 275.5,40.6C277.1,40.6 278.1,39.4 278.1,37.8" style="fill:white;fill-rule:nonzero;"/>
        </g>
        <g transform="matrix(1.89984,0,0,1.05087,-346.219,113.777)">
            <path d="M283.4,40.8L284,39.8C284.7,40.4 285.4,40.6 286.1,40.6C287.1,40.6 287.7,40.3 287.7,39.7C287.7,39.1 287,38.8 286,38.5L285.6,38.4C284.3,38 283.3,37.5 283.3,36.2C283.3,34.8 284.5,33.8 286.2,33.8C287.2,33.8 288.1,34.1 288.9,34.7L288.2,35.7C287.6,35.2 287,35 286.2,35C285.4,35 284.8,35.4 284.8,35.9C284.8,36.5 285.4,36.8 286.2,37L286.7,37.1C287.9,37.4 289.2,38.1 289.2,39.5C289.2,40.9 288,41.8 286.2,41.8C285.2,41.8 284.1,41.5 283.4,40.8" style="fill:white;fill-rule:nonzero;"/>
        </g>
        <g transform="matrix(1.89984,0,0,1.05087,-346.219,113.777)">
            <path d="M290.6,38.7L290.6,33.8L292.1,33.8L292.1,38.6C292.1,39.7 292.9,40.5 294.1,40.5C295.3,40.5 296,39.7 296,38.6L296,33.8L297.5,33.8L297.5,38.7C297.5,40.6 296.1,41.8 294,41.8C292,41.8 290.6,40.6 290.6,38.7" style="fill:white;fill-rule:nonzero;"/>
        </g>
        <g transform="matrix(1.89984,0,0,1.05087,-346.219,113.777)">
            <path d="M305.3,36.4C305.3,38 304.2,39.1 302.5,39.1L300.9,39.1L300.9,41.8L299.4,41.8L299.4,33.9L302.6,33.9C304.2,33.8 305.3,34.8 305.3,36.4M303.7,36.4C303.7,35.6 303.2,35 302.3,35L300.8,35L300.8,37.7L302.3,37.7C303.2,37.8 303.7,37.2 303.7,36.4" style="fill:white;fill-rule:nonzero;"/>
        </g>
        <g transform="matrix(1.89984,0,0,1.05087,-346.219,113.777)">
            <path d="M312,40.5L312,41.7L306.5,41.7L306.5,33.8L311.9,33.8L311.9,35.1L308,35.1L308,37.1L311.5,37.1L311.5,38.3L308,38.3L308,40.5L312,40.5Z" style="fill:white;fill-rule:nonzero;"/>
        </g>
        <g transform="matrix(1.89984,0,0,1.05087,-346.219,113.777)">
            <path d="M316.6,38.8L315,38.8L315,41.7L313.5,41.7L313.5,33.8L316.8,33.8C318.5,33.8 319.6,34.8 319.6,36.3C319.6,37.3 319.1,38.1 318.1,38.5L320.2,41.7L318.4,41.7L316.6,38.8ZM314.9,37.6L316.4,37.6C317.3,37.6 317.9,37.1 317.9,36.4C317.9,35.7 317.3,35.2 316.5,35.2L314.9,35.2L314.9,37.6Z" style="fill:white;fill-rule:nonzero;"/>
        </g>
        <g transform="matrix(1.89984,0,0,1.05087,-346.219,113.777)">
            <rect x="321.2" y="33.8" width="1.5" height="7.9" style="fill:white;"/>
        </g>
        <g transform="matrix(1.89984,0,0,1.05087,-346.219,113.777)">
            <path d="M324.2,37.8C324.2,35.4 325.9,33.7 328.4,33.7C330.9,33.7 332.5,35.3 332.5,37.8C332.5,40.3 330.8,41.9 328.4,41.9C325.8,41.8 324.2,40.2 324.2,37.8M330.9,37.8C330.9,36.1 329.9,35 328.3,35C326.7,35 325.7,36.1 325.7,37.8C325.7,39.5 326.7,40.6 328.3,40.6C329.9,40.6 330.9,39.4 330.9,37.8" style="fill:white;fill-rule:nonzero;"/>
        </g>
        <g transform="matrix(1.89984,0,0,1.05087,-346.219,113.777)">
            <path d="M337,38.8L335.4,38.8L335.4,41.7L333.9,41.7L333.9,33.8L337.2,33.8C338.9,33.8 340,34.8 340,36.3C340,37.3 339.5,38.1 338.5,38.5L340.6,41.7L338.8,41.7L337,38.8ZM335.4,37.6L336.9,37.6C337.8,37.6 338.4,37.1 338.4,36.4C338.4,35.7 337.8,35.2 337,35.2L335.4,35.2L335.4,37.6Z" style="fill:white;fill-rule:nonzero;"/>
        </g>
        <g transform="matrix(1.89984,0,0,1.05087,-346.219,113.777)">
            <path d="M228.8,54.5L228.4,48L225.4,54.5L224.9,54.5L221.9,48L221.6,54.5L220.8,54.5L221.2,46.5L222.1,46.5L225.2,53.2L228.3,46.5L229.1,46.5L229.6,54.5L228.8,54.5Z" style="fill:white;fill-rule:nonzero;"/>
        </g>
        <g transform="matrix(1.89984,0,0,1.05087,-346.219,113.777)">
            <path d="M236.4,52.5L232.2,52.5L231.3,54.6L230.4,54.6L233.9,46.7L234.7,46.7L238.2,54.6L237.3,54.6L236.4,52.5ZM236.1,51.8L234.3,47.6L232.5,51.8L236.1,51.8Z" style="fill:white;fill-rule:nonzero;"/>
        </g>
        <g transform="matrix(1.89984,0,0,1.05087,-346.219,113.777)">
            <path d="M239.3,46.6L239.8,46.6L245.3,53.1L245.3,46.6L246.1,46.6L246.1,54.5L245.6,54.5L240.1,48L240.1,54.5L239.3,54.5L239.3,46.6Z" style="fill:white;fill-rule:nonzero;"/>
        </g>
        <g transform="matrix(1.89984,0,0,1.05087,-346.219,113.777)">
            <path d="M248.2,51.7L248.2,46.6L249,46.6L249,51.7C249,53.1 250,54 251.4,54C252.9,54 253.8,53.1 253.8,51.7L253.8,46.6L254.6,46.6L254.6,51.7C254.6,53.5 253.3,54.6 251.4,54.6C249.5,54.6 248.2,53.5 248.2,51.7" style="fill:white;fill-rule:nonzero;"/>
        </g>
        <g transform="matrix(1.89984,0,0,1.05087,-346.219,113.777)">
            <path d="M261.7,53.9L261.7,54.5L256.7,54.5L256.7,46.6L261.6,46.6L261.6,47.3L257.5,47.3L257.5,50.2L261.3,50.2L261.3,50.8L257.5,50.8L257.5,53.9L261.7,53.9Z" style="fill:white;fill-rule:nonzero;"/>
        </g>
        <g transform="matrix(1.89984,0,0,1.05087,-346.219,113.777)">
            <path d="M267.9,53.9L267.9,54.5L263.4,54.5L263.4,46.6L264.2,46.6L264.2,53.9L267.9,53.9Z" style="fill:white;fill-rule:nonzero;"/>
        </g>
        <g transform="matrix(1.89984,0,0,1.05087,-346.219,113.777)">
            <path d="M276.3,47.3L273.8,47.3L273.8,54.5L273,54.5L273,47.3L270.4,47.3L270.4,46.6L276.3,46.6L276.3,47.3Z" style="fill:white;fill-rule:nonzero;"/>
        </g>
        <g transform="matrix(1.89984,0,0,1.05087,-346.219,113.777)">
            <path d="M282.5,53.9L282.5,54.5L277.6,54.5L277.6,46.6L282.4,46.6L282.4,47.3L278.4,47.3L278.4,50.2L282.2,50.2L282.2,50.8L278.4,50.8L278.4,53.9L282.5,53.9Z" style="fill:white;fill-rule:nonzero;"/>
        </g>
        <g transform="matrix(1.89984,0,0,1.05087,-346.219,113.777)">
            <rect x="284.2" y="46.6" width="0.8" height="7.9" style="fill:white;"/>
        </g>
        <g transform="matrix(1.89984,0,0,1.05087,-346.219,113.777)">
            <path d="M292,54.5L289.6,51.1L287.1,54.5L286.2,54.5L289.1,50.4L286.4,46.6L287.4,46.6L289.6,49.8L291.8,46.6L292.7,46.6L290,50.4L292.9,54.5L292,54.5Z" style="fill:white;fill-rule:nonzero;"/>
        </g>
        <g transform="matrix(1.89984,0,0,1.05087,-346.219,113.777)">
            <path d="M299,53.9L299,54.5L294.1,54.5L294.1,46.6L298.9,46.6L298.9,47.3L294.9,47.3L294.9,50.2L298.7,50.2L298.7,50.8L294.9,50.8L294.9,53.9L299,53.9Z" style="fill:white;fill-rule:nonzero;"/>
        </g>
        <g transform="matrix(1.89984,0,0,1.05087,-346.219,113.777)">
            <rect x="300.7" y="46.6" width="0.8" height="7.9" style="fill:white;"/>
        </g>
        <g transform="matrix(1.89984,0,0,1.05087,-346.219,113.777)">
            <path d="M308.9,54.5L306.8,51.3L304.5,51.3L304.5,54.5L303.7,54.5L303.7,46.6L306.6,46.6C308.2,46.6 309.3,47.5 309.3,48.9C309.3,50 308.7,50.8 307.6,51.1L309.8,54.5L308.9,54.5ZM304.5,50.6L306.5,50.6C307.6,50.6 308.4,49.9 308.4,48.9C308.4,47.9 307.6,47.2 306.5,47.2L304.5,47.2L304.5,50.6Z" style="fill:white;fill-rule:nonzero;"/>
        </g>
        <g transform="matrix(1.89984,0,0,1.05087,-346.219,113.777)">
            <path d="M316.1,52.5L311.9,52.5L311,54.6L310.1,54.6L313.6,46.7L314.4,46.7L317.9,54.6L317,54.6L316.1,52.5ZM315.8,51.8L314,47.6L312.2,51.8L315.8,51.8Z" style="fill:white;fill-rule:nonzero;"/>
        </g>
        <g transform="matrix(1.89984,0,0,1.05087,-346.219,113.777)">
            <path d="M328.5,50.6C328.5,53.1 327,54.7 324.8,54.7C322.5,54.7 320.9,53.1 320.9,50.6C320.9,48.1 322.4,46.5 324.8,46.5C325.8,46.5 326.7,46.7 327.4,47.3L326.9,47.8C326.3,47.3 325.6,47.1 324.8,47.1C323,47.1 321.8,48.5 321.8,50.5C321.8,52.5 323,53.9 324.8,53.9C326.5,53.9 327.6,52.7 327.7,51L325.2,51L325.2,50.3L328.6,50.3C328.5,50.4 328.5,50.5 328.5,50.6" style="fill:white;fill-rule:nonzero;"/>
        </g>
        <g transform="matrix(1.89984,0,0,1.05087,-346.219,113.777)">
            <path d="M329.4,50.6C329.4,48.2 331,46.5 333.4,46.5C335.8,46.5 337.3,48.1 337.3,50.6C337.3,53.1 335.7,54.7 333.4,54.7C331,54.6 329.4,53 329.4,50.6M336.5,50.6C336.5,48.6 335.3,47.2 333.4,47.2C331.5,47.2 330.3,48.6 330.3,50.6C330.3,52.6 331.5,54 333.4,54C335.2,54 336.5,52.6 336.5,50.6" style="fill:white;fill-rule:nonzero;"/>
        </g>
        <g transform="matrix(1.89984,0,0,1.05087,-346.219,113.777)">
            <path d="M346.7,54.5L346.4,48L343.4,54.5L342.9,54.5L339.9,48L339.5,54.5L338.7,54.5L339.2,46.5L340,46.5L343.1,53.2L346.2,46.5L347.1,46.5L347.5,54.5L346.7,54.5Z" style="fill:white;fill-rule:nonzero;"/>
        </g>
        <g transform="matrix(1.89984,0,0,1.05087,-346.219,113.777)">
            <path d="M354.5,53.9L354.5,54.5L349.5,54.5L349.5,46.6L354.4,46.6L354.4,47.3L350.3,47.3L350.3,50.2L354.1,50.2L354.1,50.8L350.3,50.8L350.3,53.9L354.5,53.9Z" style="fill:white;fill-rule:nonzero;"/>
        </g>
        <g transform="matrix(1.89984,0,0,1.05087,-346.219,113.777)">
            <path d="M355.8,53.7L356.1,53.1C356.7,53.7 357.5,53.9 358.3,53.9C359.6,53.9 360.4,53.3 360.4,52.5C360.4,51.6 359.5,51.2 358.3,50.8L357.8,50.6C356.7,50.3 355.7,49.8 355.7,48.5C355.7,47.2 356.8,46.3 358.4,46.3C359.5,46.3 360.2,46.6 360.9,47.2L360.5,47.8C359.9,47.3 359.3,47 358.4,47C357.3,47 356.6,47.6 356.6,48.4C356.6,49.3 357.3,49.6 358.2,49.8L358.7,50C359.8,50.3 361.2,50.9 361.2,52.3C361.2,53.6 360.1,54.5 358.3,54.5C357.3,54.6 356.4,54.3 355.8,53.7" style="fill:white;fill-rule:nonzero;"/>
        </g>
    </g>
</svg>
