<?xml version="1.0" encoding="utf-8"?>
<!-- Generator: Adobe Illustrator 19.2.0, SVG Export Plug-In . SVG Version: 6.00 Build 0)  -->
<svg version="1.1" id="Layer_1" xmlns="http://www.w3.org/2000/svg" xmlns:xlink="http://www.w3.org/1999/xlink" x="0px" y="0px"
	 viewBox="0 0 73.1 64.9" style="enable-background:new 0 0 73.1 64.9;" xml:space="preserve">
<style type="text/css">
	.st0{fill:#FFFFFF;}
</style>
<g>
	<g>
		<path class="st0" d="M7,48.4c0,0.2-0.2,0.2-0.4,0.2H0.7c-0.2,0-0.3-0.1-0.3-0.2V37c0-0.2,0.1-0.3,0.3-0.3h1.6
			c0.2,0,0.2,0.1,0.2,0.3v9.5h4.1c0.2,0,0.4,0.1,0.4,0.2V48.4z"/>
		<path class="st0" d="M13.4,48.7c-3.3,0-6-2.7-6-6c0-3.3,2.7-6,6-6c3.3,0,6,2.7,6,6C19.4,46,16.7,48.7,13.4,48.7z M13.4,38.9
			c-2.1,0-3.8,1.7-3.8,3.8c0,2.1,1.7,3.8,3.8,3.8c2.1,0,3.8-1.7,3.8-3.8C17.2,40.6,15.5,38.9,13.4,38.9z"/>
		<path class="st0" d="M29,44.9c0,1.2-0.5,2.2-1.3,2.9C27,48.4,26,48.7,25,48.7c-1,0-2-0.3-2.7-0.9c-0.9-0.7-1.4-1.7-1.4-2.9V37
			c0-0.2,0.1-0.3,0.3-0.3h1.6c0.2,0,0.3,0.1,0.3,0.3v7.9c0,1.5,1.7,1.6,1.9,1.6c0.2,0,1.9-0.1,1.9-1.6V37c0-0.2,0.2-0.3,0.3-0.3h1.6
			c0.1,0,0.2,0.1,0.2,0.3V44.9z"/>
		<path class="st0" d="M37.9,48.4c0,0.2-0.2,0.2-0.4,0.2h-5.9c-0.2,0-0.3-0.1-0.3-0.2V37c0-0.2,0.2-0.3,0.3-0.3h1.6
			c0.2,0,0.3,0.1,0.3,0.3v9.5h4c0.2,0,0.4,0.1,0.4,0.2V48.4z"/>
		<path class="st0" d="M47.7,48.4c0,0.2-0.2,0.2-0.3,0.2h-7.6c-0.2,0-0.2-0.1-0.2-0.2V37c0-0.2,0.1-0.3,0.2-0.3h7.3
			c0.1,0,0.2,0.1,0.2,0.3v1.6c0,0.2-0.1,0.2-0.2,0.2h-5.5v2.8h5.2c0.2,0,0.3,0.1,0.3,0.3v1.6c0,0.2-0.2,0.3-0.3,0.3h-5.2v2.8h5.8
			c0.1,0,0.3,0.1,0.3,0.2V48.4z"/>
		<polygon class="st0" points="47.4,34 39.5,35.4 47.4,35.4 		"/>
	</g>
	<g>
		<path class="st0" d="M1.4,62.7c-2.1-2.5-1.8-6.3,0.7-8.4c2.1-1.8,5.1-1.8,7.3-0.3l0,0l0,0c0.1,0.1,0.1,0.3,0,0.4l-1.3,1.1
			c-0.1,0.1-0.2,0.1-0.3,0C6.5,54.9,4.7,55,3.5,56c-1.6,1.4-1.8,3.7-0.4,5.3c1.3,1.5,3.4,1.8,5,0.7c0,0,0,0,0,0
			c0.1-0.1,0.3,0,0.4,0.1l1,1.2c0.1,0.1,0.1,0.3,0,0.4c0,0,0,0,0,0h0v0c-0.3,0.2-0.7,0.4-1.1,0.6C6,65.4,3.2,64.8,1.4,62.7z"/>
		<path class="st0" d="M19.1,64.4c0,0,0,0.1,0,0.1c0,0.2-0.1,0.3-0.3,0.3H17c-0.1,0-0.2-0.1-0.2-0.1l0,0l-2.4-4.1L14.1,60h-1v4.5
			c0,0.2-0.1,0.3-0.3,0.3h-1.6c-0.2,0-0.3-0.1-0.3-0.3v-6.7h2l-1.8-3.2v0l-0.2-0.2v-1.1c0-0.1,0.2-0.2,0.3-0.2h4
			c1.3,0,2.3,0.3,3.1,1c0.8,0.6,1.2,1.5,1.2,2.5c0,1.4-1,2.9-3,3.4l0.1,0.1l0.3,0.5L19.1,64.4L19.1,64.4z M15.3,57.9
			c0.1,0,0.3,0,0.4,0c1.1-0.2,1.6-0.8,1.6-1.3c0-0.6-0.7-1.4-2.1-1.4h-1.4l1.2,2.2L15.3,57.9z"/>
		<path class="st0" d="M24.8,55.1v7.5h1.8c0.2,0,0.3,0.1,0.3,0.3v1.6c0,0.2-0.1,0.3-0.3,0.3h-5.8c-0.2,0-0.3-0.1-0.3-0.3V63
			c0-0.2,0.1-0.3,0.3-0.3h1.9v-7.5h-1.9c-0.2,0-0.3-0.1-0.3-0.2v-1.6c0-0.1,0.1-0.3,0.3-0.3h5.8c0.2,0,0.3,0.2,0.3,0.3v1.6
			c0,0.2-0.1,0.2-0.3,0.2H24.8z"/>
		<path class="st0" d="M36.2,61.9c0,0.2-0.1,0.2-0.3,0.2h-0.4l0.6,2.3l0,0.1v0c0,0.2-0.1,0.3-0.2,0.3h-1.7c-0.1,0-0.2-0.1-0.2-0.2
			l0,0l-0.6-2.5h-2.4l-0.6,2.5c0,0,0,0,0,0c0,0.1-0.1,0.2-0.2,0.2h-1.7c-0.1,0-0.3-0.1-0.3-0.3v-0.1c0.1,0,0,0,0,0l2.8-11.2l0-0.1
			c0-0.1,0.1-0.2,0.3-0.2H33c0.1,0,0.2,0.1,0.2,0.2l0,0.1L35,60h0.9c0.2,0,0.3,0.1,0.3,0.2V61.9z M32.8,60l-0.6-2.5L31.5,60H32.8z"
			/>
		<path class="st0" d="M44,54.9c0,0.2-0.2,0.2-0.4,0.2h-2.6v9.4c0,0.2-0.2,0.3-0.3,0.3h-1.6c-0.1,0-0.2-0.2-0.2-0.3v-9.4h-2.7
			c-0.1,0-0.2-0.1-0.2-0.2v-1.6c0-0.1,0.1-0.2,0.2-0.2h7.5c0.2,0,0.4,0.1,0.4,0.2V54.9z"/>
		<path class="st0" d="M49.6,55.1v7.5h1.8c0.2,0,0.4,0.1,0.4,0.3v1.6c0,0.2-0.2,0.3-0.4,0.3h-5.8c-0.2,0-0.2-0.1-0.2-0.3V63
			c0-0.2,0.1-0.3,0.2-0.3h1.8v-7.5h-1.8c-0.2,0-0.2-0.1-0.2-0.2v-1.6c0-0.1,0.1-0.3,0.2-0.3h5.8c0.2,0,0.4,0.2,0.4,0.3v1.6
			c0,0.2-0.2,0.2-0.4,0.2H49.6z"/>
		<path class="st0" d="M61,53.3C61,53.4,61,53.4,61,53.3l-2.8,11.3c0,0,0,0,0,0c0,0.1-0.1,0.2-0.2,0.2h-1.8c-0.1,0-0.2-0.1-0.2-0.2
			L53,53.4c0,0,0,0,0,0v0c0-0.2,0.1-0.2,0.3-0.2h1.7c0.1,0,0.2,0,0.2,0.2v0l1.8,7.2l1.8-7.2v0c0.1-0.1,0.2-0.2,0.3-0.2h1.7
			C60.8,53.1,61,53.2,61,53.3z"/>
		<path class="st0" d="M67.2,64.9c-3.3,0-5.9-2.7-5.9-5.9c0-3.3,2.7-5.9,5.9-5.9c3.3,0,5.9,2.7,5.9,5.9
			C73.1,62.2,70.4,64.9,67.2,64.9z M67.2,55.2c-2.1,0-3.8,1.7-3.8,3.8c0,2.1,1.7,3.8,3.8,3.8c2.1,0,3.8-1.7,3.8-3.8
			C70.9,56.9,69.2,55.2,67.2,55.2z"/>
	</g>
	<g>
		<g>
			<g>
				<path class="st0" d="M28.9,28.5H0.4V0h28.5V28.5z M1.5,27.5h26.4V1H1.5V27.5z"/>
			</g>
		</g>
		<g>
			<polygon class="st0" points="10.1,17.5 10.1,17.3 10.1,17 10.1,16.9 9.6,16.9 9.6,17 9.6,17.3 9.6,17.5 9.6,18 9.6,18.2 
				9.6,18.6 10.1,18.6 10.1,18.2 10.1,18 			"/>
			<polygon class="st0" points="11,18 11.5,18 11.7,18 12.2,18 12.2,17.5 11.7,17.5 11.5,17.5 11,17.5 10.9,17.5 10.4,17.5 10.4,18 
				10.9,18 			"/>
			<polygon class="st0" points="11,17 11,17 11,17.2 11.5,17.2 11.5,17 11.5,17 11.5,16.9 11.5,16.8 11.5,16.6 11.5,16.1 11.5,15.9 
				11.5,15.5 11,15.5 11,15.9 11,16.1 11,16.6 11,16.8 11,16.9 			"/>
			<polygon class="st0" points="11.5,18.9 11.5,18.7 11.5,18.2 11,18.2 11,18.7 11,18.9 11,19.4 11,19.5 11,20 11.5,20 11.5,19.5 
				11.5,19.4 			"/>
			<polygon class="st0" points="15.7,18.9 15.2,18.9 15,18.9 14.7,18.9 14.7,18.9 14.7,18.9 14.5,18.9 14.5,18.9 14.5,19.4 
				14.5,19.4 14.7,19.4 14.7,19.4 14.9,19.4 15,19.4 15.2,19.4 15.7,19.4 15.8,19.4 16.3,19.4 16.3,18.9 15.8,18.9 			"/>
			<polygon class="st0" points="14.3,18.9 14.3,18.7 14.3,18.2 13.8,18.2 13.8,18.7 13.8,18.9 13.8,19.4 13.8,19.5 13.8,20 14.3,20 
				14.3,19.5 14.3,19.4 			"/>
			<polygon class="st0" points="10.1,14.7 10.1,14.5 10.1,14.1 9.6,14.1 9.6,14.5 9.6,14.7 9.6,15.2 9.6,15.4 9.6,15.8 10.1,15.8 
				10.1,15.4 10.1,15.2 			"/>
			<polygon class="st0" points="16.6,18.9 16.6,18.9 16.6,19.4 16.6,19.4 16.6,20 17.1,20 17.1,19.6 17.1,19.6 17.1,18.7 17.1,18.7 
				17.1,18.2 16.6,18.2 			"/>
			<polygon class="st0" points="10.1,9.2 10.1,9 10.1,8.6 9.6,8.6 9.6,9 9.6,9.2 9.6,9.7 9.6,9.9 9.6,10.3 10.1,10.3 10.1,9.9 
				10.1,9.7 			"/>
			<polygon class="st0" points="10.9,9.7 11.7,9.7 11.7,9.7 12.2,9.7 12.2,9.2 11.5,9.2 11.5,9.2 11,9.2 11,9.2 10.4,9.2 10.4,9.7 
				10.9,9.7 			"/>
			<polygon class="st0" points="11,15.2 11.5,15.2 11.7,15.2 12.2,15.2 12.2,14.7 11.7,14.7 11.5,14.7 11,14.7 10.9,14.7 10.4,14.7 
				10.4,15.2 10.9,15.2 			"/>
			<polygon class="st0" points="11,11.5 11,11.7 11.5,11.7 11.5,11.5 11.5,11.5 11.5,11.2 11.5,11.1 11.5,10.6 11.5,10.4 11.5,9.9 
				11,9.9 11,10.4 11,10.6 11,11.1 11,11.2 11,11.5 			"/>
			<polygon class="st0" points="11.5,14.5 11.5,14 11.5,13.8 11.5,13.3 11.5,13.2 11.5,12.7 11,12.7 11,13.2 11,13.3 11,13.8 11,14 
				11,14.5 			"/>
			<polygon class="st0" points="11,12.5 11.5,12.5 11.7,12.5 12.2,12.5 12.2,12 11.7,12 11.5,12 11,12 10.9,12 10.4,12 10.4,12.5 
				10.9,12.5 			"/>
			<polygon class="st0" points="10.1,12 10.1,11.8 10.1,11.5 10.1,11.5 10.1,11.3 9.6,11.3 9.6,11.5 9.6,11.5 9.6,11.8 9.6,12 
				9.6,12.5 9.6,12.6 9.6,13.1 10.1,13.1 10.1,12.6 10.1,12.5 			"/>
			<polygon class="st0" points="12.2,20.2 11.7,20.2 11.5,20.2 11,20.2 10.9,20.2 10.4,20.2 10.4,20.7 10.9,20.7 11,20.7 11.5,20.7 
				11.7,20.7 12.2,20.7 			"/>
			<polygon class="st0" points="15.7,20.2 15.7,20.1 15.7,19.6 15.2,19.6 15.2,20.1 15.2,20.2 15.2,20.7 15.2,20.9 15.2,21.4 
				15.7,21.4 15.7,20.9 15.7,20.7 			"/>
			<polygon class="st0" points="14.7,20.7 14.9,20.7 14.9,20.2 14.7,20.2 14.7,20.2 14.5,20.2 14.5,20.2 14.3,20.2 13.8,20.2 
				13.6,20.2 13.2,20.2 13.2,20.7 13.6,20.7 13.8,20.7 14.3,20.7 14.5,20.7 14.5,20.7 14.7,20.7 			"/>
			<polygon class="st0" points="17.7,20.2 17.2,20.2 17.1,20.2 16.6,20.2 16.4,20.2 15.9,20.2 15.9,20.7 16.4,20.7 16.6,20.7 
				17.1,20.7 17.2,20.7 17.7,20.7 			"/>
			<polygon class="st0" points="12.9,20.2 12.9,20.1 12.9,19.6 12.4,19.6 12.4,20.1 12.4,20.2 12.4,20.7 12.4,20.9 12.4,21.4 
				12.9,21.4 12.9,20.9 12.9,20.7 			"/>
			<path class="st0" d="M18.7,18h0.4h0.2h0.5H20h0.3v0c0.5,0,0.9-0.4,0.9-0.9c0-0.5-0.4-0.9-0.9-0.9c-0.5,0-0.9,0.4-0.9,0.9v0.2h0.5
				V17c0-0.2,0.2-0.4,0.4-0.4c0.2,0,0.4,0.2,0.4,0.4c0,0.2-0.2,0.4-0.4,0.4H20h-0.2h-0.5h-0.2h-0.4V18z"/>
			<polygon class="st0" points="19.3,18.2 19.3,18.7 19.3,18.9 19.3,19.4 19.3,19.6 19.3,20 19.8,20 19.8,19.6 19.8,19.4 19.8,18.9 
				19.8,18.7 19.8,18.2 			"/>
			<polygon class="st0" points="17.9,19.6 17.9,20.1 17.9,20.2 17.9,20.7 17.9,20.9 17.9,21.4 18.4,21.4 18.4,20.9 18.4,20.7 
				18.4,20.2 18.4,20.1 18.4,19.6 			"/>
			<polygon class="st0" points="10.1,20.2 10.1,20.1 10.1,19.6 9.6,19.6 9.6,20.1 9.6,20.2 9.6,20.7 9.6,20.9 9.6,21.4 10.1,21.4 
				10.1,20.9 10.1,20.7 			"/>
			<polygon class="st0" points="11.5,8.9 11.5,8.5 11.5,8.3 11.5,7.8 11.5,7.6 11.5,7.2 11,7.2 11,7.6 11,7.8 11,8.3 11,8.5 11,8.9 
							"/>
			<polygon class="st0" points="12.4,7.8 12.4,7.8 11.8,7.8 11.8,8.3 12.2,8.3 12.2,8.3 13.1,8.3 13.1,8.3 13.5,8.3 13.5,7.8 
				12.9,7.8 12.9,7.8 			"/>
			<path class="st0" d="M14.5,7.8v0.5h0.2l0,0c0.2,0,0.4,0.2,0.4,0.4c0,0.2-0.2,0.4-0.4,0.4l0,0h-0.4l0,0h-0.5l0,0h-0.6v0.5h0.5l0,0
				h0.9l0,0h0.2l0,0c0.5,0,0.9-0.4,0.9-0.9c0-0.5-0.4-0.9-0.9-0.9l0,0H14.5z"/>
			<polygon class="st0" points="13.8,8.3 13.8,8.5 13.8,8.9 14.3,8.9 14.3,8.5 14.3,8.3 14.3,7.8 14.3,7.6 14.3,7.2 13.8,7.2 
				13.8,7.6 13.8,7.8 			"/>
			<path class="st0" d="M14.7,16.1h-0.2v0.5h0.1h0.1h0.1l0,0c0.2,0,0.4,0.2,0.4,0.4l0,0v0.2v0.2V18v0.2v0.5h0.5v-0.5V18v-0.5v-0.2
				V17C15.7,16.5,15.2,16.1,14.7,16.1z"/>
			<path class="st0" d="M9.2,7.8c-0.5,0-0.9,0.4-0.9,0.9c0,0.5,0.4,0.9,0.9,0.9l0,0h0.2V9.2H9.2l0,0C9,9.2,8.8,9,8.8,8.8
				c0-0.2,0.2-0.4,0.4-0.4l0,0h0.2l0,0h0.9l0,0h0.5V7.8h-0.6l0,0H9.6l0,0H9.2L9.2,7.8z"/>
			<polygon class="st0" points="10.4,6.9 10.9,6.9 10.9,6.9 11.7,6.9 11.7,6.9 12.2,6.9 12.2,6.4 11.5,6.4 11.5,6.4 11,6.4 11,6.4 
				10.4,6.4 			"/>
			<polygon class="st0" points="13.5,18.9 12.9,18.9 12.9,18.9 12.4,18.9 12.4,18.9 11.8,18.9 11.8,19.4 12.2,19.4 12.2,19.4 
				13.1,19.4 13.1,19.4 13.5,19.4 			"/>
			<path class="st0" d="M11.5,6.2V6c0-0.2,0.2-0.4,0.4-0.4c0.2,0,0.4,0.2,0.4,0.4v0.3v0.2v0.5v0.2v0.4h0.5V7.1V6.9V6.4V6.2V6
				C12.9,5.5,12.5,5,12,5C11.5,5,11,5.5,11,6v0.2H11.5z"/>
			<path class="st0" d="M14.3,6.2V6c0-0.2,0.2-0.4,0.4-0.4c0.2,0,0.4,0.2,0.4,0.4c0,0.2-0.2,0.4-0.4,0.4h-0.4l0,0h-0.5l0,0h-0.6v0.5
				h0.5l0,0h0.9l0,0h0.2c0.5,0,0.9-0.4,0.9-0.9c0-0.5-0.4-0.9-0.9-0.9c-0.5,0-0.9,0.4-0.9,0.9l0,0.2H14.3z"/>
			<path class="st0" d="M12.4,22.4v0.2c0,0.3-0.2,0.4-0.4,0.4c-0.2,0-0.4-0.2-0.4-0.4v-0.3v-0.2v-0.5v-0.2V21H11v0.5v0.2v0.5v0.2
				v0.3l0,0c0,0.5,0.4,0.9,0.9,0.9c0.5,0,0.9-0.4,0.9-0.9l0,0v-0.2H12.4z"/>
			<path class="st0" d="M10.8,21.6h-0.6l0,0H9.6l0,0H9.2c-0.5,0-0.9,0.4-0.9,0.9c0,0.5,0.4,0.9,0.9,0.9c0.5,0,0.9-0.4,0.9-0.9v-0.2
				H9.6v0.2c0,0.2-0.2,0.4-0.4,0.4c-0.2,0-0.4-0.2-0.4-0.4c0-0.2,0.2-0.4,0.4-0.4h0.2h0.2h0.5h0.2h0.5L10.8,21.6z"/>
			<path class="st0" d="M9.2,6.9h0.2V6.4H9.2C9,6.4,8.8,6.2,8.8,6c0-0.2,0.2-0.4,0.4-0.4c0.2,0,0.4,0.2,0.4,0.4v0.3v0.2v0.5v0.2v0.4
				h0.5V7.1V6.9V6.4V6.2V6C10.1,5.5,9.7,5,9.2,5C8.7,5,8.3,5.5,8.3,6C8.3,6.5,8.7,6.9,9.2,6.9z"/>
			<polygon class="st0" points="15.9,18 16.4,18 16.6,18 17.1,18 17.2,18 17.7,18 17.7,17.5 17.2,17.5 17.1,17.5 16.6,17.5 
				16.4,17.5 15.9,17.5 			"/>
			<path class="st0" d="M9.2,20.8L9.2,20.8l0.2,0v-0.5H9.2l0,0c-0.2,0-0.4-0.2-0.4-0.4c0-0.2,0.2-0.4,0.4-0.4v0h0.2l0,0h0.9l0,0h0.5
				l0-0.5h-0.6l0,0H9.6l0,0H9.2l0,0c-0.5,0-0.9,0.4-0.9,0.9C8.3,20.3,8.7,20.8,9.2,20.8z"/>
			<path class="st0" d="M17.1,17.2V17l0,0c0-0.2,0.2-0.4,0.4-0.4c0.2,0,0.4,0.2,0.4,0.4l0,0v0.2v0.2V18v0.2v0.5h0.5v-0.5V18v-0.5
				v-0.2V17h0c0-0.5-0.4-0.9-0.9-0.9c-0.5,0-0.9,0.4-0.9,0.9l0,0v0.2H17.1z"/>
			<polygon class="st0" points="19.1,18.9 18.6,18.9 18.4,18.9 17.9,18.9 17.8,18.9 17.3,18.9 17.3,19.4 17.8,19.4 17.9,19.4 
				18.4,19.4 18.6,19.4 19.1,19.4 			"/>
			<path class="st0" d="M20.3,21.6h-0.2v0.5h0.2c0.2,0,0.4,0.2,0.4,0.4c0,0.2-0.2,0.4-0.4,0.4c-0.2,0-0.4-0.2-0.4-0.4v-0.2v-0.2
				v-0.5v-0.2V21h-0.5v0.5v0.2v0.5v0.2v0.2c0,0.5,0.4,0.9,0.9,0.9c0.5,0,0.9-0.4,0.9-0.9C21.2,22.1,20.8,21.6,20.3,21.6z"/>
			<path class="st0" d="M20.3,18.9h-0.2v0.5h0.2c0.2,0,0.4,0.2,0.4,0.4c0,0.2-0.2,0.4-0.4,0.4H20h-0.2h-0.5h-0.2h-0.4v0.5h0.4h0.2
				h0.5H20h0.3c0.5,0,0.9-0.4,0.9-0.9C21.2,19.3,20.8,18.9,20.3,18.9z"/>
			<polygon class="st0" points="19.1,21.6 18.6,21.6 18.4,21.6 17.9,21.6 17.8,21.6 17.3,21.6 17.3,22.1 17.8,22.1 17.9,22.1 
				18.4,22.1 18.6,22.1 19.1,22.1 			"/>
			<polygon class="st0" points="13.5,21.6 12.9,21.6 12.9,21.6 12.4,21.6 12.4,21.6 11.8,21.6 11.8,22.1 12.2,22.1 12.4,22.1 
				12.9,22.1 13.1,22.1 13.5,22.1 			"/>
			<path class="st0" d="M18.4,22.4h-0.5v0.2l0,0c0,0.3-0.2,0.4-0.4,0.4c-0.2,0-0.4-0.2-0.4-0.4l0,0v-0.2l0,0v-0.9l0,0V21h-0.5v0.6
				l0,0v0.5l0,0v0.4l0,0c0,0.5,0.4,1,0.9,1c0.5,0,0.9-0.4,0.9-1h0V22.4z"/>
			<polygon class="st0" points="12.4,9.7 12.4,9.9 12.4,10.3 12.9,10.3 12.9,9.9 12.9,9.7 12.9,9.2 12.9,9 12.9,8.6 12.4,8.6 
				12.4,9 12.4,9.2 			"/>
			<polygon class="st0" points="16.3,21.6 15.8,21.6 15.7,21.6 15.2,21.6 15,21.6 14.7,21.6 14.5,21.6 14.5,22.1 14.7,22.1 
				14.7,22.1 14.7,22.1 15,22.1 15.2,22.1 15.7,22.1 15.8,22.1 16.3,22.1 			"/>
			<path class="st0" d="M15.7,22.4h-0.5v0.2c0,0.2-0.2,0.4-0.4,0.4l0,0c-0.2,0-0.4-0.2-0.4-0.4v-0.3v-0.2v-0.5v-0.2V21h-0.5v0.5
				l0,0.2v0.5v0.2v0.3h0c0,0.5,0.4,0.9,0.9,0.9l0,0c0.1,0,0.1,0,0.2,0c0.4-0.1,0.8-0.5,0.8-0.9l0,0V22.4z"/>
			<polygon class="st0" points="14.8,17.5 14.7,17.5 14.7,17.5 14.6,17.5 14.5,17.5 14.3,17.5 13.8,17.5 13.6,17.5 13.2,17.5 
				13.2,18 13.6,18 13.8,18 14.3,18 14.5,18 14.7,18 14.9,18 14.9,17.5 			"/>
			<polygon class="st0" points="12.9,17.5 12.9,17.3 12.9,17.3 12.9,17 12.9,17 12.9,16.9 12.4,16.9 12.4,17 12.4,17 12.4,17.3 
				12.4,17.3 12.4,17.5 12.4,18 12.4,18.2 12.4,18.6 12.9,18.6 12.9,18.2 12.9,18 			"/>
			<polygon class="st0" points="12.9,15.8 12.9,15.4 12.9,15.2 12.9,14.7 12.9,14.5 12.9,14.1 12.4,14.1 12.4,14.5 12.4,14.7 
				12.4,15.2 12.4,15.4 12.4,15.8 			"/>
			<polygon class="st0" points="12.2,16.6 12.2,16.6 13.1,16.6 13.1,16.6 13.5,16.6 13.5,16.1 12.9,16.1 12.9,16.1 12.4,16.1 
				12.4,16.1 11.8,16.1 11.8,16.6 			"/>
			<polygon class="st0" points="13.8,11.1 13.8,11.2 13.8,11.5 13.8,11.6 13.8,11.7 14.3,11.7 14.3,11.6 14.3,11.5 14.3,11.2 
				14.3,11.1 14.3,10.6 14.3,10.4 14.3,9.9 13.8,9.9 13.8,10.4 13.8,10.6 			"/>
			<path class="st0" d="M15.7,14.3c0-0.5-0.4-0.9-0.9-0.9l0,0h-0.2v0.5h0.2l0,0c0.2,0,0.4,0.2,0.4,0.4c0,0.2-0.2,0.4-0.4,0.4l0,0
				h-0.2h-0.2h-0.5h-0.2h-0.5v0.5h0.5h0.1h0.5h0.2h0.2l0,0C15.2,15.2,15.7,14.8,15.7,14.3z"/>
			<polygon class="st0" points="13.8,15.5 13.8,15.9 13.8,16.1 13.8,16.6 13.8,16.8 13.8,17 13.8,17.1 13.8,17.2 14.3,17.2 
				14.3,17.1 14.3,17 14.3,16.8 14.3,16.6 14.3,16.1 14.3,15.9 14.3,15.5 			"/>
			<polygon class="st0" points="13.8,13.8 13.8,14 13.8,14.5 14.3,14.5 14.3,14 14.3,13.8 14.3,13.3 14.3,13.2 14.3,12.7 13.8,12.7 
				13.8,13.2 13.8,13.3 			"/>
			<path class="st0" d="M9.2,12.5L9.2,12.5l0.2,0V12H9.2l0,0c-0.2,0-0.4-0.2-0.4-0.4c0-0.2,0.2-0.4,0.4-0.4h0.2l0,0h0.9l0,0h0.5
				v-0.5h-0.6l0,0H9.6l0,0H9.2l0,0c-0.5,0-0.9,0.4-0.9,0.9C8.3,12,8.7,12.5,9.2,12.5z"/>
			<path class="st0" d="M9.2,15.2L9.2,15.2h0.2v-0.5H9.2l0,0c-0.2,0-0.4-0.2-0.4-0.4c0-0.2,0.2-0.4,0.4-0.4l0,0h0.2l0,0h0.9l0,0h0.5
				l0-0.5h-0.5h-0.2H9.6H9.4H9.2l0,0c-0.5,0-0.9,0.4-0.9,0.9C8.3,14.8,8.7,15.2,9.2,15.2z"/>
			<polygon class="st0" points="12.2,13.8 12.2,13.8 13.1,13.8 13.1,13.8 13.5,13.8 13.5,13.3 13.1,13.3 12.9,13.3 12.4,13.3 
				12.2,13.3 11.8,13.3 11.8,13.8 			"/>
			<polygon class="st0" points="12.9,10.6 12.4,10.6 12.4,10.6 11.8,10.6 11.8,11.1 12.2,11.1 12.2,11.1 13.1,11.1 13.1,11.1 
				13.5,11.1 13.5,10.6 12.9,10.6 			"/>
			<polygon class="st0" points="12.9,13.1 12.9,12.6 12.9,12.5 12.9,12 12.9,11.8 12.9,11.5 12.9,11.5 12.9,11.3 12.4,11.3 
				12.4,11.5 12.4,11.5 12.4,11.8 12.4,12 12.4,12.5 12.4,12.6 12.4,13.1 			"/>
			<path class="st0" d="M14.7,10.6L14.7,10.6h-0.2v0.5h0.2c0.2,0,0.4,0.2,0.4,0.4c0,0.2-0.2,0.4-0.4,0.4l0,0h-0.2h-0.2h-0.5h-0.2
				h-0.5v0.5h0.5h0.2h0.5h0.2h0.2v0c0.5,0,0.9-0.4,0.9-0.9C15.7,11,15.2,10.6,14.7,10.6z"/>
			<path class="st0" d="M9.2,18h0.2v-0.5H9.2c-0.2,0-0.4-0.2-0.4-0.4c0-0.2,0.2-0.4,0.4-0.4h0.2l0,0h0.9l0,0h0.5v-0.5h-0.6l0,0H9.6
				l0,0H9.2c-0.5,0-0.9,0.4-0.9,0.9C8.3,17.6,8.7,18,9.2,18z"/>
		</g>
	</g>
</g>
</svg>
