<?xml version="1.0" encoding="UTF-8" standalone="no"?>
<!DOCTYPE svg PUBLIC "-//W3C//DTD SVG 1.1//EN" "http://www.w3.org/Graphics/SVG/1.1/DTD/svg11.dtd">
<svg width="100%" height="100%" viewBox="0 0 100 23" version="1.1" xmlns="http://www.w3.org/2000/svg" xmlns:xlink="http://www.w3.org/1999/xlink" xml:space="preserve" xmlns:serif="http://www.serif.com/" style="fill-rule:evenodd;clip-rule:evenodd;stroke-linejoin:round;stroke-miterlimit:2;">
    <path d="M93.605,22.42C95.67,22.42 96.871,21.586 97.398,20.575L97.5,22.127L99.946,22.127L99.946,16.138L94.074,16.138L94.074,18.291L96.841,18.291L96.841,18.423C96.798,19.243 95.846,20.033 94.469,20.033C92.8,20.033 91.907,18.906 91.907,16.973C91.907,15.011 92.8,13.839 94.44,13.839C95.582,13.839 96.256,14.411 96.505,15.363L99.99,14.733C99.492,12.653 97.398,11.439 94.469,11.439C90.75,11.439 88.423,13.737 88.423,17.018C88.423,20.267 90.355,22.42 93.605,22.42M82.471,18.496L80.89,18.496L80.89,22.127L77.551,22.127L77.551,11.731L83.482,11.731C86.483,11.731 87.743,13.122 87.743,15.069C87.743,16.314 87.113,17.486 85.722,18.042L88.02,22.127L84.39,22.127L82.471,18.496ZM80.89,16.402L82.706,16.402C83.76,16.402 84.228,15.904 84.228,15.128C84.228,14.382 83.775,13.928 82.706,13.928L80.89,13.928L80.89,16.402ZM70.576,19.799L70.576,17.954L75.876,17.954L75.876,15.743L70.576,15.743L70.576,14.059L76.125,14.059L76.125,11.732L67.237,11.732L67.237,22.127L76.227,22.127L76.227,19.799L70.576,19.799ZM66.134,19.14C66.134,20.81 64.919,22.127 62.357,22.127L55.694,22.127L55.694,11.732L62.269,11.732C64.626,11.732 65.885,12.712 65.885,14.338C65.885,15.45 65.197,16.343 63.85,16.651C65.329,16.871 66.134,17.764 66.134,19.14M59.033,13.898L59.033,15.831L61.2,15.831C61.976,15.831 62.357,15.421 62.357,14.836C62.357,14.264 61.976,13.898 61.2,13.898L59.033,13.898ZM62.605,18.862C62.605,18.218 62.137,17.823 61.332,17.823L59.033,17.823L59.033,19.96L61.332,19.96C62.181,19.96 62.605,19.492 62.605,18.862M44.895,19.945L44.895,22.127L54.677,22.127L54.677,19.755L49.054,19.755L54.442,13.913L54.442,11.732L45.1,11.732L45.1,14.118L50.313,14.118L44.895,19.945ZM33.515,11.732L33.515,18.086C33.515,20.751 35.463,22.42 38.831,22.42C42.184,22.42 44.131,20.751 44.131,18.101L44.131,11.732L40.793,11.732L40.793,17.837C40.793,19.052 40.046,19.799 38.831,19.799C37.557,19.799 36.869,19.052 36.869,17.837L36.869,11.732L33.515,11.732ZM26.774,19.799L26.774,17.954L32.074,17.954L32.074,15.743L26.774,15.743L26.774,14.059L32.323,14.059L32.323,11.732L23.435,11.732L23.435,22.127L32.426,22.127L32.426,19.799L26.774,19.799ZM16.855,18.496L15.274,18.496L15.274,22.127L11.935,22.127L11.935,11.731L17.865,11.731C20.867,11.731 22.126,13.122 22.126,15.069C22.126,16.314 21.497,17.486 20.105,18.042L22.404,22.127L18.773,22.127L16.855,18.496ZM15.274,16.402L17.089,16.402C18.144,16.402 18.612,15.904 18.612,15.128C18.612,14.382 18.158,13.928 17.089,13.928L15.274,13.928L15.274,16.402ZM7.257,11.731L3.524,15.801L3.524,11.731L0.185,11.731L0.185,22.127L3.524,22.127L3.524,19.433L4.841,18.057L7.462,22.127L11.255,22.127L7.199,15.948L11.123,11.731L7.257,11.731ZM64.531,0.08L62.7,10.476L71.691,10.476L72.101,8.148L66.449,8.148L66.786,6.303L72.086,6.303L72.467,4.092L67.167,4.092L67.474,2.408L73.023,2.408L73.419,0.08L64.531,0.08ZM50.985,10.476L54.045,10.476L54.045,4.194L54.089,4.194C54.235,4.546 54.587,5.088 54.807,5.483L58.379,10.476L61.747,10.476L61.747,0.08L58.687,0.08L58.687,6.347L58.643,6.347C58.467,5.951 58.174,5.453 57.91,5.029L54.528,0.08L50.985,0.08L50.985,10.476ZM45.971,10.476L49.309,10.476L49.309,0.08L45.971,0.08L45.971,10.476ZM44.856,7.489C44.856,9.158 43.641,10.476 41.078,10.476L34.416,10.476L34.416,0.08L40.991,0.08C43.348,0.08 44.607,1.061 44.607,2.686C44.607,3.799 43.919,4.692 42.572,5C44.051,5.219 44.856,6.112 44.856,7.489M37.755,2.247L37.755,4.18L39.922,4.18C40.697,4.18 41.078,3.77 41.078,3.184C41.078,2.613 40.697,2.247 39.922,2.247L37.755,2.247ZM41.327,7.211C41.327,6.566 40.859,6.171 40.054,6.171L37.755,6.171L37.755,8.309L40.054,8.309C40.903,8.309 41.327,7.84 41.327,7.211M27.871,6.845L26.289,6.845L26.289,10.476L22.951,10.476L22.951,0.08L28.881,0.08C31.883,0.08 33.142,1.471 33.142,3.418C33.142,4.663 32.512,5.834 31.121,6.39L33.42,10.476L29.789,10.476L27.871,6.845ZM26.289,4.751L28.105,4.751C29.159,4.751 29.628,4.253 29.628,3.477C29.628,2.73 29.174,2.276 28.105,2.276L26.289,2.276L26.289,4.751ZM11.008,0.08L11.008,6.435C11.008,9.099 12.956,10.769 16.323,10.769C19.676,10.769 21.624,9.099 21.624,6.449L21.624,0.08L18.285,0.08L18.285,6.185C18.285,7.401 17.539,8.148 16.323,8.148C15.049,8.148 14.362,7.401 14.362,6.185L14.362,0.08L11.008,0.08ZM9.949,0.08L9.949,2.671L6.648,2.671L6.648,10.476L3.31,10.476L3.31,2.671L0.01,2.671L0.01,0.08L9.949,0.08Z" style="fill:white;fill-rule:nonzero;"/>
</svg>
