<?xml version="1.0" encoding="UTF-8" standalone="no"?>
<!DOCTYPE svg PUBLIC "-//W3C//DTD SVG 1.1//EN" "http://www.w3.org/Graphics/SVG/1.1/DTD/svg11.dtd">
<svg width="100%" height="100%" viewBox="0 0 283 86" version="1.1" xmlns="http://www.w3.org/2000/svg" xmlns:xlink="http://www.w3.org/1999/xlink" xml:space="preserve" xmlns:serif="http://www.serif.com/" style="fill-rule:evenodd;clip-rule:evenodd;stroke-linejoin:round;stroke-miterlimit:2;">
    <g>
        <path d="M29.54,0C13.25,0 0,13.12 0,29.25C0,29.32 0,29.4 0.01,29.47C0,29.5 0,29.54 0,29.58L0,29.74C0,29.9 0.02,30.06 0.02,30.23C0.03,30.58 0.05,30.93 0.07,31.27C0.11,31.84 0.16,32.41 0.24,32.96C0.3,33.45 0.38,33.94 0.46,34.42C0.47,34.48 0.48,34.53 0.49,34.58C3.04,48.17 15.09,58.5 29.54,58.5C45.83,58.5 59.08,45.38 59.08,29.25C59.09,13.12 45.83,0 29.54,0M8.17,40.77C9.7,41.47 11.41,41.86 13.2,41.86C19.86,41.86 25.29,36.5 25.29,29.89C25.29,23.29 19.87,17.92 13.2,17.92C10.84,17.92 8.64,18.6 6.78,19.77C9.58,16.54 13.72,14.48 18.34,14.48C26.74,14.48 33.58,21.24 33.58,29.56C33.58,37.87 26.75,44.64 18.34,44.64C14.43,44.66 10.87,43.18 8.17,40.77M18.35,47.74C28.47,47.74 36.7,39.59 36.7,29.57C36.7,19.55 28.47,11.41 18.35,11.41C16.39,11.41 14.5,11.72 12.73,12.29C16.01,10.18 19.92,8.94 24.11,8.94C35.69,8.94 45.11,18.27 45.11,29.73C45.11,41.2 35.69,50.52 24.11,50.52C19.48,50.52 15.21,49.01 11.73,46.49C13.79,47.29 16.01,47.74 18.35,47.74M29.54,55.42C25.42,55.42 21.52,54.48 18.05,52.81C19.99,53.31 22.01,53.6 24.11,53.6C37.41,53.6 48.22,42.89 48.22,29.73C48.22,16.57 37.4,5.86 24.11,5.86C20.5,5.86 17.08,6.67 14.01,8.08C18.38,4.93 23.75,3.06 29.55,3.06C44.13,3.06 55.99,14.8 55.99,29.23C55.98,43.68 44.12,55.42 29.54,55.42" style="fill:white;fill-rule:nonzero;"/>
        <path d="M99.77,14.57L99.77,20.54L97.22,20.54L97.22,35.76C97.22,44.38 91.78,47.8 84.02,47.8C76.27,47.8 70.82,44.38 70.82,35.76L70.82,20.55L68.22,20.55L68.22,14.58L81.08,14.58L81.08,20.55L78.48,20.55L78.48,35.77C78.48,39.19 79.73,41.84 84.07,41.84C88.26,41.84 89.56,39.19 89.56,35.77L89.56,20.55L86.96,20.55L86.96,14.58L99.77,14.58L99.77,14.57Z" style="fill:white;fill-rule:nonzero;"/>
        <path d="M114.26,21.36L111.18,31.86L117.16,31.86L114.32,21.36L114.26,21.36ZM119.56,14.57L127.84,41.35L130.44,41.35L130.44,47.32L116.81,47.32L116.81,41.35L119.51,41.35L118.45,37.4L109.63,37.4L108.38,41.35L111.17,41.35L111.17,47.32L97.94,47.32L97.94,41.35L100.97,41.35L107.57,20.54L104.44,20.54L104.44,14.57L119.56,14.57Z" style="fill:white;fill-rule:nonzero;"/>
        <path d="M131.65,13.61L141.48,13.61L141.48,41.35L144.08,41.35L144.08,47.32L131.65,47.32L131.65,41.35L134.25,41.35L134.25,19.58L131.65,19.58L131.65,13.61Z" style="fill:white;fill-rule:nonzero;"/>
        <path d="M159.78,30.95C159.78,28.49 158.33,27.68 156.46,27.68C154.48,27.68 153.09,28.5 153.09,30.95C153.09,33.41 154.54,34.18 156.46,34.18C158.33,34.17 159.78,33.35 159.78,30.95M156.12,52.52C159.01,52.52 162.04,51.9 162.04,49.87C162.04,48.86 161.22,48.09 159.58,47.95L151.63,47.47C151.05,48.19 150.57,48.63 150.57,49.93C150.58,52.33 153.47,52.52 156.12,52.52M147.98,46.41C144.9,44.34 145.43,40.1 149.95,37.79L149.95,37.69C147.54,36.49 146.05,33.88 146.05,30.95C146.05,25.32 150.24,22.76 156.45,22.76C157.7,22.76 159.05,22.96 160.02,23.24L169.17,23.24L169.17,27.53L165.7,27.53L165.7,27.62C166.33,28.39 166.61,29.45 166.61,30.94C166.61,36.62 162.33,39.08 156.45,39.08C155.68,39.08 154.57,38.94 153.61,38.65C152.6,40.14 152.64,41.34 154.19,41.44L161.89,41.78C166.76,41.97 169.65,44.38 169.65,48.47C169.65,54.68 164.98,57.43 155.01,57.43C147.59,57.43 144.42,55.41 144.42,51.17C144.42,49.1 145.48,47.7 147.98,46.5L147.98,46.41Z" style="fill:white;fill-rule:nonzero;"/>
        <path d="M76.31,61.08L76.31,62.05L75.47,62.05L75.47,66.75C75.47,69.01 74.27,69.98 72.18,69.98C70.08,69.98 68.89,69.01 68.89,66.75L68.89,62.05L68.05,62.05L68.05,61.08L70.95,61.08L70.95,62.05L70.11,62.05L70.11,66.75C70.11,67.72 70.3,69.01 72.2,69.01C74,69.01 74.24,67.72 74.24,66.75L74.24,62.05L73.4,62.05L73.4,61.08L76.31,61.08Z" style="fill:white;fill-rule:nonzero;"/>
        <path d="M85.21,61.08L85.21,62.04L84.37,62.04L84.37,69.85L83.11,69.85L78.81,63.31L78.79,63.31L78.79,68.88L79.66,68.88L79.66,69.85L76.82,69.85L76.82,68.88L77.66,68.88L77.66,62.04L76.82,62.04L76.82,61.08L78.85,61.08L83.21,67.78L83.23,67.78L83.23,62.04L82.37,62.04L82.37,61.08L85.21,61.08Z" style="fill:white;fill-rule:nonzero;"/>
        <path d="M86.56,68.88L86.56,62.04L85.73,62.04L85.73,61.08L88.62,61.08L88.62,62.04L87.78,62.04L87.78,68.88L88.62,68.88L88.62,69.84L85.73,69.84L85.73,68.88L86.56,68.88Z" style="fill:white;fill-rule:nonzero;"/>
        <path d="M97.52,61.08L97.52,62.04L96.84,62.04L94.15,69.91L92.57,69.91L89.78,62.04L89.14,62.04L89.14,61.08L92.3,61.08L92.3,62.04L91.14,62.04L93.42,68.64L93.43,68.64L95.59,62.04L94.43,62.04L94.43,61.08L97.52,61.08Z" style="fill:white;fill-rule:nonzero;"/>
        <path d="M104.55,61.08L104.55,62.94L103.58,62.94L103.58,62.04L100.1,62.04L100.1,64.82L103.9,64.82L103.9,65.78L100.1,65.78L100.1,68.88L103.58,68.88L103.58,67.97L104.55,67.97L104.55,69.85L98.04,69.85L98.04,68.88L98.88,68.88L98.88,62.04L98.04,62.04L98.04,61.08L104.55,61.08Z" style="fill:white;fill-rule:nonzero;"/>
        <path d="M107.45,65.33L109.64,65.33C110.61,65.33 111.28,64.75 111.28,63.69C111.28,62.69 110.67,62.04 109.71,62.04L107.45,62.04L107.45,65.33ZM109.83,61.08C111.57,61.08 112.54,62.15 112.54,63.7C112.54,64.94 111.84,65.9 110.65,66.11L112.61,68.88L113.24,68.88L113.24,69.85L110.21,69.85L110.21,68.88L111.06,68.88L109.31,66.3L107.44,66.3L107.44,68.88L108.28,68.88L108.28,69.85L105.38,69.85L105.38,68.88L106.22,68.88L106.22,62.05L105.38,62.05L105.38,61.08L109.83,61.08Z" style="fill:white;fill-rule:nonzero;"/>
        <path d="M115.06,67.65L115.06,68.66C116.01,68.88 116.66,68.94 117.25,68.94C118.61,68.94 119.12,68.23 119.12,67.52C119.12,66.46 117.87,66.17 116.93,65.91C115.5,65.54 114.16,64.75 114.16,63.27C114.16,61.61 115.51,60.95 117.19,60.95C118.16,60.95 119.06,61.08 120.16,61.4L120.16,63.27L119.19,63.27L119.19,62.23C118.29,62.03 117.76,61.99 117.19,61.99C115.9,61.99 115.45,62.57 115.45,63.25C115.45,64.24 116.73,64.66 117.71,64.89C119.13,65.21 120.42,65.89 120.42,67.4C120.42,69.15 119.07,69.98 117.26,69.98C116.29,69.98 115.2,69.85 114.1,69.53L114.1,67.66L115.06,67.66L115.06,67.65Z" style="fill:white;fill-rule:nonzero;"/>
        <path d="M122.08,68.88L122.08,62.04L121.25,62.04L121.25,61.08L124.15,61.08L124.15,62.04L123.31,62.04L123.31,68.88L124.15,68.88L124.15,69.84L121.25,69.84L121.25,68.88L122.08,68.88Z" style="fill:white;fill-rule:nonzero;"/>
        <path d="M128.62,68.88C130.6,68.88 131.05,67.27 131.05,65.4C131.05,63.53 130.6,62.05 128.62,62.05L126.73,62.05L126.73,68.88L128.62,68.88ZM128.62,61.08C131.5,61.08 132.34,62.95 132.34,65.4C132.34,67.89 131.5,69.85 128.62,69.85L124.66,69.85L124.66,68.88L125.5,68.88L125.5,62.05L124.66,62.05L124.66,61.08L128.62,61.08Z" style="fill:white;fill-rule:nonzero;"/>
        <path d="M136.78,62.17L135.34,66.27L138.15,66.27L136.78,62.17ZM137.64,61.08L140.27,68.88L140.98,68.88L140.98,69.85L137.95,69.85L137.95,68.88L138.95,68.88L138.38,67.18L135.09,67.18L134.48,68.88L135.44,68.88L135.44,69.85L132.47,69.85L132.47,68.88L133.28,68.88L135.69,62.05L134.75,62.05L134.75,61.08L137.64,61.08Z" style="fill:white;fill-rule:nonzero;"/>
        <path d="M145.45,68.88C147.43,68.88 147.88,67.27 147.88,65.4C147.88,63.53 147.43,62.05 145.45,62.05L143.56,62.05L143.56,68.88L145.45,68.88ZM145.45,61.08C148.33,61.08 149.17,62.95 149.17,65.4C149.17,67.89 148.33,69.85 145.45,69.85L141.49,69.85L141.49,68.88L142.33,68.88L142.33,62.05L141.49,62.05L141.49,61.08L145.45,61.08Z" style="fill:white;fill-rule:nonzero;"/>
        <path d="M156.32,61.08L156.32,62.94L155.35,62.94L155.35,62.04L151.87,62.04L151.87,64.82L155.67,64.82L155.67,65.78L151.87,65.78L151.87,68.88L155.35,68.88L155.35,67.97L156.32,67.97L156.32,69.85L149.81,69.85L149.81,68.88L150.65,68.88L150.65,62.04L149.81,62.04L149.81,61.08L156.32,61.08Z" style="fill:white;fill-rule:nonzero;"/>
        <path d="M163.44,68.88C165.41,68.88 165.86,67.27 165.86,65.4C165.86,63.53 165.41,62.05 163.44,62.05L161.54,62.05L161.54,68.88L163.44,68.88ZM163.44,61.08C166.32,61.08 167.15,62.95 167.15,65.4C167.15,67.89 166.31,69.85 163.44,69.85L159.48,69.85L159.48,68.88L160.32,68.88L160.32,62.05L159.48,62.05L159.48,61.08L163.44,61.08Z" style="fill:white;fill-rule:nonzero;"/>
        <path d="M169.6,65.4C169.6,67.27 169.95,69.01 172.05,69.01C174.14,69.01 174.5,67.27 174.5,65.4C174.5,63.53 174.14,61.92 172.05,61.92C169.95,61.92 169.6,63.52 169.6,65.4M168.31,65.4C168.31,62.95 169.04,60.95 172.05,60.95C175.04,60.95 175.79,62.95 175.79,65.4C175.79,67.89 175.04,69.98 172.05,69.98C169.04,69.97 168.31,67.88 168.31,65.4" style="fill:white;fill-rule:nonzero;"/>
        <path d="M183.26,62.17L181.83,66.27L184.64,66.27L183.26,62.17ZM184.12,61.08L186.75,68.88L187.46,68.88L187.46,69.85L184.43,69.85L184.43,68.88L185.42,68.88L184.85,67.18L181.56,67.18L180.95,68.88L181.91,68.88L181.91,69.85L178.94,69.85L178.94,68.88L179.75,68.88L182.16,62.05L181.22,62.05L181.22,61.08L184.12,61.08Z" style="fill:white;fill-rule:nonzero;"/>
        <path d="M194.42,67.97L194.42,69.84L187.98,69.84L187.98,68.88L188.81,68.88L188.81,62.04L187.98,62.04L187.98,61.08L190.88,61.08L190.88,62.04L190.04,62.04L190.04,68.88L193.46,68.88L193.46,67.97L194.42,67.97Z" style="fill:white;fill-rule:nonzero;"/>
        <path d="M198.83,68.94C199.48,68.94 200.07,68.77 200.55,68.52L200.55,66.43L198.87,66.43L198.87,65.46L201.77,65.46L201.77,69.27C200.88,69.65 199.97,69.97 198.74,69.97C195.86,69.97 195,67.88 195,65.39C195,62.94 195.74,60.94 198.74,60.94C199.73,60.94 200.67,61.07 201.77,61.39L201.77,63.19L200.8,63.19L200.8,62.15C199.92,61.95 199.41,61.9 198.82,61.9C196.8,61.9 196.28,63.51 196.28,65.38C196.29,67.33 196.94,68.94 198.83,68.94" style="fill:white;fill-rule:nonzero;"/>
        <path d="M206.99,62.17L205.55,66.27L208.36,66.27L206.99,62.17ZM207.85,61.08L210.48,68.88L211.19,68.88L211.19,69.85L208.16,69.85L208.16,68.88L209.16,68.88L208.59,67.18L205.3,67.18L204.69,68.88L205.65,68.88L205.65,69.85L202.68,69.85L202.68,68.88L203.49,68.88L205.9,62.05L204.96,62.05L204.96,61.08L207.85,61.08Z" style="fill:white;fill-rule:nonzero;"/>
        <path d="M213.77,65.33L215.96,65.33C216.93,65.33 217.6,64.75 217.6,63.69C217.6,62.69 217,62.04 216.03,62.04L213.77,62.04L213.77,65.33ZM216.15,61.08C217.89,61.08 218.86,62.15 218.86,63.7C218.86,64.94 218.16,65.9 216.98,66.11L218.94,68.88L219.57,68.88L219.57,69.85L216.54,69.85L216.54,68.88L217.39,68.88L215.64,66.3L213.77,66.3L213.77,68.88L214.61,68.88L214.61,69.85L211.71,69.85L211.71,68.88L212.55,68.88L212.55,62.05L211.71,62.05L211.71,61.08L216.15,61.08Z" style="fill:white;fill-rule:nonzero;"/>
        <path d="M227.56,61.08L227.56,62.04L226.88,62.04L224.19,69.91L222.61,69.91L219.83,62.04L219.18,62.04L219.18,61.08L222.34,61.08L222.34,62.04L221.18,62.04L223.46,68.64L223.47,68.64L225.63,62.04L224.47,62.04L224.47,61.08L227.56,61.08Z" style="fill:white;fill-rule:nonzero;"/>
        <path d="M234.59,61.08L234.59,62.94L233.62,62.94L233.62,62.04L230.14,62.04L230.14,64.82L233.95,64.82L233.95,65.78L230.14,65.78L230.14,68.88L233.62,68.88L233.62,67.97L234.59,67.97L234.59,69.85L228.08,69.85L228.08,68.88L228.92,68.88L228.92,62.04L228.08,62.04L228.08,61.08L234.59,61.08Z" style="fill:white;fill-rule:nonzero;"/>
        <path d="M190.94,26.23L181.32,26.23L181.32,30.56L189.59,30.56L189.59,34.2L181.32,34.2L181.32,39.22L191.08,39.22L191.08,42.87L177.19,42.87L177.19,22.55L190.94,22.55L190.94,26.23Z" style="fill:white;fill-rule:nonzero;"/>
        <path d="M193.63,42.06L194.35,38.63C197.52,39.37 199.76,39.53 201.34,39.53C203.43,39.53 204.68,38.57 204.68,37.23C204.68,35.35 202.35,34.96 199.99,34.3C196.46,33.31 193.93,31.37 193.93,27.94C193.93,23.85 197.3,22.26 201.34,22.26C203.64,22.26 205.73,22.56 208.51,23.4L207.59,26.84C204.39,26.09 202.9,25.94 201.34,25.94C199.25,25.94 198.26,26.84 198.26,28.06C198.26,29.73 200.44,30.27 202.89,30.87C206.41,31.68 209.01,33.35 209.01,36.91C209.01,41.24 205.67,43.18 201.33,43.18C199.01,43.16 196.4,42.86 193.63,42.06" style="fill:white;fill-rule:nonzero;"/>
        <path d="M225.06,26.23L215.44,26.23L215.44,30.56L223.71,30.56L223.71,34.2L215.44,34.2L215.44,39.22L225.21,39.22L225.21,42.87L211.32,42.87L211.32,22.55L225.06,22.55L225.06,26.23Z" style="fill:white;fill-rule:nonzero;"/>
        <path d="M236.8,22.25C239.22,22.25 241.34,22.55 244.12,23.39L243.2,26.82C240,26.08 238.72,25.93 237.14,25.93C233.37,25.93 232.09,28.53 232.09,32.56C232.09,36.9 233.38,39.53 237.14,39.53C238.72,39.53 240.01,39.38 243.2,38.63L244.12,42.06C241.34,42.87 239.22,43.16 236.8,43.16C229.66,43.16 227.75,38.38 227.75,32.55C227.75,26.82 229.66,22.25 236.8,22.25" style="fill:white;fill-rule:nonzero;"/>
        <path d="M73.06,78.1L69.79,78.1L69.79,80.02L72.63,80.02L72.63,80.84L69.79,80.84L69.79,83.01L73.11,83.01L73.11,83.83L68.87,83.83L68.87,77.28L73.06,77.28L73.06,78.1Z" style="fill:white;fill-rule:nonzero;"/>
        <path d="M74.17,83.59L74.33,82.82C75.33,83.06 76.01,83.11 76.54,83.11C77.5,83.11 77.94,82.61 77.94,82.08C77.94,81.28 77,81.09 76.3,80.89C75.23,80.61 74.28,80.03 74.28,78.92C74.28,77.67 75.29,77.18 76.54,77.18C77.26,77.18 77.94,77.28 78.76,77.52L78.55,78.29C77.56,78.05 77.08,78 76.55,78C75.59,78 75.25,78.43 75.25,78.95C75.25,79.69 76.2,79.95 76.94,80.12C78,80.36 78.92,80.87 78.92,82C78.92,83.3 77.91,83.93 76.56,83.93C75.8,83.93 74.99,83.83 74.17,83.59" style="fill:white;fill-rule:nonzero;"/>
        <path d="M82.58,77.18C83.32,77.18 84.02,77.28 84.84,77.52L84.63,78.29C83.64,78.05 83.18,78 82.65,78C81.14,78 80.75,79.11 80.75,80.5C80.75,82 81.14,83.1 82.65,83.1C83.18,83.1 83.64,83.05 84.64,82.81L84.85,83.58C84.03,83.82 83.33,83.92 82.59,83.92C80.34,83.92 79.79,82.37 79.79,80.49C79.79,78.67 80.34,77.18 82.58,77.18" style="fill:white;fill-rule:nonzero;"/>
        <path d="M86.28,80.51C86.28,81.91 86.54,83.16 88.11,83.16C89.67,83.16 89.94,81.91 89.94,80.51C89.94,79.11 89.67,77.96 88.11,77.96C86.54,77.95 86.28,79.11 86.28,80.51M85.31,80.51C85.31,78.68 85.86,77.19 88.1,77.19C90.34,77.19 90.9,78.68 90.9,80.51C90.9,82.37 90.34,83.93 88.1,83.93C85.86,83.93 85.31,82.37 85.31,80.51" style="fill:white;fill-rule:nonzero;"/>
        <path d="M92.86,77.28L92.86,83.01L96.09,83.01L96.09,83.83L91.95,83.83L91.95,77.28L92.86,77.28Z" style="fill:white;fill-rule:nonzero;"/>
        <path d="M99.64,78.38L98.57,81.4L100.69,81.4L99.66,78.38L99.64,78.38ZM100.88,82.17L98.37,82.17L97.81,83.83L96.85,83.83L99.1,77.23L100.23,77.23L102.44,83.83L101.42,83.83L100.88,82.17Z" style="fill:white;fill-rule:nonzero;"/>
        <path d="M105.04,83.59L105.2,82.82C106.2,83.06 106.88,83.11 107.41,83.11C108.37,83.11 108.81,82.61 108.81,82.08C108.81,81.28 107.87,81.09 107.17,80.89C106.1,80.61 105.14,80.03 105.14,78.92C105.14,77.67 106.15,77.18 107.4,77.18C108.12,77.18 108.8,77.28 109.62,77.52L109.41,78.29C108.42,78.05 107.93,78 107.41,78C106.45,78 106.11,78.43 106.11,78.95C106.11,79.69 107.06,79.95 107.8,80.12C108.86,80.36 109.77,80.87 109.77,82C109.77,83.3 108.76,83.93 107.41,83.93C106.68,83.93 105.86,83.83 105.04,83.59" style="fill:white;fill-rule:nonzero;"/>
        <path d="M114.91,81.52L114.91,77.28L115.82,77.28L115.82,81.52C115.82,83.21 114.93,83.93 113.36,83.93C111.79,83.93 110.9,83.21 110.9,81.52L110.9,77.28L111.82,77.28L111.82,81.52C111.82,82.24 111.97,83.16 113.38,83.16C114.73,83.15 114.91,82.24 114.91,81.52" style="fill:white;fill-rule:nonzero;"/>
        <path d="M117.98,80.41L119.67,80.41C120.4,80.41 120.84,80.05 120.84,79.25C120.84,78.51 120.39,78.1 119.67,78.1L117.98,78.1L117.98,80.41ZM117.98,81.23L117.98,83.83L117.07,83.83L117.07,77.28L119.77,77.28C121.07,77.28 121.79,78.1 121.79,79.25C121.79,80.46 121.07,81.23 119.77,81.23L117.98,81.23Z" style="fill:white;fill-rule:nonzero;"/>
        <path d="M127.04,78.1L123.76,78.1L123.76,80.02L126.6,80.02L126.6,80.84L123.76,80.84L123.76,83.01L127.08,83.01L127.08,83.83L122.84,83.83L122.84,77.28L127.04,77.28L127.04,78.1Z" style="fill:white;fill-rule:nonzero;"/>
        <path d="M129.15,80.46L130.79,80.46C131.51,80.46 132.01,80.07 132.01,79.29C132.01,78.54 131.56,78.1 130.84,78.1L129.15,78.1L129.15,80.46ZM132.1,83.83L130.55,81.28L129.15,81.28L129.15,83.83L128.23,83.83L128.23,77.28L130.93,77.28C132.23,77.28 132.96,78.13 132.96,79.29C132.96,80.21 132.46,80.96 131.5,81.14L133.17,83.84L132.1,83.84L132.1,83.83Z" style="fill:white;fill-rule:nonzero;"/>
        <rect x="134.15" y="77.28" width="0.92" height="6.55" style="fill:white;"/>
        <path d="M137.08,80.51C137.08,81.91 137.34,83.16 138.91,83.16C140.47,83.16 140.74,81.91 140.74,80.51C140.74,79.11 140.47,77.96 138.91,77.96C137.34,77.95 137.08,79.11 137.08,80.51M136.12,80.51C136.12,78.68 136.67,77.19 138.91,77.19C141.15,77.19 141.7,78.68 141.7,80.51C141.7,82.37 141.14,83.93 138.91,83.93C136.67,83.93 136.12,82.37 136.12,80.51" style="fill:white;fill-rule:nonzero;"/>
        <path d="M143.67,80.46L145.31,80.46C146.03,80.46 146.53,80.07 146.53,79.29C146.53,78.54 146.08,78.1 145.36,78.1L143.67,78.1L143.67,80.46ZM146.61,83.83L145.06,81.28L143.66,81.28L143.66,83.83L142.75,83.83L142.75,77.28L145.45,77.28C146.75,77.28 147.47,78.13 147.47,79.29C147.47,80.21 146.97,80.96 146.01,81.14L147.68,83.84L146.61,83.84L146.61,83.83Z" style="fill:white;fill-rule:nonzero;"/>
        <path d="M152.73,83.01C154.2,83.01 154.54,81.9 154.54,80.51C154.54,79.11 154.2,78.1 152.73,78.1L151.31,78.1L151.31,83.01L152.73,83.01ZM150.41,83.83L150.41,77.28L152.74,77.28C154.89,77.28 155.52,78.68 155.52,80.51C155.52,82.37 154.89,83.83 152.74,83.83L150.41,83.83Z" style="fill:white;fill-rule:nonzero;"/>
        <path d="M160.75,78.1L157.47,78.1L157.47,80.02L160.31,80.02L160.31,80.84L157.47,80.84L157.47,83.01L160.79,83.01L160.79,83.83L156.56,83.83L156.56,77.28L160.75,77.28L160.75,78.1Z" style="fill:white;fill-rule:nonzero;"/>
        <path d="M167.87,78.1L164.59,78.1L164.59,80.02L167.43,80.02L167.43,80.84L164.59,80.84L164.59,83.01L167.92,83.01L167.92,83.83L163.68,83.83L163.68,77.28L167.87,77.28L167.87,78.1Z" style="fill:white;fill-rule:nonzero;"/>
        <path d="M171.4,83.01C172.87,83.01 173.21,81.9 173.21,80.51C173.21,79.11 172.87,78.1 171.4,78.1L169.98,78.1L169.98,83.01L171.4,83.01ZM169.07,83.83L169.07,77.28L171.4,77.28C173.55,77.28 174.18,78.68 174.18,80.51C174.18,82.37 173.55,83.83 171.4,83.83L169.07,83.83Z" style="fill:white;fill-rule:nonzero;"/>
        <path d="M179.22,81.52L179.22,77.28L180.13,77.28L180.13,81.52C180.13,83.21 179.23,83.93 177.67,83.93C176.1,83.93 175.21,83.21 175.21,81.52L175.21,77.28L176.13,77.28L176.13,81.52C176.13,82.24 176.27,83.16 177.69,83.16C179.05,83.15 179.22,82.24 179.22,81.52" style="fill:white;fill-rule:nonzero;"/>
        <path d="M183.97,77.18C184.71,77.18 185.42,77.28 186.23,77.52L186.02,78.29C185.03,78.05 184.57,78 184.03,78C182.52,78 182.13,79.11 182.13,80.5C182.13,82 182.51,83.1 184.03,83.1C184.56,83.1 185.02,83.05 186.02,82.81L186.23,83.58C185.41,83.82 184.71,83.92 183.97,83.92C181.73,83.92 181.18,82.37 181.18,80.49C181.18,78.67 181.73,77.18 183.97,77.18" style="fill:white;fill-rule:nonzero;"/>
        <path d="M189.56,78.38L188.49,81.4L190.61,81.4L189.58,78.38L189.56,78.38ZM190.8,82.17L188.3,82.17L187.74,83.83L186.77,83.83L189.03,77.23L190.15,77.23L192.36,83.83L191.34,83.83L190.8,82.17Z" style="fill:white;fill-rule:nonzero;"/>
        <path d="M195.49,77.18C196.23,77.18 196.94,77.28 197.75,77.52L197.54,78.29C196.55,78.05 196.09,78 195.55,78C194.04,78 193.65,79.11 193.65,80.5C193.65,82 194.04,83.1 195.55,83.1C196.08,83.1 196.54,83.05 197.54,82.81L197.75,83.58C196.97,83.81 196.29,83.91 195.58,83.92L195.58,84.35C195.94,84.38 196.39,84.53 196.39,85.04C196.39,85.5 196.03,85.79 195.45,85.79C195.22,85.79 194.99,85.75 194.74,85.67L194.8,85.38C194.95,85.42 195.1,85.45 195.3,85.45C195.73,85.45 195.85,85.19 195.85,85C195.85,84.81 195.71,84.57 195.25,84.54L195.25,83.91C193.21,83.81 192.7,82.32 192.7,80.5C192.7,78.67 193.25,77.18 195.49,77.18" style="fill:white;fill-rule:nonzero;"/>
        <path d="M201.08,78.38L200.01,81.4L202.13,81.4L201.1,78.38L201.08,78.38ZM199.79,76.73L199.51,76.51C199.89,75.89 200.2,75.72 200.53,75.72C201,75.72 201.48,76.22 201.8,76.22C201.97,76.22 202.17,76.16 202.43,75.78L202.66,76.05C202.42,76.54 202.14,76.76 201.8,76.76C201.43,76.76 200.92,76.27 200.56,76.27C200.32,76.27 200.2,76.3 199.79,76.73M202.32,82.17L199.82,82.17L199.26,83.83L198.3,83.83L200.55,77.23L201.68,77.23L203.89,83.83L202.87,83.83L202.32,82.17Z" style="fill:white;fill-rule:nonzero;"/>
        <path d="M205.2,80.51C205.2,81.91 205.46,83.16 207.03,83.16C208.59,83.16 208.86,81.91 208.86,80.51C208.86,79.11 208.59,77.96 207.03,77.96C205.46,77.95 205.2,79.11 205.2,80.51M204.23,80.51C204.23,78.68 204.78,77.19 207.02,77.19C209.26,77.19 209.81,78.68 209.81,80.51C209.81,82.37 209.25,83.93 207.02,83.93C204.78,83.93 204.23,82.37 204.23,80.51" style="fill:white;fill-rule:nonzero;"/>
        <path d="M216.89,78.1L213.62,78.1L213.62,80.02L216.46,80.02L216.46,80.84L213.62,80.84L213.62,83.01L216.94,83.01L216.94,83.83L212.7,83.83L212.7,77.28L216.89,77.28L216.89,78.1Z" style="fill:white;fill-rule:nonzero;"/>
        <path d="M222.52,77.18C223.26,77.18 223.97,77.28 224.78,77.52L224.57,78.29C223.58,78.05 223.12,78 222.59,78C221.08,78 220.69,79.11 220.69,80.5C220.69,82 221.07,83.1 222.59,83.1C223.12,83.1 223.58,83.05 224.57,82.81L224.78,83.58C223.96,83.82 223.26,83.92 222.52,83.92C220.28,83.92 219.73,82.37 219.73,80.49C219.73,78.67 220.28,77.18 222.52,77.18" style="fill:white;fill-rule:nonzero;"/>
        <path d="M226.21,80.51C226.21,81.91 226.47,83.16 228.04,83.16C229.6,83.16 229.87,81.91 229.87,80.51C229.87,79.11 229.6,77.96 228.04,77.96C226.47,77.95 226.21,79.11 226.21,80.51M225.25,80.51C225.25,78.68 225.8,77.19 228.04,77.19C230.28,77.19 230.84,78.68 230.84,80.51C230.84,82.37 230.28,83.93 228.04,83.93C225.8,83.93 225.25,82.37 225.25,80.51" style="fill:white;fill-rule:nonzero;"/>
        <path d="M235.13,82.31L235.14,82.31L237.13,77.28L238.34,77.28L238.34,83.83L237.42,83.83L237.42,78.96L237.4,78.96L235.41,83.83L234.74,83.83L232.78,78.96L232.76,78.96L232.76,83.83L231.88,83.83L231.88,77.28L233.08,77.28L235.13,82.31Z" style="fill:white;fill-rule:nonzero;"/>
        <path d="M243.58,81.52L243.58,77.28L244.5,77.28L244.5,81.52C244.5,83.21 243.6,83.93 242.04,83.93C240.47,83.93 239.58,83.21 239.58,81.52L239.58,77.28L240.5,77.28L240.5,81.52C240.5,82.24 240.64,83.16 242.06,83.16C243.4,83.15 243.58,82.24 243.58,81.52" style="fill:white;fill-rule:nonzero;"/>
        <path d="M245.74,83.83L245.74,77.28L246.65,77.28L249.83,82.15L249.85,82.15L249.85,77.28L250.75,77.28L250.75,83.83L249.83,83.83L246.64,79.07L246.63,79.07L246.63,83.83L245.74,83.83Z" style="fill:white;fill-rule:nonzero;"/>
        <rect x="252" y="77.28" width="0.91" height="6.55" style="fill:white;"/>
        <path d="M256.75,77.18C257.49,77.18 258.2,77.28 259.01,77.52L258.8,78.29C257.81,78.05 257.35,78 256.81,78C255.3,78 254.91,79.11 254.91,80.5C254.91,82 255.3,83.1 256.81,83.1C257.34,83.1 257.81,83.05 258.8,82.81L259.01,83.58C258.19,83.82 257.49,83.92 256.75,83.92C254.5,83.92 253.96,82.37 253.96,80.49C253.96,78.67 254.51,77.18 256.75,77.18" style="fill:white;fill-rule:nonzero;"/>
        <path d="M262.34,78.38L261.27,81.4L263.39,81.4L262.36,78.38L262.34,78.38ZM263.58,82.17L261.07,82.17L260.51,83.83L259.55,83.83L261.8,77.23L262.93,77.23L265.14,83.83L264.12,83.83L263.58,82.17Z" style="fill:white;fill-rule:nonzero;"/>
        <path d="M268.28,77.18C269.02,77.18 269.72,77.28 270.54,77.52L270.33,78.29C269.34,78.05 268.88,78 268.35,78C266.84,78 266.45,79.11 266.45,80.5C266.45,82 266.84,83.1 268.35,83.1C268.88,83.1 269.34,83.05 270.33,82.81L270.54,83.58C269.76,83.81 269.08,83.91 268.37,83.92L268.37,84.35C268.73,84.38 269.18,84.53 269.18,85.04C269.18,85.5 268.82,85.79 268.24,85.79C268.01,85.79 267.77,85.75 267.53,85.67L267.58,85.38C267.74,85.42 267.88,85.45 268.08,85.45C268.5,85.45 268.63,85.19 268.63,85C268.63,84.81 268.5,84.57 268.03,84.54L268.03,83.91C265.99,83.81 265.48,82.32 265.48,80.5C265.48,78.67 266.03,77.18 268.28,77.18" style="fill:white;fill-rule:nonzero;"/>
        <path d="M273.86,78.38L272.79,81.4L274.91,81.4L273.88,78.38L273.86,78.38ZM272.57,76.73L272.29,76.51C272.67,75.89 272.97,75.72 273.31,75.72C273.78,75.72 274.25,76.22 274.58,76.22C274.76,76.22 274.95,76.16 275.21,75.78L275.44,76.05C275.2,76.54 274.92,76.76 274.58,76.76C274.21,76.76 273.7,76.27 273.34,76.27C273.11,76.27 272.98,76.3 272.57,76.73M275.1,82.17L272.6,82.17L272.04,83.83L271.08,83.83L273.33,77.23L274.46,77.23L276.67,83.83L275.65,83.83L275.1,82.17Z" style="fill:white;fill-rule:nonzero;"/>
        <path d="M277.98,80.51C277.98,81.91 278.24,83.16 279.81,83.16C281.37,83.16 281.64,81.91 281.64,80.51C281.64,79.11 281.37,77.96 279.81,77.96C278.24,77.95 277.98,79.11 277.98,80.51M277.01,80.51C277.01,78.68 277.56,77.19 279.81,77.19C282.05,77.19 282.6,78.68 282.6,80.51C282.6,82.37 282.04,83.93 279.81,83.93C277.56,83.93 277.01,82.37 277.01,80.51" style="fill:white;fill-rule:nonzero;"/>
    </g>
</svg>
