<svg width="1080" height="1080" viewBox="0 0 1080 1080" fill="none" xmlns="http://www.w3.org/2000/svg">
<rect width="1080" height="1080" fill="#3131FF"/>
<path d="M257.509 851.197V793.784L261.28 790.006H318.634L322.379 793.784V851.197L318.634 855.451H261.28L257.509 851.197Z" fill="white"/>
<path d="M509.434 851.197V793.784L513.205 790.006H570.559L574.304 793.784V851.197L570.559 855.451H513.205L509.434 851.197Z" fill="white"/>
<path d="M257.509 284.578V227.165L261.28 223.387H318.634L322.379 227.165V284.578L318.634 288.832H261.28L257.509 284.578Z" fill="white"/>
<path d="M509.434 284.578V227.165L513.205 223.387H570.559L574.304 227.165V284.578L570.559 288.832H513.205L509.434 284.578Z" fill="white"/>
<path d="M257.509 568.029V510.616L261.28 506.838H318.634L322.379 510.616V568.029L318.634 572.283H261.28L257.509 568.029Z" fill="white"/>
<path d="M758.13 851.48V794.067L761.901 790.289H819.255L823 794.067V851.48L819.255 855.734H761.901L758.13 851.48Z" fill="white"/>
<path d="M758.13 284.861V227.448L761.901 223.67H819.255L823 227.448V284.861L819.255 289.115H761.901L758.13 284.861Z" fill="white"/>
<path d="M758.13 568.31V510.897L761.901 507.119H819.255L823 510.897V568.31L819.255 572.564H761.901L758.13 568.31Z" fill="white"/>
<path d="M505.336 696.554C452.67 696.554 419.776 659.089 419.776 596.946V539.084C419.776 477.893 452.696 440.427 505.336 440.427C542.001 440.427 566.933 462.251 574.92 499.241H578.22L574.449 445.157V408.167H532.127L527.885 404.363V363.568L532.127 359.764H622.872L626.644 363.568V643.421H668.965L673.208 647.226V688.02L668.965 691.825H582.463L578.22 688.02V637.74H574.92C566.933 674.73 542.027 696.554 505.336 696.554ZM472.443 600.751C472.443 631.584 491.718 650.555 523.695 650.555C554.729 650.555 574.475 631.584 574.475 600.751V536.706C574.475 505.397 554.729 486.427 523.695 486.427C491.718 486.427 472.443 505.397 472.443 536.23V600.751Z" fill="white"/>
<path fill-rule="evenodd" clip-rule="evenodd" d="M284.179 249.561H798.442V830.047H284.179V249.561ZM296.596 261.977V817.63H786.026V261.977H296.596Z" fill="white"/>
</svg>
